<svg width="27" height="29" viewBox="0 0 27 29" fill="none" xmlns="http://www.w3.org/2000/svg">
<g clip-path="url(#clip0_2408_1626)">
<path d="M4.41608 4.30771C4.41608 3.22631 3.53943 2.34967 2.45804 2.34967C1.37664 2.34967 0.5 3.22631 0.5 4.30771C0.5 4.94899 0.808047 5.51721 1.28322 5.87407V13.7063C1.28322 14.9099 2.11863 15.9185 3.24126 16.1836V18.014C3.24126 23.5292 7.71215 28 13.2273 28C18.7424 28 23.2133 23.5292 23.2133 18.014V16.1836C24.3358 15.9185 25.1713 14.9099 25.1713 13.7063V5.87407C25.6465 5.51721 25.9545 4.94899 25.9545 4.30771C25.9545 3.22631 25.0779 2.34967 23.9965 2.34967C22.9151 2.34967 22.0385 3.22631 22.0385 4.30771C22.0385 4.83732 22.2488 5.3171 22.5893 5.66906L22.0036 7.33389C20.9989 6.08589 19.4587 5.28673 17.7307 5.28673H8.72378C6.9958 5.28673 5.45555 6.08589 4.451 7.33389L3.86523 5.66906C4.20585 5.3171 4.41608 4.83732 4.41608 4.30771Z" fill="black"/>
<path d="M22.8223 4.3077C22.8223 3.65886 23.3482 3.13287 23.9971 3.13287C24.646 3.13287 25.1719 3.65886 25.1719 4.3077C25.1719 4.81922 24.8449 5.25439 24.3887 5.41566V13.7063C24.3887 14.6795 23.5998 15.4685 22.6265 15.4685H22.0391V9.59439L23.5211 5.38212C23.1095 5.19947 22.8223 4.78711 22.8223 4.3077Z" fill="#757575"/>
<path d="M3.63285 4.3077C3.63285 3.65886 3.10686 3.13287 2.45803 3.13287C1.80919 3.13287 1.2832 3.65886 1.2832 4.3077C1.2832 4.81922 1.61012 5.25439 2.06642 5.41566V13.7063C2.06642 14.6795 2.85539 15.4685 3.82866 15.4685H4.41607V9.59439L2.93397 5.38212C3.34569 5.19947 3.63285 4.78711 3.63285 4.3077Z" fill="#757575"/>
<path d="M4.02441 10.7692C4.02441 8.17388 6.12837 6.06995 8.72371 6.06995H17.7307C20.3261 6.06995 22.43 8.17388 22.43 10.7692V18.014C22.43 23.0965 18.3098 27.2168 13.2272 27.2168C8.14464 27.2168 4.02441 23.0965 4.02441 18.014V10.7692Z" fill="#CCCCCC"/>
<path d="M9.11523 6.06995H17.339V12.3357H9.11523V6.06995Z" fill="white"/>
<path d="M11.4648 5.87415H13.6187C14.3757 5.87415 14.9893 6.4878 14.9893 7.24477V9.59442C14.9893 10.5677 14.2003 11.3566 13.2271 11.3566C12.2538 11.3566 11.4648 10.5677 11.4648 9.59441V5.87415Z" fill="#F03917"/>
<path d="M10.29 20.5594H16.1642V22.1259H10.29V20.5594Z" fill="black"/>
<path d="M5.78711 13.5105C5.78711 12.8617 6.3131 12.3357 6.96193 12.3357H19.4934C20.1423 12.3357 20.6682 12.8617 20.6682 13.5105V16.6434C20.6682 17.2922 20.1423 17.8182 19.4934 17.8182H6.96193C6.3131 17.8182 5.78711 17.2922 5.78711 16.6434V13.5105Z" fill="black"/>
<path d="M7.74512 14.4895C7.74512 13.8407 8.27111 13.3147 8.91994 13.3147C9.56878 13.3147 10.0948 13.8407 10.0948 14.4895V15.6643C10.0948 16.3132 9.56878 16.8392 8.91994 16.8392C8.27111 16.8392 7.74512 16.3132 7.74512 15.6643V14.4895Z" fill="#30D2F8"/>
<path d="M16.3604 14.4895C16.3604 13.8407 16.8863 13.3147 17.5352 13.3147C18.184 13.3147 18.71 13.8407 18.71 14.4895V15.6643C18.71 16.3132 18.184 16.8392 17.5352 16.8392C16.8863 16.8392 16.3604 16.3132 16.3604 15.6643V14.4895Z" fill="#30D2F8"/>
<path d="M8.08962 25.6504C5.63729 23.9972 4.02441 21.1941 4.02441 18.014V17.9397L8.1363 21.3427V25.6504H8.08962Z" fill="#757575"/>
<path d="M22.4293 17.9397V18.014C22.4293 21.1941 20.8164 23.9972 18.364 25.6504H18.3174V21.3427L22.4293 17.9397Z" fill="#757575"/>
<path fill-rule="evenodd" clip-rule="evenodd" d="M9.14934 4.7329C8.92534 4.9569 8.85834 5.29378 8.97956 5.58645C9.10078 5.87912 9.38636 6.06995 9.70316 6.06995H12.2685L11.5053 8.36859C11.3909 8.71317 11.5283 9.09119 11.8372 9.28188C12.1462 9.47258 12.5457 9.42594 12.8024 9.16922L17.3059 4.66572C17.5299 4.44172 17.5969 4.10484 17.4757 3.81217C17.3545 3.5195 17.0689 3.32869 16.7521 3.32869H14.1868L14.95 1.03003C15.0644 0.685456 14.927 0.307436 14.618 0.116745C14.3091 -0.0739462 13.9096 -0.0273105 13.6528 0.229414L9.14934 4.7329Z" fill="black"/>
<path d="M9.70215 5.28672L14.2056 0.783234L13.1005 4.11189H16.7511L12.2476 8.61539L13.3528 5.28672H9.70215Z" fill="#FFC93A"/>
</g>
<defs>
<clipPath id="clip0_2408_1626">
<rect width="26" height="28.6" fill="white" transform="translate(0.5)"/>
</clipPath>
</defs>
</svg>
