<svg width="480" height="528" viewBox="0 0 480 528" fill="none" xmlns="http://www.w3.org/2000/svg">
<path d="M73.8461 81.2321C73.8461 60.8401 57.3151 44.3091 36.9231 44.3091C16.531 44.3091 0 60.8401 0 81.2321C0 93.3251 5.80888 104.04 14.7692 110.769V258.463C14.7692 281.16 30.5228 300.178 51.6923 305.178V339.694C51.6923 443.693 136 528.001 240 528.001C343.999 528.001 428.307 443.693 428.307 339.694V305.178C449.477 300.178 465.23 281.16 465.23 258.463V110.769C474.191 104.04 480 93.3251 480 81.2321C480 60.8401 463.469 44.3091 443.077 44.3091C422.685 44.3091 406.154 60.8401 406.154 81.2321C406.154 91.2194 410.118 100.266 416.541 106.903L405.495 138.297C386.552 114.764 357.507 99.6937 324.923 99.6937H155.077C122.492 99.6937 93.4475 114.764 74.5045 138.297L63.4584 106.903C69.8816 100.266 73.8461 91.2194 73.8461 81.2321Z" fill="black"/>
<path d="M420.924 81.2315C420.924 68.9962 430.842 59.0776 443.077 59.0776C455.313 59.0776 465.231 68.9962 465.231 81.2315C465.231 90.8774 459.066 99.0835 450.462 102.125V258.462C450.462 276.815 435.584 291.693 417.231 291.693H406.154V180.924L434.102 101.492C426.339 98.0478 420.924 90.272 420.924 81.2315Z" fill="#757575"/>
<path d="M59.0791 81.2315C59.0791 68.9962 49.1605 59.0776 36.9253 59.0776C24.6901 59.0776 14.7715 68.9962 14.7715 81.2315C14.7715 90.8774 20.9362 99.0835 29.5407 102.125V258.462C29.5407 276.815 44.4186 291.693 62.7715 291.693H73.8484V180.924L45.9002 101.492C53.6639 98.0478 59.0791 90.272 59.0791 81.2315Z" fill="#757575"/>
<path d="M66.46 203.078C66.46 154.137 106.134 114.462 155.075 114.462H324.921C373.862 114.462 413.537 154.137 413.537 203.078V339.693C413.537 435.536 335.841 513.231 239.998 513.231C144.156 513.231 66.46 435.536 66.46 339.693V203.078Z" fill="#CCCCCC"/>
<path d="M162.464 114.462H317.541V232.616H162.464V114.462Z" fill="white"/>
<path d="M206.767 110.769H273.228V180.923C273.228 199.276 258.35 214.154 239.997 214.154C221.645 214.154 206.767 199.276 206.767 180.923V110.769Z" fill="#F03917"/>
<path d="M184.615 387.692H295.384V417.231H184.615V387.692Z" fill="black"/>
<path d="M99.6934 254.768C99.6934 242.533 109.612 232.614 121.847 232.614H358.155C370.39 232.614 380.309 242.533 380.309 254.768V313.845C380.309 326.08 370.39 335.999 358.155 335.999H121.847C109.612 335.999 99.6934 326.08 99.6934 313.845V254.768Z" fill="black"/>
<path d="M136.616 273.23C136.616 260.994 146.535 251.076 158.77 251.076C171.005 251.076 180.924 260.994 180.924 273.23V295.383C180.924 307.619 171.005 317.537 158.77 317.537C146.535 317.537 136.616 307.619 136.616 295.383V273.23Z" fill="#30D2F8"/>
<path d="M299.074 273.23C299.074 260.994 308.993 251.076 321.228 251.076C333.463 251.076 343.382 260.994 343.382 273.23V295.383C343.382 307.619 333.463 317.537 321.228 317.537C308.993 317.537 299.074 307.619 299.074 295.383V273.23Z" fill="#30D2F8"/>
<path d="M143.118 483.694C96.8743 452.521 66.46 399.659 66.46 339.694V338.293L143.998 402.463V483.694H143.118Z" fill="#757575"/>
<path d="M413.536 338.293V339.694C413.536 399.659 383.122 452.521 336.878 483.694H335.998V402.463L413.536 338.293Z" fill="#757575"/>
<path fill-rule="evenodd" clip-rule="evenodd" d="M163.095 89.2491C158.871 93.4731 157.607 99.8256 159.893 105.344C162.179 110.863 167.565 114.462 173.538 114.462H221.913L207.521 157.808C205.364 164.306 207.955 171.434 213.781 175.03C219.607 178.626 227.14 177.746 231.982 172.905L316.905 87.9821C321.129 83.7582 322.392 77.4057 320.106 71.8868C317.82 66.3679 312.435 62.7695 306.461 62.7695H258.086L272.478 19.4233C274.635 12.9257 272.044 5.79736 266.218 2.20147C260.392 -1.39442 252.859 -0.514998 248.018 4.32611L163.095 89.2491Z" fill="black"/>
<path d="M173.54 99.6916L258.463 14.7686L237.623 77.5377H306.463L221.54 162.461L242.38 99.6916H173.54Z" fill="#FFC93A"/>
</svg>
