<svg width="1906" height="480" viewBox="0 0 1906 480" fill="none" xmlns="http://www.w3.org/2000/svg">
<path d="M70.1332 73.8472C70.1332 55.309 54.6595 40.2808 35.5717 40.2808C16.484 40.2808 1.01025 55.309 1.01025 73.8472C1.01025 84.8408 6.44761 94.5815 14.8348 100.699V234.966C14.8348 255.6 29.5809 272.889 49.3963 277.435V308.812C49.3963 403.357 128.312 480.001 225.66 480.001C323.008 480.001 401.923 403.357 401.923 308.812V277.435C421.739 272.889 436.485 255.6 436.485 234.966V100.699C444.872 94.5815 450.31 84.8408 450.31 73.8472C450.31 55.309 434.836 40.2808 415.748 40.2808C396.66 40.2808 381.187 55.309 381.187 73.8472C381.187 82.9265 384.897 91.1511 390.91 97.1846L380.57 125.725C362.839 104.33 335.652 90.6304 305.151 90.6304H146.168C115.668 90.6304 88.4809 104.33 70.7495 125.725L60.4099 97.1846C66.4223 91.1511 70.1332 82.9265 70.1332 73.8472Z" fill="black"/>
<path d="M395.011 73.8474C395.011 62.7244 404.295 53.7075 415.748 53.7075C427.2 53.7075 436.484 62.7244 436.484 73.8474C436.484 82.6164 430.714 90.0764 422.66 92.8412V234.966C422.66 251.651 408.733 265.176 391.554 265.176H381.186V164.477L407.347 92.266C400.08 89.1349 395.011 82.0661 395.011 73.8474Z" fill="#757575"/>
<path d="M56.3087 73.8474C56.3087 62.7244 47.0245 53.7075 35.5719 53.7075C24.1192 53.7075 14.835 62.7244 14.835 73.8474C14.835 82.6164 20.6054 90.0764 28.6596 92.8412V234.966C28.6596 251.651 42.5859 265.176 59.7649 265.176H70.1333V164.477L43.9727 92.266C51.2399 89.1349 56.3087 82.0661 56.3087 73.8474Z" fill="#757575"/>
<path d="M63.2207 184.615C63.2207 140.123 100.358 104.055 146.168 104.055H305.151C350.962 104.055 388.099 140.123 388.099 184.615V308.81C388.099 395.94 315.372 466.572 225.66 466.572C135.947 466.572 63.2207 395.94 63.2207 308.81V184.615Z" fill="#CCCCCC"/>
<path d="M153.081 104.055H298.239V211.468H153.081V104.055Z" fill="white"/>
<path d="M194.554 100.7H256.765V164.476C256.765 181.16 242.839 194.686 225.66 194.686C208.481 194.686 194.554 181.16 194.554 164.476V100.7Z" fill="#F03917"/>
<path d="M173.817 352.447H277.502V379.3H173.817V352.447Z" fill="black"/>
<path d="M94.3271 231.608C94.3271 220.485 103.611 211.468 115.064 211.468H336.258C347.71 211.468 356.994 220.485 356.994 231.608V285.314C356.994 296.437 347.71 305.454 336.258 305.454H115.064C103.611 305.454 94.3271 296.437 94.3271 285.314V231.608Z" fill="black"/>
<path d="M128.889 248.391C128.889 237.268 138.173 228.251 149.626 228.251C161.078 228.251 170.362 237.268 170.362 248.391V268.531C170.362 279.654 161.078 288.671 149.626 288.671C138.173 288.671 128.889 279.654 128.889 268.531V248.391Z" fill="#30D2F8"/>
<path d="M280.959 248.391C280.959 237.268 290.243 228.251 301.696 228.251C313.149 228.251 322.433 237.268 322.433 248.391V268.531C322.433 279.654 313.149 288.671 301.696 288.671C290.243 288.671 280.959 279.654 280.959 268.531V248.391Z" fill="#30D2F8"/>
<path d="M134.976 439.719C91.6898 411.38 63.2207 363.324 63.2207 308.81V307.537L135.8 365.873V439.719H134.976Z" fill="#757575"/>
<path d="M388.1 307.537V308.81C388.1 363.324 359.631 411.38 316.344 439.719H315.521V365.873L388.1 307.537Z" fill="#757575"/>
<path fill-rule="evenodd" clip-rule="evenodd" d="M153.673 81.1356C149.719 84.9756 148.536 90.7506 150.676 95.7677C152.816 100.785 157.857 104.056 163.449 104.056H208.729L195.258 143.462C193.239 149.369 195.664 155.849 201.117 159.118C206.571 162.387 213.622 161.588 218.154 157.187L297.645 79.9838C301.599 76.1438 302.782 70.3688 300.642 65.3516C298.502 60.3345 293.461 57.0632 287.87 57.0632H242.589L256.06 17.6576C258.08 11.7507 255.654 5.27033 250.201 2.00134C244.748 -1.26765 237.696 -0.46818 233.164 3.93283L153.673 81.1356Z" fill="black"/>
<path d="M163.45 90.6295L242.941 13.4268L223.434 70.4897H287.871L208.38 147.692L227.887 90.6295H163.45Z" fill="#FFC93A"/>
<mask id="path-15-outside-1_199_543" maskUnits="userSpaceOnUse" x="579.818" y="161.636" width="1287" height="222" fill="black">
<rect fill="white" x="579.818" y="161.636" width="1287" height="222"/>
<path d="M581.818 378.343V368.824H589.216C600.388 368.824 607.233 367.917 609.749 366.104C612.366 364.19 613.674 360.211 613.674 354.168V192.042C613.674 186.099 612.366 182.221 609.749 180.408C607.132 178.494 600.288 177.537 589.216 177.537H581.818V167.867H751.515L760.121 237.522H752.421C751.012 225.736 749.351 216.52 747.439 209.871C745.627 203.123 742.608 197.079 738.38 191.74C734.153 186.401 728.466 182.725 721.32 180.71C714.274 178.595 704.964 177.537 693.39 177.537H656.249C649.204 177.537 644.926 178.292 643.417 179.803C641.907 181.214 641.152 184.588 641.152 189.927V268.194H667.724C681.714 268.194 690.672 265.676 694.597 260.64C698.523 255.603 700.485 246.034 700.485 231.931H708.185V313.976H700.485C700.485 299.773 698.523 290.204 694.597 285.268C690.672 280.232 681.714 277.713 667.724 277.713H641.152V353.865C641.152 358.197 641.504 361.219 642.209 362.931C642.913 364.543 645.43 365.953 649.757 367.162C654.085 368.27 660.98 368.824 670.441 368.824H680.708V378.343C673.259 377.738 655.947 377.436 628.772 377.436C604.716 377.436 589.065 377.738 581.818 378.343Z"/>
<path d="M783.522 378.343V368.824C794.493 368.824 801.237 368.169 803.753 366.86C806.269 365.449 807.527 361.42 807.527 354.772V193.855C807.527 186.2 806.168 181.415 803.451 179.501C800.834 177.587 794.191 176.63 783.522 176.63V166.96L827.909 163.636V354.772C827.909 361.42 829.217 365.449 831.834 366.86C834.451 368.169 841.195 368.824 852.065 368.824V378.343C849.549 378.343 845.674 378.242 840.44 378.041C835.206 377.839 830.677 377.688 826.852 377.587C823.027 377.487 820.008 377.436 817.794 377.436C815.378 377.436 803.954 377.738 783.522 378.343Z"/>
<path d="M871.994 348.879C871.994 331.352 882.311 317.955 902.944 308.688C915.324 302.745 934.297 299.018 959.862 297.507V286.175C959.862 273.382 956.49 263.611 949.746 256.862C943.104 250.012 935.555 246.588 927.1 246.588C912.003 246.588 900.83 251.322 893.583 260.791C899.723 260.992 903.9 262.654 906.114 265.777C908.329 268.799 909.436 271.871 909.436 274.994C909.436 279.124 908.127 282.548 905.511 285.268C902.994 287.887 899.572 289.197 895.244 289.197C891.118 289.197 887.695 287.937 884.978 285.419C882.26 282.8 880.901 279.224 880.901 274.691C880.901 264.618 885.431 256.258 894.489 249.61C903.649 242.961 914.72 239.637 927.704 239.637C944.613 239.637 958.704 245.329 969.977 256.711C973.5 260.237 976.117 264.266 977.828 268.799C979.64 273.332 980.646 277.109 980.847 280.131C981.049 283.052 981.149 287.434 981.149 293.276V355.074C981.149 356.283 981.351 357.895 981.753 359.909C982.156 361.924 983.263 364.241 985.075 366.86C986.987 369.378 989.503 370.637 992.624 370.637C1000.07 370.637 1003.75 364.039 1003.64 350.843V333.468H1011.5V350.843C1011.5 361.823 1008.58 369.479 1002.74 373.81C997.002 378.041 991.466 380.156 986.132 380.156C979.287 380.156 973.701 377.638 969.373 372.601C965.045 367.565 962.579 361.622 961.976 354.772C958.855 362.629 953.722 369.126 946.576 374.263C939.53 379.3 931.176 381.818 921.514 381.818C914.066 381.818 906.819 380.861 899.773 378.947C892.829 377.134 886.437 373.659 880.6 368.522C874.862 363.284 871.994 356.736 871.994 348.879ZM895.848 348.577C895.848 356.233 898.566 362.528 904.001 367.464C909.436 372.4 915.978 374.868 923.628 374.868C932.284 374.868 940.487 371.544 948.237 364.895C955.987 358.146 959.862 348.174 959.862 334.978V304.004C937.014 304.81 920.608 309.796 910.644 318.962C900.78 328.028 895.848 337.9 895.848 348.577Z"/>
<path d="M1023.88 374.263V333.468C1023.88 331.151 1023.93 329.589 1024.03 328.784C1024.13 327.978 1024.48 327.273 1025.08 326.668C1025.69 326.064 1026.59 325.762 1027.8 325.762C1029.21 325.762 1030.17 326.064 1030.67 326.668C1031.27 327.273 1031.78 328.733 1032.18 331.05C1035.3 345.253 1040.18 356.132 1046.82 363.687C1053.57 371.141 1063.03 374.868 1075.21 374.868C1086.78 374.868 1095.49 372.299 1101.33 367.162C1107.16 362.025 1110.08 355.225 1110.08 346.764C1110.08 331.654 1099.36 322.186 1077.92 318.358C1065.54 315.84 1056.79 313.775 1051.66 312.163C1046.52 310.451 1041.69 307.731 1037.16 304.004C1028.3 296.751 1023.88 287.988 1023.88 277.713C1023.88 267.439 1027.75 258.524 1035.5 250.969C1043.35 243.415 1055.93 239.637 1073.24 239.637C1084.82 239.637 1094.53 242.558 1102.38 248.401C1104.7 246.588 1106.46 244.926 1107.67 243.415C1110.38 240.896 1112.45 239.637 1113.86 239.637C1115.47 239.637 1116.42 240.191 1116.73 241.299C1117.03 242.307 1117.18 244.271 1117.18 247.192V278.318C1117.18 280.634 1117.13 282.196 1117.03 283.002C1116.93 283.807 1116.57 284.513 1115.97 285.117C1115.37 285.621 1114.41 285.872 1113.1 285.872C1110.79 285.872 1109.58 284.916 1109.48 283.002C1107.87 258.021 1095.79 245.53 1073.24 245.53C1061.07 245.53 1052.26 247.897 1046.82 252.631C1041.39 257.265 1038.67 262.755 1038.67 269.101C1038.67 272.626 1039.48 275.749 1041.09 278.469C1042.8 281.088 1044.71 283.203 1046.82 284.815C1049.04 286.326 1052.16 287.837 1056.18 289.348C1060.21 290.758 1063.43 291.715 1065.85 292.218C1068.36 292.722 1071.99 293.478 1076.72 294.485C1093.22 297.608 1104.95 302.543 1111.89 309.292C1120.55 317.955 1124.88 327.776 1124.88 338.756C1124.88 350.944 1120.75 361.168 1112.5 369.428C1104.25 377.688 1091.81 381.818 1075.21 381.818C1061.82 381.818 1050.45 377.336 1041.09 368.371C1039.88 369.579 1038.82 370.738 1037.92 371.846C1037.01 372.853 1036.36 373.558 1035.95 373.961C1035.65 374.364 1035.45 374.717 1035.35 375.019C1035.25 375.22 1035.1 375.422 1034.9 375.623C1030.77 379.753 1028.2 381.818 1027.2 381.818C1025.59 381.818 1024.63 381.264 1024.33 380.156C1024.03 379.149 1023.88 377.184 1023.88 374.263Z"/>
<path d="M1145.26 378.343V368.824C1156.23 368.824 1162.97 368.169 1165.49 366.86C1168.01 365.449 1169.27 361.42 1169.27 354.772V193.855C1169.27 186.2 1167.91 181.415 1165.19 179.501C1162.57 177.587 1155.93 176.63 1145.26 176.63V166.96L1189.65 163.636V271.216H1189.95C1193.27 263.762 1198.66 256.963 1206.1 250.818C1213.55 244.674 1223.01 241.601 1234.49 241.601C1249.99 241.601 1260.81 245.429 1266.95 253.085C1271.48 258.222 1274.19 263.661 1275.1 269.403C1276.11 275.145 1276.61 285.47 1276.61 300.378V359.456C1276.81 363.787 1278.57 366.457 1281.89 367.464C1285.21 368.371 1291.51 368.824 1300.77 368.824V378.343C1279.73 377.738 1268.15 377.436 1266.04 377.436C1264.43 377.436 1252.81 377.738 1231.17 378.343V368.824C1242.14 368.824 1248.88 368.169 1251.4 366.86C1254.01 365.449 1255.32 361.42 1255.32 354.772V282.699C1255.32 272.223 1253.71 263.913 1250.49 257.769C1247.27 251.523 1241.23 248.401 1232.37 248.401C1221.7 248.401 1212.09 252.883 1203.54 261.848C1194.98 270.813 1190.7 282.851 1190.7 297.96V354.772C1190.7 361.42 1191.96 365.449 1194.48 366.86C1197.1 368.169 1203.84 368.824 1214.71 368.824V378.343C1193.67 377.738 1182.15 377.436 1180.14 377.436C1178.53 377.436 1166.9 377.738 1145.26 378.343Z"/>
<path d="M1306.65 176.63V166.96L1351.19 163.636V261.697C1363.17 248.3 1377.31 241.601 1393.62 241.601C1411.33 241.601 1426.68 248.401 1439.66 261.999C1452.65 275.598 1459.14 292.118 1459.14 311.559C1459.14 331.201 1452.35 347.822 1438.76 361.42C1425.17 375.019 1408.96 381.818 1390.14 381.818C1373.03 381.818 1359.55 374.263 1349.68 359.154C1342.43 371.745 1338.71 378.141 1338.51 378.343H1330.81V193.855C1330.81 186.2 1329.45 181.415 1326.73 179.501C1324.02 177.587 1317.32 176.63 1306.65 176.63ZM1352.1 343.138C1352.1 347.469 1353.56 351.8 1356.48 356.132C1364.63 368.622 1375.35 374.868 1388.63 374.868C1388.73 374.868 1388.83 374.868 1388.94 374.868C1403.33 374.868 1415 368.27 1423.96 355.074C1430.3 345.203 1433.47 330.597 1433.47 311.256C1433.47 292.118 1430.5 277.764 1424.57 268.194C1416.31 254.999 1405.49 248.401 1392.11 248.401C1377.01 248.401 1364.83 254.999 1355.57 268.194C1353.25 271.518 1352.1 275.245 1352.1 279.375V343.138Z"/>
<path d="M1507.3 361.722C1493.71 348.225 1486.92 331.705 1486.92 312.163C1486.92 292.521 1493.56 275.548 1506.85 261.244C1520.23 246.839 1536.49 239.637 1555.61 239.637C1574.33 239.637 1590.39 246.789 1603.77 261.093C1617.26 275.296 1624 292.319 1624 312.163C1624 331.604 1617.21 348.073 1603.62 361.571C1590.14 375.069 1574.03 381.818 1555.31 381.818C1536.99 381.818 1520.99 375.119 1507.3 361.722ZM1512.58 309.594C1512.58 329.64 1515.2 344.195 1520.44 353.261C1528.49 367.061 1540.21 373.961 1555.61 373.961C1563.26 373.961 1570.26 371.896 1576.6 367.766C1583.04 363.636 1588.02 358.096 1591.54 351.146C1596.07 342.08 1598.34 328.23 1598.34 309.594C1598.34 289.751 1595.62 275.447 1590.19 266.683C1582.13 253.286 1570.51 246.588 1555.31 246.588C1548.67 246.588 1542.08 248.35 1535.53 251.876C1529.09 255.301 1523.91 260.438 1519.98 267.288C1515.05 276.353 1512.58 290.456 1512.58 309.594Z"/>
<path d="M1638.8 254.596V247.796C1648.26 247.393 1656.11 243.868 1662.35 237.22C1668.69 230.471 1672.92 222.966 1675.03 214.706C1677.25 206.447 1678.46 197.532 1678.66 187.963H1686.36V244.926H1730.59V254.596H1686.36V340.569C1686.36 362.83 1693.3 373.961 1707.19 373.961C1713.13 373.961 1718.06 370.939 1721.99 364.895C1725.91 358.751 1727.88 350.239 1727.88 339.36V322.286H1735.58V339.965C1735.58 351.146 1733.01 360.917 1727.88 369.277C1722.74 377.638 1715.09 381.818 1704.93 381.818C1701.2 381.818 1697.48 381.314 1693.76 380.307C1690.13 379.401 1685.9 377.738 1681.07 375.321C1676.34 372.803 1672.47 368.522 1669.45 362.478C1666.53 356.333 1665.07 348.829 1665.07 339.965V254.596H1638.8Z"/>
<path d="M1763.05 374.263V333.468C1763.05 331.151 1763.1 329.589 1763.2 328.784C1763.3 327.978 1763.66 327.273 1764.26 326.668C1764.87 326.064 1765.77 325.762 1766.98 325.762C1768.39 325.762 1769.34 326.064 1769.85 326.668C1770.45 327.273 1770.95 328.733 1771.36 331.05C1774.48 345.253 1779.36 356.132 1786 363.687C1792.75 371.141 1802.21 374.868 1814.39 374.868C1825.96 374.868 1834.67 372.299 1840.5 367.162C1846.34 362.025 1849.26 355.225 1849.26 346.764C1849.26 331.654 1838.54 322.186 1817.1 318.358C1804.72 315.84 1795.97 313.775 1790.83 312.163C1785.7 310.451 1780.87 307.731 1776.34 304.004C1767.48 296.751 1763.05 287.988 1763.05 277.713C1763.05 267.439 1766.93 258.524 1774.68 250.969C1782.53 243.415 1795.11 239.637 1812.42 239.637C1824 239.637 1833.71 242.558 1841.56 248.401C1843.88 246.588 1845.64 244.926 1846.84 243.415C1849.56 240.896 1851.63 239.637 1853.03 239.637C1854.65 239.637 1855.6 240.191 1855.9 241.299C1856.21 242.307 1856.36 244.271 1856.36 247.192V278.318C1856.36 280.634 1856.31 282.196 1856.21 283.002C1856.1 283.807 1855.75 284.513 1855.15 285.117C1854.54 285.621 1853.59 285.872 1852.28 285.872C1849.97 285.872 1848.76 284.916 1848.66 283.002C1847.05 258.021 1834.97 245.53 1812.42 245.53C1800.24 245.53 1791.44 247.897 1786 252.631C1780.57 257.265 1777.85 262.755 1777.85 269.101C1777.85 272.626 1778.65 275.749 1780.26 278.469C1781.98 281.088 1783.89 283.203 1786 284.815C1788.22 286.326 1791.34 287.837 1795.36 289.348C1799.39 290.758 1802.61 291.715 1805.02 292.218C1807.54 292.722 1811.16 293.478 1815.89 294.485C1832.4 297.608 1844.13 302.543 1851.07 309.292C1859.73 317.955 1864.06 327.776 1864.06 338.756C1864.06 350.944 1859.93 361.168 1851.68 369.428C1843.42 377.688 1830.99 381.818 1814.39 381.818C1801 381.818 1789.63 377.336 1780.26 368.371C1779.06 369.579 1778 370.738 1777.09 371.846C1776.19 372.853 1775.53 373.558 1775.13 373.961C1774.83 374.364 1774.63 374.717 1774.53 375.019C1774.43 375.22 1774.28 375.422 1774.07 375.623C1769.95 379.753 1767.38 381.818 1766.37 381.818C1764.76 381.818 1763.81 381.264 1763.51 380.156C1763.2 379.149 1763.05 377.184 1763.05 374.263Z"/>
</mask>
<path d="M581.818 378.343V368.824H589.216C600.388 368.824 607.233 367.917 609.749 366.104C612.366 364.19 613.674 360.211 613.674 354.168V192.042C613.674 186.099 612.366 182.221 609.749 180.408C607.132 178.494 600.288 177.537 589.216 177.537H581.818V167.867H751.515L760.121 237.522H752.421C751.012 225.736 749.351 216.52 747.439 209.871C745.627 203.123 742.608 197.079 738.38 191.74C734.153 186.401 728.466 182.725 721.32 180.71C714.274 178.595 704.964 177.537 693.39 177.537H656.249C649.204 177.537 644.926 178.292 643.417 179.803C641.907 181.214 641.152 184.588 641.152 189.927V268.194H667.724C681.714 268.194 690.672 265.676 694.597 260.64C698.523 255.603 700.485 246.034 700.485 231.931H708.185V313.976H700.485C700.485 299.773 698.523 290.204 694.597 285.268C690.672 280.232 681.714 277.713 667.724 277.713H641.152V353.865C641.152 358.197 641.504 361.219 642.209 362.931C642.913 364.543 645.43 365.953 649.757 367.162C654.085 368.27 660.98 368.824 670.441 368.824H680.708V378.343C673.259 377.738 655.947 377.436 628.772 377.436C604.716 377.436 589.065 377.738 581.818 378.343Z" fill="black"/>
<path d="M783.522 378.343V368.824C794.493 368.824 801.237 368.169 803.753 366.86C806.269 365.449 807.527 361.42 807.527 354.772V193.855C807.527 186.2 806.168 181.415 803.451 179.501C800.834 177.587 794.191 176.63 783.522 176.63V166.96L827.909 163.636V354.772C827.909 361.42 829.217 365.449 831.834 366.86C834.451 368.169 841.195 368.824 852.065 368.824V378.343C849.549 378.343 845.674 378.242 840.44 378.041C835.206 377.839 830.677 377.688 826.852 377.587C823.027 377.487 820.008 377.436 817.794 377.436C815.378 377.436 803.954 377.738 783.522 378.343Z" fill="black"/>
<path d="M871.994 348.879C871.994 331.352 882.311 317.955 902.944 308.688C915.324 302.745 934.297 299.018 959.862 297.507V286.175C959.862 273.382 956.49 263.611 949.746 256.862C943.104 250.012 935.555 246.588 927.1 246.588C912.003 246.588 900.83 251.322 893.583 260.791C899.723 260.992 903.9 262.654 906.114 265.777C908.329 268.799 909.436 271.871 909.436 274.994C909.436 279.124 908.127 282.548 905.511 285.268C902.994 287.887 899.572 289.197 895.244 289.197C891.118 289.197 887.695 287.937 884.978 285.419C882.26 282.8 880.901 279.224 880.901 274.691C880.901 264.618 885.431 256.258 894.489 249.61C903.649 242.961 914.72 239.637 927.704 239.637C944.613 239.637 958.704 245.329 969.977 256.711C973.5 260.237 976.117 264.266 977.828 268.799C979.64 273.332 980.646 277.109 980.847 280.131C981.049 283.052 981.149 287.434 981.149 293.276V355.074C981.149 356.283 981.351 357.895 981.753 359.909C982.156 361.924 983.263 364.241 985.075 366.86C986.987 369.378 989.503 370.637 992.624 370.637C1000.07 370.637 1003.75 364.039 1003.64 350.843V333.468H1011.5V350.843C1011.5 361.823 1008.58 369.479 1002.74 373.81C997.002 378.041 991.466 380.156 986.132 380.156C979.287 380.156 973.701 377.638 969.373 372.601C965.045 367.565 962.579 361.622 961.976 354.772C958.855 362.629 953.722 369.126 946.576 374.263C939.53 379.3 931.176 381.818 921.514 381.818C914.066 381.818 906.819 380.861 899.773 378.947C892.829 377.134 886.437 373.659 880.6 368.522C874.862 363.284 871.994 356.736 871.994 348.879ZM895.848 348.577C895.848 356.233 898.566 362.528 904.001 367.464C909.436 372.4 915.978 374.868 923.628 374.868C932.284 374.868 940.487 371.544 948.237 364.895C955.987 358.146 959.862 348.174 959.862 334.978V304.004C937.014 304.81 920.608 309.796 910.644 318.962C900.78 328.028 895.848 337.9 895.848 348.577Z" fill="black"/>
<path d="M1023.88 374.263V333.468C1023.88 331.151 1023.93 329.589 1024.03 328.784C1024.13 327.978 1024.48 327.273 1025.08 326.668C1025.69 326.064 1026.59 325.762 1027.8 325.762C1029.21 325.762 1030.17 326.064 1030.67 326.668C1031.27 327.273 1031.78 328.733 1032.18 331.05C1035.3 345.253 1040.18 356.132 1046.82 363.687C1053.57 371.141 1063.03 374.868 1075.21 374.868C1086.78 374.868 1095.49 372.299 1101.33 367.162C1107.16 362.025 1110.08 355.225 1110.08 346.764C1110.08 331.654 1099.36 322.186 1077.92 318.358C1065.54 315.84 1056.79 313.775 1051.66 312.163C1046.52 310.451 1041.69 307.731 1037.16 304.004C1028.3 296.751 1023.88 287.988 1023.88 277.713C1023.88 267.439 1027.75 258.524 1035.5 250.969C1043.35 243.415 1055.93 239.637 1073.24 239.637C1084.82 239.637 1094.53 242.558 1102.38 248.401C1104.7 246.588 1106.46 244.926 1107.67 243.415C1110.38 240.896 1112.45 239.637 1113.86 239.637C1115.47 239.637 1116.42 240.191 1116.73 241.299C1117.03 242.307 1117.18 244.271 1117.18 247.192V278.318C1117.18 280.634 1117.13 282.196 1117.03 283.002C1116.93 283.807 1116.57 284.513 1115.97 285.117C1115.37 285.621 1114.41 285.872 1113.1 285.872C1110.79 285.872 1109.58 284.916 1109.48 283.002C1107.87 258.021 1095.79 245.53 1073.24 245.53C1061.07 245.53 1052.26 247.897 1046.82 252.631C1041.39 257.265 1038.67 262.755 1038.67 269.101C1038.67 272.626 1039.48 275.749 1041.09 278.469C1042.8 281.088 1044.71 283.203 1046.82 284.815C1049.04 286.326 1052.16 287.837 1056.18 289.348C1060.21 290.758 1063.43 291.715 1065.85 292.218C1068.36 292.722 1071.99 293.478 1076.72 294.485C1093.22 297.608 1104.95 302.543 1111.89 309.292C1120.55 317.955 1124.88 327.776 1124.88 338.756C1124.88 350.944 1120.75 361.168 1112.5 369.428C1104.25 377.688 1091.81 381.818 1075.21 381.818C1061.82 381.818 1050.45 377.336 1041.09 368.371C1039.88 369.579 1038.82 370.738 1037.92 371.846C1037.01 372.853 1036.36 373.558 1035.95 373.961C1035.65 374.364 1035.45 374.717 1035.35 375.019C1035.25 375.22 1035.1 375.422 1034.9 375.623C1030.77 379.753 1028.2 381.818 1027.2 381.818C1025.59 381.818 1024.63 381.264 1024.33 380.156C1024.03 379.149 1023.88 377.184 1023.88 374.263Z" fill="black"/>
<path d="M1145.26 378.343V368.824C1156.23 368.824 1162.97 368.169 1165.49 366.86C1168.01 365.449 1169.27 361.42 1169.27 354.772V193.855C1169.27 186.2 1167.91 181.415 1165.19 179.501C1162.57 177.587 1155.93 176.63 1145.26 176.63V166.96L1189.65 163.636V271.216H1189.95C1193.27 263.762 1198.66 256.963 1206.1 250.818C1213.55 244.674 1223.01 241.601 1234.49 241.601C1249.99 241.601 1260.81 245.429 1266.95 253.085C1271.48 258.222 1274.19 263.661 1275.1 269.403C1276.11 275.145 1276.61 285.47 1276.61 300.378V359.456C1276.81 363.787 1278.57 366.457 1281.89 367.464C1285.21 368.371 1291.51 368.824 1300.77 368.824V378.343C1279.73 377.738 1268.15 377.436 1266.04 377.436C1264.43 377.436 1252.81 377.738 1231.17 378.343V368.824C1242.14 368.824 1248.88 368.169 1251.4 366.86C1254.01 365.449 1255.32 361.42 1255.32 354.772V282.699C1255.32 272.223 1253.71 263.913 1250.49 257.769C1247.27 251.523 1241.23 248.401 1232.37 248.401C1221.7 248.401 1212.09 252.883 1203.54 261.848C1194.98 270.813 1190.7 282.851 1190.7 297.96V354.772C1190.7 361.42 1191.96 365.449 1194.48 366.86C1197.1 368.169 1203.84 368.824 1214.71 368.824V378.343C1193.67 377.738 1182.15 377.436 1180.14 377.436C1178.53 377.436 1166.9 377.738 1145.26 378.343Z" fill="black"/>
<path d="M1306.65 176.63V166.96L1351.19 163.636V261.697C1363.17 248.3 1377.31 241.601 1393.62 241.601C1411.33 241.601 1426.68 248.401 1439.66 261.999C1452.65 275.598 1459.14 292.118 1459.14 311.559C1459.14 331.201 1452.35 347.822 1438.76 361.42C1425.17 375.019 1408.96 381.818 1390.14 381.818C1373.03 381.818 1359.55 374.263 1349.68 359.154C1342.43 371.745 1338.71 378.141 1338.51 378.343H1330.81V193.855C1330.81 186.2 1329.45 181.415 1326.73 179.501C1324.02 177.587 1317.32 176.63 1306.65 176.63ZM1352.1 343.138C1352.1 347.469 1353.56 351.8 1356.48 356.132C1364.63 368.622 1375.35 374.868 1388.63 374.868C1388.73 374.868 1388.83 374.868 1388.94 374.868C1403.33 374.868 1415 368.27 1423.96 355.074C1430.3 345.203 1433.47 330.597 1433.47 311.256C1433.47 292.118 1430.5 277.764 1424.57 268.194C1416.31 254.999 1405.49 248.401 1392.11 248.401C1377.01 248.401 1364.83 254.999 1355.57 268.194C1353.25 271.518 1352.1 275.245 1352.1 279.375V343.138Z" fill="black"/>
<path d="M1507.3 361.722C1493.71 348.225 1486.92 331.705 1486.92 312.163C1486.92 292.521 1493.56 275.548 1506.85 261.244C1520.23 246.839 1536.49 239.637 1555.61 239.637C1574.33 239.637 1590.39 246.789 1603.77 261.093C1617.26 275.296 1624 292.319 1624 312.163C1624 331.604 1617.21 348.073 1603.62 361.571C1590.14 375.069 1574.03 381.818 1555.31 381.818C1536.99 381.818 1520.99 375.119 1507.3 361.722ZM1512.58 309.594C1512.58 329.64 1515.2 344.195 1520.44 353.261C1528.49 367.061 1540.21 373.961 1555.61 373.961C1563.26 373.961 1570.26 371.896 1576.6 367.766C1583.04 363.636 1588.02 358.096 1591.54 351.146C1596.07 342.08 1598.34 328.23 1598.34 309.594C1598.34 289.751 1595.62 275.447 1590.19 266.683C1582.13 253.286 1570.51 246.588 1555.31 246.588C1548.67 246.588 1542.08 248.35 1535.53 251.876C1529.09 255.301 1523.91 260.438 1519.98 267.288C1515.05 276.353 1512.58 290.456 1512.58 309.594Z" fill="black"/>
<path d="M1638.8 254.596V247.796C1648.26 247.393 1656.11 243.868 1662.35 237.22C1668.69 230.471 1672.92 222.966 1675.03 214.706C1677.25 206.447 1678.46 197.532 1678.66 187.963H1686.36V244.926H1730.59V254.596H1686.36V340.569C1686.36 362.83 1693.3 373.961 1707.19 373.961C1713.13 373.961 1718.06 370.939 1721.99 364.895C1725.91 358.751 1727.88 350.239 1727.88 339.36V322.286H1735.58V339.965C1735.58 351.146 1733.01 360.917 1727.88 369.277C1722.74 377.638 1715.09 381.818 1704.93 381.818C1701.2 381.818 1697.48 381.314 1693.76 380.307C1690.13 379.401 1685.9 377.738 1681.07 375.321C1676.34 372.803 1672.47 368.522 1669.45 362.478C1666.53 356.333 1665.07 348.829 1665.07 339.965V254.596H1638.8Z" fill="black"/>
<path d="M1763.05 374.263V333.468C1763.05 331.151 1763.1 329.589 1763.2 328.784C1763.3 327.978 1763.66 327.273 1764.26 326.668C1764.87 326.064 1765.77 325.762 1766.98 325.762C1768.39 325.762 1769.34 326.064 1769.85 326.668C1770.45 327.273 1770.95 328.733 1771.36 331.05C1774.48 345.253 1779.36 356.132 1786 363.687C1792.75 371.141 1802.21 374.868 1814.39 374.868C1825.96 374.868 1834.67 372.299 1840.5 367.162C1846.34 362.025 1849.26 355.225 1849.26 346.764C1849.26 331.654 1838.54 322.186 1817.1 318.358C1804.72 315.84 1795.97 313.775 1790.83 312.163C1785.7 310.451 1780.87 307.731 1776.34 304.004C1767.48 296.751 1763.05 287.988 1763.05 277.713C1763.05 267.439 1766.93 258.524 1774.68 250.969C1782.53 243.415 1795.11 239.637 1812.42 239.637C1824 239.637 1833.71 242.558 1841.56 248.401C1843.88 246.588 1845.64 244.926 1846.84 243.415C1849.56 240.896 1851.63 239.637 1853.03 239.637C1854.65 239.637 1855.6 240.191 1855.9 241.299C1856.21 242.307 1856.36 244.271 1856.36 247.192V278.318C1856.36 280.634 1856.31 282.196 1856.21 283.002C1856.1 283.807 1855.75 284.513 1855.15 285.117C1854.54 285.621 1853.59 285.872 1852.28 285.872C1849.97 285.872 1848.76 284.916 1848.66 283.002C1847.05 258.021 1834.97 245.53 1812.42 245.53C1800.24 245.53 1791.44 247.897 1786 252.631C1780.57 257.265 1777.85 262.755 1777.85 269.101C1777.85 272.626 1778.65 275.749 1780.26 278.469C1781.98 281.088 1783.89 283.203 1786 284.815C1788.22 286.326 1791.34 287.837 1795.36 289.348C1799.39 290.758 1802.61 291.715 1805.02 292.218C1807.54 292.722 1811.16 293.478 1815.89 294.485C1832.4 297.608 1844.13 302.543 1851.07 309.292C1859.73 317.955 1864.06 327.776 1864.06 338.756C1864.06 350.944 1859.93 361.168 1851.68 369.428C1843.42 377.688 1830.99 381.818 1814.39 381.818C1801 381.818 1789.63 377.336 1780.26 368.371C1779.06 369.579 1778 370.738 1777.09 371.846C1776.19 372.853 1775.53 373.558 1775.13 373.961C1774.83 374.364 1774.63 374.717 1774.53 375.019C1774.43 375.22 1774.28 375.422 1774.07 375.623C1769.95 379.753 1767.38 381.818 1766.37 381.818C1764.76 381.818 1763.81 381.264 1763.51 380.156C1763.2 379.149 1763.05 377.184 1763.05 374.263Z" fill="black"/>
<path d="M581.818 378.343V368.824H589.216C600.388 368.824 607.233 367.917 609.749 366.104C612.366 364.19 613.674 360.211 613.674 354.168V192.042C613.674 186.099 612.366 182.221 609.749 180.408C607.132 178.494 600.288 177.537 589.216 177.537H581.818V167.867H751.515L760.121 237.522H752.421C751.012 225.736 749.351 216.52 747.439 209.871C745.627 203.123 742.608 197.079 738.38 191.74C734.153 186.401 728.466 182.725 721.32 180.71C714.274 178.595 704.964 177.537 693.39 177.537H656.249C649.204 177.537 644.926 178.292 643.417 179.803C641.907 181.214 641.152 184.588 641.152 189.927V268.194H667.724C681.714 268.194 690.672 265.676 694.597 260.64C698.523 255.603 700.485 246.034 700.485 231.931H708.185V313.976H700.485C700.485 299.773 698.523 290.204 694.597 285.268C690.672 280.232 681.714 277.713 667.724 277.713H641.152V353.865C641.152 358.197 641.504 361.219 642.209 362.931C642.913 364.543 645.43 365.953 649.757 367.162C654.085 368.27 660.98 368.824 670.441 368.824H680.708V378.343C673.259 377.738 655.947 377.436 628.772 377.436C604.716 377.436 589.065 377.738 581.818 378.343Z" stroke="black" stroke-width="3.63636" mask="url(#path-15-outside-1_199_543)"/>
<path d="M783.522 378.343V368.824C794.493 368.824 801.237 368.169 803.753 366.86C806.269 365.449 807.527 361.42 807.527 354.772V193.855C807.527 186.2 806.168 181.415 803.451 179.501C800.834 177.587 794.191 176.63 783.522 176.63V166.96L827.909 163.636V354.772C827.909 361.42 829.217 365.449 831.834 366.86C834.451 368.169 841.195 368.824 852.065 368.824V378.343C849.549 378.343 845.674 378.242 840.44 378.041C835.206 377.839 830.677 377.688 826.852 377.587C823.027 377.487 820.008 377.436 817.794 377.436C815.378 377.436 803.954 377.738 783.522 378.343Z" stroke="black" stroke-width="3.63636" mask="url(#path-15-outside-1_199_543)"/>
<path d="M871.994 348.879C871.994 331.352 882.311 317.955 902.944 308.688C915.324 302.745 934.297 299.018 959.862 297.507V286.175C959.862 273.382 956.49 263.611 949.746 256.862C943.104 250.012 935.555 246.588 927.1 246.588C912.003 246.588 900.83 251.322 893.583 260.791C899.723 260.992 903.9 262.654 906.114 265.777C908.329 268.799 909.436 271.871 909.436 274.994C909.436 279.124 908.127 282.548 905.511 285.268C902.994 287.887 899.572 289.197 895.244 289.197C891.118 289.197 887.695 287.937 884.978 285.419C882.26 282.8 880.901 279.224 880.901 274.691C880.901 264.618 885.431 256.258 894.489 249.61C903.649 242.961 914.72 239.637 927.704 239.637C944.613 239.637 958.704 245.329 969.977 256.711C973.5 260.237 976.117 264.266 977.828 268.799C979.64 273.332 980.646 277.109 980.847 280.131C981.049 283.052 981.149 287.434 981.149 293.276V355.074C981.149 356.283 981.351 357.895 981.753 359.909C982.156 361.924 983.263 364.241 985.075 366.86C986.987 369.378 989.503 370.637 992.624 370.637C1000.07 370.637 1003.75 364.039 1003.64 350.843V333.468H1011.5V350.843C1011.5 361.823 1008.58 369.479 1002.74 373.81C997.002 378.041 991.466 380.156 986.132 380.156C979.287 380.156 973.701 377.638 969.373 372.601C965.045 367.565 962.579 361.622 961.976 354.772C958.855 362.629 953.722 369.126 946.576 374.263C939.53 379.3 931.176 381.818 921.514 381.818C914.066 381.818 906.819 380.861 899.773 378.947C892.829 377.134 886.437 373.659 880.6 368.522C874.862 363.284 871.994 356.736 871.994 348.879ZM895.848 348.577C895.848 356.233 898.566 362.528 904.001 367.464C909.436 372.4 915.978 374.868 923.628 374.868C932.284 374.868 940.487 371.544 948.237 364.895C955.987 358.146 959.862 348.174 959.862 334.978V304.004C937.014 304.81 920.608 309.796 910.644 318.962C900.78 328.028 895.848 337.9 895.848 348.577Z" stroke="black" stroke-width="3.63636" mask="url(#path-15-outside-1_199_543)"/>
<path d="M1023.88 374.263V333.468C1023.88 331.151 1023.93 329.589 1024.03 328.784C1024.13 327.978 1024.48 327.273 1025.08 326.668C1025.69 326.064 1026.59 325.762 1027.8 325.762C1029.21 325.762 1030.17 326.064 1030.67 326.668C1031.27 327.273 1031.78 328.733 1032.18 331.05C1035.3 345.253 1040.18 356.132 1046.82 363.687C1053.57 371.141 1063.03 374.868 1075.21 374.868C1086.78 374.868 1095.49 372.299 1101.33 367.162C1107.16 362.025 1110.08 355.225 1110.08 346.764C1110.08 331.654 1099.36 322.186 1077.92 318.358C1065.54 315.84 1056.79 313.775 1051.66 312.163C1046.52 310.451 1041.69 307.731 1037.16 304.004C1028.3 296.751 1023.88 287.988 1023.88 277.713C1023.88 267.439 1027.75 258.524 1035.5 250.969C1043.35 243.415 1055.93 239.637 1073.24 239.637C1084.82 239.637 1094.53 242.558 1102.38 248.401C1104.7 246.588 1106.46 244.926 1107.67 243.415C1110.38 240.896 1112.45 239.637 1113.86 239.637C1115.47 239.637 1116.42 240.191 1116.73 241.299C1117.03 242.307 1117.18 244.271 1117.18 247.192V278.318C1117.18 280.634 1117.13 282.196 1117.03 283.002C1116.93 283.807 1116.57 284.513 1115.97 285.117C1115.37 285.621 1114.41 285.872 1113.1 285.872C1110.79 285.872 1109.58 284.916 1109.48 283.002C1107.87 258.021 1095.79 245.53 1073.24 245.53C1061.07 245.53 1052.26 247.897 1046.82 252.631C1041.39 257.265 1038.67 262.755 1038.67 269.101C1038.67 272.626 1039.48 275.749 1041.09 278.469C1042.8 281.088 1044.71 283.203 1046.82 284.815C1049.04 286.326 1052.16 287.837 1056.18 289.348C1060.21 290.758 1063.43 291.715 1065.85 292.218C1068.36 292.722 1071.99 293.478 1076.72 294.485C1093.22 297.608 1104.95 302.543 1111.89 309.292C1120.55 317.955 1124.88 327.776 1124.88 338.756C1124.88 350.944 1120.75 361.168 1112.5 369.428C1104.25 377.688 1091.81 381.818 1075.21 381.818C1061.82 381.818 1050.45 377.336 1041.09 368.371C1039.88 369.579 1038.82 370.738 1037.92 371.846C1037.01 372.853 1036.36 373.558 1035.95 373.961C1035.65 374.364 1035.45 374.717 1035.35 375.019C1035.25 375.22 1035.1 375.422 1034.9 375.623C1030.77 379.753 1028.2 381.818 1027.2 381.818C1025.59 381.818 1024.63 381.264 1024.33 380.156C1024.03 379.149 1023.88 377.184 1023.88 374.263Z" stroke="black" stroke-width="3.63636" mask="url(#path-15-outside-1_199_543)"/>
<path d="M1145.26 378.343V368.824C1156.23 368.824 1162.97 368.169 1165.49 366.86C1168.01 365.449 1169.27 361.42 1169.27 354.772V193.855C1169.27 186.2 1167.91 181.415 1165.19 179.501C1162.57 177.587 1155.93 176.63 1145.26 176.63V166.96L1189.65 163.636V271.216H1189.95C1193.27 263.762 1198.66 256.963 1206.1 250.818C1213.55 244.674 1223.01 241.601 1234.49 241.601C1249.99 241.601 1260.81 245.429 1266.95 253.085C1271.48 258.222 1274.19 263.661 1275.1 269.403C1276.11 275.145 1276.61 285.47 1276.61 300.378V359.456C1276.81 363.787 1278.57 366.457 1281.89 367.464C1285.21 368.371 1291.51 368.824 1300.77 368.824V378.343C1279.73 377.738 1268.15 377.436 1266.04 377.436C1264.43 377.436 1252.81 377.738 1231.17 378.343V368.824C1242.14 368.824 1248.88 368.169 1251.4 366.86C1254.01 365.449 1255.32 361.42 1255.32 354.772V282.699C1255.32 272.223 1253.71 263.913 1250.49 257.769C1247.27 251.523 1241.23 248.401 1232.37 248.401C1221.7 248.401 1212.09 252.883 1203.54 261.848C1194.98 270.813 1190.7 282.851 1190.7 297.96V354.772C1190.7 361.42 1191.96 365.449 1194.48 366.86C1197.1 368.169 1203.84 368.824 1214.71 368.824V378.343C1193.67 377.738 1182.15 377.436 1180.14 377.436C1178.53 377.436 1166.9 377.738 1145.26 378.343Z" stroke="black" stroke-width="3.63636" mask="url(#path-15-outside-1_199_543)"/>
<path d="M1306.65 176.63V166.96L1351.19 163.636V261.697C1363.17 248.3 1377.31 241.601 1393.62 241.601C1411.33 241.601 1426.68 248.401 1439.66 261.999C1452.65 275.598 1459.14 292.118 1459.14 311.559C1459.14 331.201 1452.35 347.822 1438.76 361.42C1425.17 375.019 1408.96 381.818 1390.14 381.818C1373.03 381.818 1359.55 374.263 1349.68 359.154C1342.43 371.745 1338.71 378.141 1338.51 378.343H1330.81V193.855C1330.81 186.2 1329.45 181.415 1326.73 179.501C1324.02 177.587 1317.32 176.63 1306.65 176.63ZM1352.1 343.138C1352.1 347.469 1353.56 351.8 1356.48 356.132C1364.63 368.622 1375.35 374.868 1388.63 374.868C1388.73 374.868 1388.83 374.868 1388.94 374.868C1403.33 374.868 1415 368.27 1423.96 355.074C1430.3 345.203 1433.47 330.597 1433.47 311.256C1433.47 292.118 1430.5 277.764 1424.57 268.194C1416.31 254.999 1405.49 248.401 1392.11 248.401C1377.01 248.401 1364.83 254.999 1355.57 268.194C1353.25 271.518 1352.1 275.245 1352.1 279.375V343.138Z" stroke="black" stroke-width="3.63636" mask="url(#path-15-outside-1_199_543)"/>
<path d="M1507.3 361.722C1493.71 348.225 1486.92 331.705 1486.92 312.163C1486.92 292.521 1493.56 275.548 1506.85 261.244C1520.23 246.839 1536.49 239.637 1555.61 239.637C1574.33 239.637 1590.39 246.789 1603.77 261.093C1617.26 275.296 1624 292.319 1624 312.163C1624 331.604 1617.21 348.073 1603.62 361.571C1590.14 375.069 1574.03 381.818 1555.31 381.818C1536.99 381.818 1520.99 375.119 1507.3 361.722ZM1512.58 309.594C1512.58 329.64 1515.2 344.195 1520.44 353.261C1528.49 367.061 1540.21 373.961 1555.61 373.961C1563.26 373.961 1570.26 371.896 1576.6 367.766C1583.04 363.636 1588.02 358.096 1591.54 351.146C1596.07 342.08 1598.34 328.23 1598.34 309.594C1598.34 289.751 1595.62 275.447 1590.19 266.683C1582.13 253.286 1570.51 246.588 1555.31 246.588C1548.67 246.588 1542.08 248.35 1535.53 251.876C1529.09 255.301 1523.91 260.438 1519.98 267.288C1515.05 276.353 1512.58 290.456 1512.58 309.594Z" stroke="black" stroke-width="3.63636" mask="url(#path-15-outside-1_199_543)"/>
<path d="M1638.8 254.596V247.796C1648.26 247.393 1656.11 243.868 1662.35 237.22C1668.69 230.471 1672.92 222.966 1675.03 214.706C1677.25 206.447 1678.46 197.532 1678.66 187.963H1686.36V244.926H1730.59V254.596H1686.36V340.569C1686.36 362.83 1693.3 373.961 1707.19 373.961C1713.13 373.961 1718.06 370.939 1721.99 364.895C1725.91 358.751 1727.88 350.239 1727.88 339.36V322.286H1735.58V339.965C1735.58 351.146 1733.01 360.917 1727.88 369.277C1722.74 377.638 1715.09 381.818 1704.93 381.818C1701.2 381.818 1697.48 381.314 1693.76 380.307C1690.13 379.401 1685.9 377.738 1681.07 375.321C1676.34 372.803 1672.47 368.522 1669.45 362.478C1666.53 356.333 1665.07 348.829 1665.07 339.965V254.596H1638.8Z" stroke="black" stroke-width="3.63636" mask="url(#path-15-outside-1_199_543)"/>
<path d="M1763.05 374.263V333.468C1763.05 331.151 1763.1 329.589 1763.2 328.784C1763.3 327.978 1763.66 327.273 1764.26 326.668C1764.87 326.064 1765.77 325.762 1766.98 325.762C1768.39 325.762 1769.34 326.064 1769.85 326.668C1770.45 327.273 1770.95 328.733 1771.36 331.05C1774.48 345.253 1779.36 356.132 1786 363.687C1792.75 371.141 1802.21 374.868 1814.39 374.868C1825.96 374.868 1834.67 372.299 1840.5 367.162C1846.34 362.025 1849.26 355.225 1849.26 346.764C1849.26 331.654 1838.54 322.186 1817.1 318.358C1804.72 315.84 1795.97 313.775 1790.83 312.163C1785.7 310.451 1780.87 307.731 1776.34 304.004C1767.48 296.751 1763.05 287.988 1763.05 277.713C1763.05 267.439 1766.93 258.524 1774.68 250.969C1782.53 243.415 1795.11 239.637 1812.42 239.637C1824 239.637 1833.71 242.558 1841.56 248.401C1843.88 246.588 1845.64 244.926 1846.84 243.415C1849.56 240.896 1851.63 239.637 1853.03 239.637C1854.65 239.637 1855.6 240.191 1855.9 241.299C1856.21 242.307 1856.36 244.271 1856.36 247.192V278.318C1856.36 280.634 1856.31 282.196 1856.21 283.002C1856.1 283.807 1855.75 284.513 1855.15 285.117C1854.54 285.621 1853.59 285.872 1852.28 285.872C1849.97 285.872 1848.76 284.916 1848.66 283.002C1847.05 258.021 1834.97 245.53 1812.42 245.53C1800.24 245.53 1791.44 247.897 1786 252.631C1780.57 257.265 1777.85 262.755 1777.85 269.101C1777.85 272.626 1778.65 275.749 1780.26 278.469C1781.98 281.088 1783.89 283.203 1786 284.815C1788.22 286.326 1791.34 287.837 1795.36 289.348C1799.39 290.758 1802.61 291.715 1805.02 292.218C1807.54 292.722 1811.16 293.478 1815.89 294.485C1832.4 297.608 1844.13 302.543 1851.07 309.292C1859.73 317.955 1864.06 327.776 1864.06 338.756C1864.06 350.944 1859.93 361.168 1851.68 369.428C1843.42 377.688 1830.99 381.818 1814.39 381.818C1801 381.818 1789.63 377.336 1780.26 368.371C1779.06 369.579 1778 370.738 1777.09 371.846C1776.19 372.853 1775.53 373.558 1775.13 373.961C1774.83 374.364 1774.63 374.717 1774.53 375.019C1774.43 375.22 1774.28 375.422 1774.07 375.623C1769.95 379.753 1767.38 381.818 1766.37 381.818C1764.76 381.818 1763.81 381.264 1763.51 380.156C1763.2 379.149 1763.05 377.184 1763.05 374.263Z" stroke="black" stroke-width="3.63636" mask="url(#path-15-outside-1_199_543)"/>
</svg>
