<svg width="522" height="132" viewBox="0 0 522 132" fill="none" xmlns="http://www.w3.org/2000/svg">
<path d="M46.6538 96.9232H74.3461V104.308H46.6538V96.9232Z" fill="black"/>
<path fill-rule="evenodd" clip-rule="evenodd" d="M25.4231 63.6925C25.4231 60.6336 27.9028 58.154 30.9616 58.154H90.0385C93.0973 58.154 95.577 60.6336 95.577 63.6925V78.4617C95.577 81.5205 93.0973 84.0001 90.0385 84.0001H30.9616C27.9027 84.0001 25.4231 81.5205 25.4231 78.4617V63.6925ZM75.2693 68.3078C75.2693 65.249 77.7489 62.7694 80.8077 62.7694C83.8666 62.7694 86.3462 65.249 86.3462 68.3078V73.8463C86.3462 76.9051 83.8666 79.3848 80.8077 79.3848C77.7489 79.3848 75.2693 76.9051 75.2693 73.8463V68.3078ZM40.1923 62.7694C37.1335 62.7694 34.6539 65.249 34.6539 68.3078V73.8463C34.6539 76.9051 37.1335 79.3848 40.1923 79.3848C43.2511 79.3848 45.7308 76.9051 45.7308 73.8463V68.3078C45.7308 65.249 43.2511 62.7694 40.1923 62.7694Z" fill="black"/>
<path d="M36.28 120.923C24.7189 113.13 17.1154 99.9146 17.1154 84.9233V84.5731L36.5 100.616V120.923H36.28Z" fill="black"/>
<path d="M103.885 84.5731V84.9233C103.885 99.9146 96.281 113.13 84.72 120.923H84.5V100.616L103.885 84.5731Z" fill="black"/>
<path fill-rule="evenodd" clip-rule="evenodd" d="M41.2738 22.3124C40.5676 23.0185 40.1924 23.9626 40.1922 24.9232H39.2692C31.1231 24.9232 23.8619 28.6907 19.1261 34.5741L16.3646 26.7256C17.9704 25.0664 18.9615 22.8046 18.9615 20.3078C18.9615 15.2098 14.8288 11.077 9.73077 11.077C4.63276 11.077 0.5 15.2098 0.5 20.3078C0.5 23.3311 1.95222 26.0098 4.19231 27.6921V64.6155C4.19231 70.2898 8.13071 75.0443 13.4231 76.2944V84.9232C13.4231 110.923 34.5001 132 60.5 132C86.4999 132 107.577 110.923 107.577 84.9232V76.2944C112.869 75.0443 116.808 70.2898 116.808 64.6155V27.6921C119.048 26.0098 120.5 23.3311 120.5 20.3078C120.5 15.2098 116.367 11.077 111.269 11.077C106.171 11.077 102.038 15.2098 102.038 20.3078C102.038 22.8046 103.03 25.0664 104.635 26.7256L101.874 34.5741C97.1381 28.6907 89.8769 24.9232 81.7308 24.9232H76.7987L79.7263 21.9956C80.7823 20.9396 81.0982 19.3515 80.5266 17.9718C79.9552 16.592 78.6088 15.6924 77.1154 15.6924H65.0217L68.6196 4.8559C69.1589 3.2315 68.5112 1.4494 67.0547 0.550429C65.5982 -0.348543 63.7148 -0.128689 62.5045 1.08159L41.2738 22.3124ZM39.2693 28.6155H43.8793L43.8846 28.6155L52.1923 28.6155V40.5617C52.1918 40.5973 52.1918 40.6329 52.1923 40.6684V45.2309C52.1923 49.8191 55.9118 53.5386 60.5 53.5386C65.0882 53.5386 68.8077 49.8191 68.8077 45.2309V34.6924C68.8077 34.1435 68.7445 33.6093 68.6251 33.0968L73.1063 28.6155H81.7308C93.966 28.6155 103.885 38.5341 103.885 50.7694V84.9232C103.885 108.884 84.4607 128.308 60.5 128.308C36.5393 128.308 17.1154 108.884 17.1154 84.9232V50.7694C17.1154 38.5341 27.034 28.6155 39.2693 28.6155ZM65.1154 3.69243L43.8846 24.9232H61.0947L55.8846 40.6155L77.1154 19.3847H59.9053L65.1154 3.69243Z" fill="black"/>
<mask id="path-6-outside-1_33_4085" maskUnits="userSpaceOnUse" x="156" y="44.0001" width="355" height="62" fill="black">
<rect fill="white" x="156" y="44.0001" width="355" height="62"/>
<path d="M157 104.044V101.427H159.034C162.107 101.427 163.989 101.177 164.681 100.679C165.401 100.152 165.76 99.0582 165.76 97.3962V52.8117C165.76 51.1773 165.401 50.1109 164.681 49.6122C163.961 49.0859 162.079 48.8228 159.034 48.8228H157V46.1635H203.667L206.033 65.3186H203.916C203.528 62.0776 203.072 59.543 202.546 57.7147C202.047 55.8588 201.217 54.1967 200.055 52.7286C198.892 51.2604 197.328 50.2494 195.363 49.6954C193.425 49.1136 190.865 48.8228 187.682 48.8228H177.469C175.531 48.8228 174.355 49.0305 173.939 49.446C173.524 49.8339 173.317 50.7618 173.317 52.23V73.7535H180.624C184.471 73.7535 186.935 73.061 188.014 71.676C189.094 70.2909 189.633 67.6593 189.633 63.7812H191.751V86.3435H189.633C189.633 82.4377 189.094 79.8062 188.014 78.4488C186.935 77.0638 184.471 76.3713 180.624 76.3713H173.317V97.3131C173.317 98.5042 173.414 99.3352 173.607 99.8062C173.801 100.249 174.493 100.637 175.683 100.97C176.873 101.274 178.769 101.427 181.371 101.427H184.195V104.044C182.146 103.878 177.386 103.795 169.912 103.795C163.297 103.795 158.993 103.878 157 104.044Z"/>
<path d="M212.469 104.044V101.427C215.486 101.427 217.34 101.247 218.032 100.886C218.724 100.499 219.07 99.3906 219.07 97.5624V53.3103C219.07 51.205 218.696 49.8893 217.949 49.3629C217.229 48.8366 215.402 48.5735 212.469 48.5735V45.9142L224.675 45.0001V97.5624C224.675 99.3906 225.035 100.499 225.754 100.886C226.474 101.247 228.329 101.427 231.318 101.427V104.044C230.626 104.044 229.56 104.017 228.121 103.961C226.682 103.906 225.436 103.864 224.384 103.837C223.332 103.809 222.502 103.795 221.893 103.795C221.229 103.795 218.087 103.878 212.469 104.044Z"/>
<path d="M236.798 95.9419C236.798 91.1219 239.635 87.4377 245.31 84.8893C248.714 83.2549 253.932 82.23 260.962 81.8145V78.6981C260.962 75.1801 260.035 72.4931 258.18 70.6372C256.353 68.7535 254.278 67.8117 251.952 67.8117C247.801 67.8117 244.728 69.1136 242.735 71.7175C244.424 71.7729 245.572 72.23 246.181 73.0887C246.79 73.9197 247.095 74.7646 247.095 75.6233C247.095 76.7591 246.735 77.7009 246.015 78.4488C245.323 79.169 244.382 79.5291 243.192 79.5291C242.057 79.5291 241.116 79.1829 240.369 78.4904C239.622 77.7701 239.248 76.7868 239.248 75.5402C239.248 72.7701 240.493 70.471 242.985 68.6427C245.503 66.8145 248.548 65.9003 252.119 65.9003C256.769 65.9003 260.644 67.4654 263.744 70.5956C264.712 71.5652 265.432 72.6732 265.903 73.9197C266.401 75.1663 266.678 76.205 266.733 77.0361C266.788 77.8394 266.816 79.0444 266.816 80.651V97.6455C266.816 97.9779 266.871 98.4211 266.982 98.9751C267.093 99.5291 267.397 100.166 267.896 100.886C268.421 101.579 269.113 101.925 269.971 101.925C272.02 101.925 273.03 100.111 273.002 96.4821V91.7037H275.161V96.4821C275.161 99.5014 274.359 101.607 272.753 102.798C271.175 103.961 269.653 104.543 268.186 104.543C266.304 104.543 264.768 103.85 263.578 102.465C262.387 101.08 261.709 99.446 261.543 97.5624C260.685 99.7231 259.274 101.51 257.308 102.922C255.371 104.308 253.073 105 250.416 105C248.368 105 246.375 104.737 244.438 104.211C242.528 103.712 240.77 102.756 239.165 101.344C237.587 99.9031 236.798 98.1026 236.798 95.9419ZM243.358 95.8588C243.358 97.964 244.106 99.6953 245.6 101.053C247.095 102.41 248.894 103.089 250.998 103.089C253.378 103.089 255.634 102.175 257.765 100.346C259.896 98.4904 260.962 95.748 260.962 92.1192V83.6012C254.679 83.8228 250.167 85.194 247.427 87.7147C244.714 90.2078 243.358 92.9225 243.358 95.8588Z"/>
<path d="M278.566 102.922V91.7037C278.566 91.0665 278.58 90.6372 278.607 90.4156C278.635 90.194 278.732 90.0001 278.898 89.8339C279.064 89.6676 279.313 89.5845 279.645 89.5845C280.033 89.5845 280.296 89.6676 280.434 89.8339C280.6 90.0001 280.739 90.4017 280.849 91.0388C281.707 94.9447 283.05 97.9363 284.877 100.014C286.731 102.064 289.333 103.089 292.682 103.089C295.865 103.089 298.259 102.382 299.865 100.97C301.47 99.5568 302.273 97.687 302.273 95.3602C302.273 91.205 299.325 88.6012 293.429 87.5485C290.025 86.856 287.617 86.2881 286.205 85.8449C284.793 85.374 283.465 84.6261 282.219 83.6012C279.784 81.6067 278.566 79.1967 278.566 76.3713C278.566 73.5458 279.631 71.0942 281.763 69.0167C283.922 66.9391 287.381 65.9003 292.142 65.9003C295.325 65.9003 297.996 66.7037 300.155 68.3103C300.792 67.8117 301.276 67.3546 301.608 66.9391C302.356 66.2466 302.923 65.9003 303.311 65.9003C303.754 65.9003 304.016 66.0527 304.1 66.3574C304.183 66.6344 304.224 67.1746 304.224 67.9779V76.5375C304.224 77.1746 304.21 77.6039 304.183 77.8255C304.155 78.0472 304.058 78.2411 303.892 78.4073C303.726 78.5458 303.463 78.615 303.103 78.615C302.466 78.615 302.134 78.3519 302.107 77.8255C301.664 70.9557 298.342 67.5208 292.142 67.5208C288.793 67.5208 286.371 68.1718 284.877 69.4737C283.382 70.748 282.635 72.2577 282.635 74.0028C282.635 74.9724 282.856 75.8311 283.299 76.579C283.769 77.2992 284.295 77.8809 284.877 78.3242C285.485 78.7397 286.344 79.1552 287.451 79.5707C288.558 79.9585 289.444 80.2217 290.108 80.3602C290.8 80.4987 291.796 80.7064 293.097 80.9834C297.637 81.8422 300.861 83.1995 302.771 85.0555C305.151 87.4377 306.342 90.1386 306.342 93.158C306.342 96.5098 305.207 99.3214 302.937 101.593C300.667 103.864 297.249 105 292.682 105C289.001 105 285.873 103.767 283.299 101.302C282.967 101.634 282.676 101.953 282.427 102.258C282.178 102.535 281.998 102.729 281.887 102.839C281.804 102.95 281.749 103.047 281.721 103.13C281.693 103.186 281.652 103.241 281.597 103.296C280.462 104.432 279.756 105 279.479 105C279.036 105 278.773 104.848 278.69 104.543C278.607 104.266 278.566 103.726 278.566 102.922Z"/>
<path d="M311.946 104.044V101.427C314.963 101.427 316.818 101.247 317.51 100.886C318.202 100.499 318.548 99.3906 318.548 97.5624V53.3103C318.548 51.205 318.174 49.8893 317.427 49.3629C316.707 48.8366 314.88 48.5735 311.946 48.5735V45.9142L324.153 45.0001V74.5845H324.236C325.149 72.5347 326.63 70.6649 328.678 68.9751C330.727 67.2854 333.328 66.4405 336.484 66.4405C340.746 66.4405 343.722 67.4931 345.41 69.5984C346.656 71.0111 347.403 72.507 347.652 74.0859C347.929 75.6649 348.067 78.5042 348.067 82.6039V98.8505C348.123 100.042 348.607 100.776 349.521 101.053C350.434 101.302 352.164 101.427 354.71 101.427V104.044C348.926 103.878 345.742 103.795 345.161 103.795C344.718 103.795 341.521 103.878 335.57 104.044V101.427C338.587 101.427 340.442 101.247 341.134 100.886C341.854 100.499 342.213 99.3906 342.213 97.5624V77.7424C342.213 74.8616 341.771 72.5762 340.885 70.8865C339.999 69.169 338.338 68.3103 335.903 68.3103C332.969 68.3103 330.325 69.543 327.973 72.0084C325.62 74.4737 324.444 77.784 324.444 81.9391V97.5624C324.444 99.3906 324.79 100.499 325.481 100.886C326.201 101.247 328.056 101.427 331.045 101.427V104.044C325.26 103.878 322.091 103.795 321.537 103.795C321.094 103.795 317.897 103.878 311.946 104.044Z"/>
<path d="M356.33 48.5735V45.9142L368.578 45.0001V71.9668C371.871 68.2826 375.76 66.4405 380.244 66.4405C385.116 66.4405 389.337 68.3103 392.907 72.0499C396.478 75.7895 398.263 80.3325 398.263 85.6787C398.263 91.0804 396.395 95.651 392.658 99.3906C388.922 103.13 384.465 105 379.289 105C374.584 105 370.875 102.922 368.162 98.7674C366.169 102.23 365.145 103.989 365.09 104.044H362.973V53.3103C362.973 51.205 362.599 49.8893 361.852 49.3629C361.104 48.8366 359.264 48.5735 356.33 48.5735ZM368.827 94.3629C368.827 95.5541 369.228 96.7452 370.031 97.9363C372.273 101.371 375.22 103.089 378.874 103.089C378.902 103.089 378.929 103.089 378.957 103.089C382.915 103.089 386.126 101.274 388.589 97.6455C390.333 94.9308 391.205 90.9142 391.205 85.5956C391.205 80.3325 390.389 76.3851 388.755 73.7535C386.486 70.1247 383.51 68.3103 379.829 68.3103C375.677 68.3103 372.328 70.1247 369.782 73.7535C369.145 74.6676 368.827 75.6926 368.827 76.8283V94.3629Z"/>
<path d="M411.508 99.4737C407.771 95.7618 405.903 91.2189 405.903 85.8449C405.903 80.4433 407.729 75.7757 411.383 71.8422C415.064 67.8809 419.534 65.9003 424.793 65.9003C429.942 65.9003 434.356 67.8671 438.038 71.8006C441.747 75.7064 443.601 80.3879 443.601 85.8449C443.601 91.1912 441.733 95.7203 437.996 99.4322C434.287 103.144 429.859 105 424.71 105C419.673 105 415.272 103.158 411.508 99.4737ZM412.961 85.1386C412.961 90.651 413.68 94.6538 415.12 97.1469C417.334 100.942 420.559 102.839 424.793 102.839C426.897 102.839 428.821 102.272 430.564 101.136C432.336 100 433.706 98.4765 434.675 96.5652C435.92 94.0721 436.543 90.2632 436.543 85.1386C436.543 79.6815 435.796 75.748 434.301 73.338C432.087 69.6538 428.89 67.8117 424.71 67.8117C422.884 67.8117 421.071 68.2965 419.271 69.266C417.5 70.2078 416.075 71.6206 414.995 73.5042C413.639 75.9973 412.961 79.8754 412.961 85.1386Z"/>
<path d="M447.67 70.0139V68.1441C450.272 68.0333 452.431 67.0638 454.147 65.2355C455.891 63.3796 457.053 61.3158 457.634 59.0444C458.243 56.7729 458.575 54.3214 458.631 51.6898H460.748V67.3546H472.913V70.0139H460.748V93.6566C460.748 99.7785 462.658 102.839 466.478 102.839C468.111 102.839 469.467 102.008 470.547 100.346C471.626 98.6566 472.166 96.3158 472.166 93.3242V88.6289H474.283V93.4904C474.283 96.5652 473.577 99.2521 472.166 101.551C470.754 103.85 468.651 105 465.855 105C464.831 105 463.807 104.862 462.783 104.585C461.786 104.335 460.624 103.878 459.295 103.213C457.994 102.521 456.929 101.344 456.098 99.6815C455.296 97.9917 454.894 95.928 454.894 93.4904V70.0139H447.67Z"/>
<path d="M481.84 102.922V91.7037C481.84 91.0665 481.853 90.6372 481.881 90.4156C481.909 90.194 482.006 90.0001 482.172 89.8339C482.338 89.6676 482.587 89.5845 482.919 89.5845C483.307 89.5845 483.57 89.6676 483.708 89.8339C483.874 90.0001 484.012 90.4017 484.123 91.0388C484.981 94.9447 486.324 97.9363 488.15 100.014C490.005 102.064 492.607 103.089 495.956 103.089C499.139 103.089 501.533 102.382 503.139 100.97C504.744 99.5568 505.547 97.687 505.547 95.3602C505.547 91.205 502.599 88.6012 496.703 87.5485C493.299 86.856 490.891 86.2881 489.479 85.8449C488.067 85.374 486.739 84.6261 485.493 83.6012C483.057 81.6067 481.84 79.1967 481.84 76.3713C481.84 73.5458 482.905 71.0942 485.037 69.0167C487.195 66.9391 490.655 65.9003 495.416 65.9003C498.599 65.9003 501.27 66.7037 503.429 68.3103C504.066 67.8117 504.55 67.3546 504.882 66.9391C505.63 66.2466 506.197 65.9003 506.585 65.9003C507.027 65.9003 507.29 66.0527 507.373 66.3574C507.456 66.6344 507.498 67.1746 507.498 67.9779V76.5375C507.498 77.1746 507.484 77.6039 507.456 77.8255C507.429 78.0472 507.332 78.2411 507.166 78.4073C507 78.5458 506.737 78.615 506.377 78.615C505.74 78.615 505.408 78.3519 505.381 77.8255C504.938 70.9557 501.616 67.5208 495.416 67.5208C492.067 67.5208 489.645 68.1718 488.15 69.4737C486.656 70.748 485.908 72.2577 485.908 74.0028C485.908 74.9724 486.13 75.8311 486.573 76.579C487.043 77.2992 487.569 77.8809 488.15 78.3242C488.759 78.7397 489.617 79.1552 490.725 79.5707C491.832 79.9585 492.717 80.2217 493.382 80.3602C494.074 80.4987 495.07 80.7064 496.371 80.9834C500.91 81.8422 504.135 83.1995 506.045 85.0555C508.425 87.4377 509.615 90.1386 509.615 93.158C509.615 96.5098 508.481 99.3214 506.211 101.593C503.941 103.864 500.523 105 495.956 105C492.275 105 489.147 103.767 486.573 101.302C486.241 101.634 485.95 101.953 485.701 102.258C485.452 102.535 485.272 102.729 485.161 102.839C485.078 102.95 485.023 103.047 484.995 103.13C484.967 103.186 484.926 103.241 484.87 103.296C483.736 104.432 483.03 105 482.753 105C482.31 105 482.047 104.848 481.964 104.543C481.881 104.266 481.84 103.726 481.84 102.922Z"/>
</mask>
<path d="M157 104.044V101.427H159.034C162.107 101.427 163.989 101.177 164.681 100.679C165.401 100.152 165.76 99.0582 165.76 97.3962V52.8117C165.76 51.1773 165.401 50.1109 164.681 49.6122C163.961 49.0859 162.079 48.8228 159.034 48.8228H157V46.1635H203.667L206.033 65.3186H203.916C203.528 62.0776 203.072 59.543 202.546 57.7147C202.047 55.8588 201.217 54.1967 200.055 52.7286C198.892 51.2604 197.328 50.2494 195.363 49.6954C193.425 49.1136 190.865 48.8228 187.682 48.8228H177.469C175.531 48.8228 174.355 49.0305 173.939 49.446C173.524 49.8339 173.317 50.7618 173.317 52.23V73.7535H180.624C184.471 73.7535 186.935 73.061 188.014 71.676C189.094 70.2909 189.633 67.6593 189.633 63.7812H191.751V86.3435H189.633C189.633 82.4377 189.094 79.8062 188.014 78.4488C186.935 77.0638 184.471 76.3713 180.624 76.3713H173.317V97.3131C173.317 98.5042 173.414 99.3352 173.607 99.8062C173.801 100.249 174.493 100.637 175.683 100.97C176.873 101.274 178.769 101.427 181.371 101.427H184.195V104.044C182.146 103.878 177.386 103.795 169.912 103.795C163.297 103.795 158.993 103.878 157 104.044Z" fill="black"/>
<path d="M212.469 104.044V101.427C215.486 101.427 217.34 101.247 218.032 100.886C218.724 100.499 219.07 99.3906 219.07 97.5624V53.3103C219.07 51.205 218.696 49.8893 217.949 49.3629C217.229 48.8366 215.402 48.5735 212.469 48.5735V45.9142L224.675 45.0001V97.5624C224.675 99.3906 225.035 100.499 225.754 100.886C226.474 101.247 228.329 101.427 231.318 101.427V104.044C230.626 104.044 229.56 104.017 228.121 103.961C226.682 103.906 225.436 103.864 224.384 103.837C223.332 103.809 222.502 103.795 221.893 103.795C221.229 103.795 218.087 103.878 212.469 104.044Z" fill="black"/>
<path d="M236.798 95.9419C236.798 91.1219 239.635 87.4377 245.31 84.8893C248.714 83.2549 253.932 82.23 260.962 81.8145V78.6981C260.962 75.1801 260.035 72.4931 258.18 70.6372C256.353 68.7535 254.278 67.8117 251.952 67.8117C247.801 67.8117 244.728 69.1136 242.735 71.7175C244.424 71.7729 245.572 72.23 246.181 73.0887C246.79 73.9197 247.095 74.7646 247.095 75.6233C247.095 76.7591 246.735 77.7009 246.015 78.4488C245.323 79.169 244.382 79.5291 243.192 79.5291C242.057 79.5291 241.116 79.1829 240.369 78.4904C239.622 77.7701 239.248 76.7868 239.248 75.5402C239.248 72.7701 240.493 70.471 242.985 68.6427C245.503 66.8145 248.548 65.9003 252.119 65.9003C256.769 65.9003 260.644 67.4654 263.744 70.5956C264.712 71.5652 265.432 72.6732 265.903 73.9197C266.401 75.1663 266.678 76.205 266.733 77.0361C266.788 77.8394 266.816 79.0444 266.816 80.651V97.6455C266.816 97.9779 266.871 98.4211 266.982 98.9751C267.093 99.5291 267.397 100.166 267.896 100.886C268.421 101.579 269.113 101.925 269.971 101.925C272.02 101.925 273.03 100.111 273.002 96.4821V91.7037H275.161V96.4821C275.161 99.5014 274.359 101.607 272.753 102.798C271.175 103.961 269.653 104.543 268.186 104.543C266.304 104.543 264.768 103.85 263.578 102.465C262.387 101.08 261.709 99.446 261.543 97.5624C260.685 99.7231 259.274 101.51 257.308 102.922C255.371 104.308 253.073 105 250.416 105C248.368 105 246.375 104.737 244.438 104.211C242.528 103.712 240.77 102.756 239.165 101.344C237.587 99.9031 236.798 98.1026 236.798 95.9419ZM243.358 95.8588C243.358 97.964 244.106 99.6953 245.6 101.053C247.095 102.41 248.894 103.089 250.998 103.089C253.378 103.089 255.634 102.175 257.765 100.346C259.896 98.4904 260.962 95.748 260.962 92.1192V83.6012C254.679 83.8228 250.167 85.194 247.427 87.7147C244.714 90.2078 243.358 92.9225 243.358 95.8588Z" fill="black"/>
<path d="M278.566 102.922V91.7037C278.566 91.0665 278.58 90.6372 278.607 90.4156C278.635 90.194 278.732 90.0001 278.898 89.8339C279.064 89.6676 279.313 89.5845 279.645 89.5845C280.033 89.5845 280.296 89.6676 280.434 89.8339C280.6 90.0001 280.739 90.4017 280.849 91.0388C281.707 94.9447 283.05 97.9363 284.877 100.014C286.731 102.064 289.333 103.089 292.682 103.089C295.865 103.089 298.259 102.382 299.865 100.97C301.47 99.5568 302.273 97.687 302.273 95.3602C302.273 91.205 299.325 88.6012 293.429 87.5485C290.025 86.856 287.617 86.2881 286.205 85.8449C284.793 85.374 283.465 84.6261 282.219 83.6012C279.784 81.6067 278.566 79.1967 278.566 76.3713C278.566 73.5458 279.631 71.0942 281.763 69.0167C283.922 66.9391 287.381 65.9003 292.142 65.9003C295.325 65.9003 297.996 66.7037 300.155 68.3103C300.792 67.8117 301.276 67.3546 301.608 66.9391C302.356 66.2466 302.923 65.9003 303.311 65.9003C303.754 65.9003 304.016 66.0527 304.1 66.3574C304.183 66.6344 304.224 67.1746 304.224 67.9779V76.5375C304.224 77.1746 304.21 77.6039 304.183 77.8255C304.155 78.0472 304.058 78.2411 303.892 78.4073C303.726 78.5458 303.463 78.615 303.103 78.615C302.466 78.615 302.134 78.3519 302.107 77.8255C301.664 70.9557 298.342 67.5208 292.142 67.5208C288.793 67.5208 286.371 68.1718 284.877 69.4737C283.382 70.748 282.635 72.2577 282.635 74.0028C282.635 74.9724 282.856 75.8311 283.299 76.579C283.769 77.2992 284.295 77.8809 284.877 78.3242C285.485 78.7397 286.344 79.1552 287.451 79.5707C288.558 79.9585 289.444 80.2217 290.108 80.3602C290.8 80.4987 291.796 80.7064 293.097 80.9834C297.637 81.8422 300.861 83.1995 302.771 85.0555C305.151 87.4377 306.342 90.1386 306.342 93.158C306.342 96.5098 305.207 99.3214 302.937 101.593C300.667 103.864 297.249 105 292.682 105C289.001 105 285.873 103.767 283.299 101.302C282.967 101.634 282.676 101.953 282.427 102.258C282.178 102.535 281.998 102.729 281.887 102.839C281.804 102.95 281.749 103.047 281.721 103.13C281.693 103.186 281.652 103.241 281.597 103.296C280.462 104.432 279.756 105 279.479 105C279.036 105 278.773 104.848 278.69 104.543C278.607 104.266 278.566 103.726 278.566 102.922Z" fill="black"/>
<path d="M311.946 104.044V101.427C314.963 101.427 316.818 101.247 317.51 100.886C318.202 100.499 318.548 99.3906 318.548 97.5624V53.3103C318.548 51.205 318.174 49.8893 317.427 49.3629C316.707 48.8366 314.88 48.5735 311.946 48.5735V45.9142L324.153 45.0001V74.5845H324.236C325.149 72.5347 326.63 70.6649 328.678 68.9751C330.727 67.2854 333.328 66.4405 336.484 66.4405C340.746 66.4405 343.722 67.4931 345.41 69.5984C346.656 71.0111 347.403 72.507 347.652 74.0859C347.929 75.6649 348.067 78.5042 348.067 82.6039V98.8505C348.123 100.042 348.607 100.776 349.521 101.053C350.434 101.302 352.164 101.427 354.71 101.427V104.044C348.926 103.878 345.742 103.795 345.161 103.795C344.718 103.795 341.521 103.878 335.57 104.044V101.427C338.587 101.427 340.442 101.247 341.134 100.886C341.854 100.499 342.213 99.3906 342.213 97.5624V77.7424C342.213 74.8616 341.771 72.5762 340.885 70.8865C339.999 69.169 338.338 68.3103 335.903 68.3103C332.969 68.3103 330.325 69.543 327.973 72.0084C325.62 74.4737 324.444 77.784 324.444 81.9391V97.5624C324.444 99.3906 324.79 100.499 325.481 100.886C326.201 101.247 328.056 101.427 331.045 101.427V104.044C325.26 103.878 322.091 103.795 321.537 103.795C321.094 103.795 317.897 103.878 311.946 104.044Z" fill="black"/>
<path d="M356.33 48.5735V45.9142L368.578 45.0001V71.9668C371.871 68.2826 375.76 66.4405 380.244 66.4405C385.116 66.4405 389.337 68.3103 392.907 72.0499C396.478 75.7895 398.263 80.3325 398.263 85.6787C398.263 91.0804 396.395 95.651 392.658 99.3906C388.922 103.13 384.465 105 379.289 105C374.584 105 370.875 102.922 368.162 98.7674C366.169 102.23 365.145 103.989 365.09 104.044H362.973V53.3103C362.973 51.205 362.599 49.8893 361.852 49.3629C361.104 48.8366 359.264 48.5735 356.33 48.5735ZM368.827 94.3629C368.827 95.5541 369.228 96.7452 370.031 97.9363C372.273 101.371 375.22 103.089 378.874 103.089C378.902 103.089 378.929 103.089 378.957 103.089C382.915 103.089 386.126 101.274 388.589 97.6455C390.333 94.9308 391.205 90.9142 391.205 85.5956C391.205 80.3325 390.389 76.3851 388.755 73.7535C386.486 70.1247 383.51 68.3103 379.829 68.3103C375.677 68.3103 372.328 70.1247 369.782 73.7535C369.145 74.6676 368.827 75.6926 368.827 76.8283V94.3629Z" fill="black"/>
<path d="M411.508 99.4737C407.771 95.7618 405.903 91.2189 405.903 85.8449C405.903 80.4433 407.729 75.7757 411.383 71.8422C415.064 67.8809 419.534 65.9003 424.793 65.9003C429.942 65.9003 434.356 67.8671 438.038 71.8006C441.747 75.7064 443.601 80.3879 443.601 85.8449C443.601 91.1912 441.733 95.7203 437.996 99.4322C434.287 103.144 429.859 105 424.71 105C419.673 105 415.272 103.158 411.508 99.4737ZM412.961 85.1386C412.961 90.651 413.68 94.6538 415.12 97.1469C417.334 100.942 420.559 102.839 424.793 102.839C426.897 102.839 428.821 102.272 430.564 101.136C432.336 100 433.706 98.4765 434.675 96.5652C435.92 94.0721 436.543 90.2632 436.543 85.1386C436.543 79.6815 435.796 75.748 434.301 73.338C432.087 69.6538 428.89 67.8117 424.71 67.8117C422.884 67.8117 421.071 68.2965 419.271 69.266C417.5 70.2078 416.075 71.6206 414.995 73.5042C413.639 75.9973 412.961 79.8754 412.961 85.1386Z" fill="black"/>
<path d="M447.67 70.0139V68.1441C450.272 68.0333 452.431 67.0638 454.147 65.2355C455.891 63.3796 457.053 61.3158 457.634 59.0444C458.243 56.7729 458.575 54.3214 458.631 51.6898H460.748V67.3546H472.913V70.0139H460.748V93.6566C460.748 99.7785 462.658 102.839 466.478 102.839C468.111 102.839 469.467 102.008 470.547 100.346C471.626 98.6566 472.166 96.3158 472.166 93.3242V88.6289H474.283V93.4904C474.283 96.5652 473.577 99.2521 472.166 101.551C470.754 103.85 468.651 105 465.855 105C464.831 105 463.807 104.862 462.783 104.585C461.786 104.335 460.624 103.878 459.295 103.213C457.994 102.521 456.929 101.344 456.098 99.6815C455.296 97.9917 454.894 95.928 454.894 93.4904V70.0139H447.67Z" fill="black"/>
<path d="M481.84 102.922V91.7037C481.84 91.0665 481.853 90.6372 481.881 90.4156C481.909 90.194 482.006 90.0001 482.172 89.8339C482.338 89.6676 482.587 89.5845 482.919 89.5845C483.307 89.5845 483.57 89.6676 483.708 89.8339C483.874 90.0001 484.012 90.4017 484.123 91.0388C484.981 94.9447 486.324 97.9363 488.15 100.014C490.005 102.064 492.607 103.089 495.956 103.089C499.139 103.089 501.533 102.382 503.139 100.97C504.744 99.5568 505.547 97.687 505.547 95.3602C505.547 91.205 502.599 88.6012 496.703 87.5485C493.299 86.856 490.891 86.2881 489.479 85.8449C488.067 85.374 486.739 84.6261 485.493 83.6012C483.057 81.6067 481.84 79.1967 481.84 76.3713C481.84 73.5458 482.905 71.0942 485.037 69.0167C487.195 66.9391 490.655 65.9003 495.416 65.9003C498.599 65.9003 501.27 66.7037 503.429 68.3103C504.066 67.8117 504.55 67.3546 504.882 66.9391C505.63 66.2466 506.197 65.9003 506.585 65.9003C507.027 65.9003 507.29 66.0527 507.373 66.3574C507.456 66.6344 507.498 67.1746 507.498 67.9779V76.5375C507.498 77.1746 507.484 77.6039 507.456 77.8255C507.429 78.0472 507.332 78.2411 507.166 78.4073C507 78.5458 506.737 78.615 506.377 78.615C505.74 78.615 505.408 78.3519 505.381 77.8255C504.938 70.9557 501.616 67.5208 495.416 67.5208C492.067 67.5208 489.645 68.1718 488.15 69.4737C486.656 70.748 485.908 72.2577 485.908 74.0028C485.908 74.9724 486.13 75.8311 486.573 76.579C487.043 77.2992 487.569 77.8809 488.15 78.3242C488.759 78.7397 489.617 79.1552 490.725 79.5707C491.832 79.9585 492.717 80.2217 493.382 80.3602C494.074 80.4987 495.07 80.7064 496.371 80.9834C500.91 81.8422 504.135 83.1995 506.045 85.0555C508.425 87.4377 509.615 90.1386 509.615 93.158C509.615 96.5098 508.481 99.3214 506.211 101.593C503.941 103.864 500.523 105 495.956 105C492.275 105 489.147 103.767 486.573 101.302C486.241 101.634 485.95 101.953 485.701 102.258C485.452 102.535 485.272 102.729 485.161 102.839C485.078 102.95 485.023 103.047 484.995 103.13C484.967 103.186 484.926 103.241 484.87 103.296C483.736 104.432 483.03 105 482.753 105C482.31 105 482.047 104.848 481.964 104.543C481.881 104.266 481.84 103.726 481.84 102.922Z" fill="black"/>
<path d="M157 104.044V101.427H159.034C162.107 101.427 163.989 101.177 164.681 100.679C165.401 100.152 165.76 99.0582 165.76 97.3962V52.8117C165.76 51.1773 165.401 50.1109 164.681 49.6122C163.961 49.0859 162.079 48.8228 159.034 48.8228H157V46.1635H203.667L206.033 65.3186H203.916C203.528 62.0776 203.072 59.543 202.546 57.7147C202.047 55.8588 201.217 54.1967 200.055 52.7286C198.892 51.2604 197.328 50.2494 195.363 49.6954C193.425 49.1136 190.865 48.8228 187.682 48.8228H177.469C175.531 48.8228 174.355 49.0305 173.939 49.446C173.524 49.8339 173.317 50.7618 173.317 52.23V73.7535H180.624C184.471 73.7535 186.935 73.061 188.014 71.676C189.094 70.2909 189.633 67.6593 189.633 63.7812H191.751V86.3435H189.633C189.633 82.4377 189.094 79.8062 188.014 78.4488C186.935 77.0638 184.471 76.3713 180.624 76.3713H173.317V97.3131C173.317 98.5042 173.414 99.3352 173.607 99.8062C173.801 100.249 174.493 100.637 175.683 100.97C176.873 101.274 178.769 101.427 181.371 101.427H184.195V104.044C182.146 103.878 177.386 103.795 169.912 103.795C163.297 103.795 158.993 103.878 157 104.044Z" stroke="black" mask="url(#path-6-outside-1_33_4085)"/>
<path d="M212.469 104.044V101.427C215.486 101.427 217.34 101.247 218.032 100.886C218.724 100.499 219.07 99.3906 219.07 97.5624V53.3103C219.07 51.205 218.696 49.8893 217.949 49.3629C217.229 48.8366 215.402 48.5735 212.469 48.5735V45.9142L224.675 45.0001V97.5624C224.675 99.3906 225.035 100.499 225.754 100.886C226.474 101.247 228.329 101.427 231.318 101.427V104.044C230.626 104.044 229.56 104.017 228.121 103.961C226.682 103.906 225.436 103.864 224.384 103.837C223.332 103.809 222.502 103.795 221.893 103.795C221.229 103.795 218.087 103.878 212.469 104.044Z" stroke="black" mask="url(#path-6-outside-1_33_4085)"/>
<path d="M236.798 95.9419C236.798 91.1219 239.635 87.4377 245.31 84.8893C248.714 83.2549 253.932 82.23 260.962 81.8145V78.6981C260.962 75.1801 260.035 72.4931 258.18 70.6372C256.353 68.7535 254.278 67.8117 251.952 67.8117C247.801 67.8117 244.728 69.1136 242.735 71.7175C244.424 71.7729 245.572 72.23 246.181 73.0887C246.79 73.9197 247.095 74.7646 247.095 75.6233C247.095 76.7591 246.735 77.7009 246.015 78.4488C245.323 79.169 244.382 79.5291 243.192 79.5291C242.057 79.5291 241.116 79.1829 240.369 78.4904C239.622 77.7701 239.248 76.7868 239.248 75.5402C239.248 72.7701 240.493 70.471 242.985 68.6427C245.503 66.8145 248.548 65.9003 252.119 65.9003C256.769 65.9003 260.644 67.4654 263.744 70.5956C264.712 71.5652 265.432 72.6732 265.903 73.9197C266.401 75.1663 266.678 76.205 266.733 77.0361C266.788 77.8394 266.816 79.0444 266.816 80.651V97.6455C266.816 97.9779 266.871 98.4211 266.982 98.9751C267.093 99.5291 267.397 100.166 267.896 100.886C268.421 101.579 269.113 101.925 269.971 101.925C272.02 101.925 273.03 100.111 273.002 96.4821V91.7037H275.161V96.4821C275.161 99.5014 274.359 101.607 272.753 102.798C271.175 103.961 269.653 104.543 268.186 104.543C266.304 104.543 264.768 103.85 263.578 102.465C262.387 101.08 261.709 99.446 261.543 97.5624C260.685 99.7231 259.274 101.51 257.308 102.922C255.371 104.308 253.073 105 250.416 105C248.368 105 246.375 104.737 244.438 104.211C242.528 103.712 240.77 102.756 239.165 101.344C237.587 99.9031 236.798 98.1026 236.798 95.9419ZM243.358 95.8588C243.358 97.964 244.106 99.6953 245.6 101.053C247.095 102.41 248.894 103.089 250.998 103.089C253.378 103.089 255.634 102.175 257.765 100.346C259.896 98.4904 260.962 95.748 260.962 92.1192V83.6012C254.679 83.8228 250.167 85.194 247.427 87.7147C244.714 90.2078 243.358 92.9225 243.358 95.8588Z" stroke="black" mask="url(#path-6-outside-1_33_4085)"/>
<path d="M278.566 102.922V91.7037C278.566 91.0665 278.58 90.6372 278.607 90.4156C278.635 90.194 278.732 90.0001 278.898 89.8339C279.064 89.6676 279.313 89.5845 279.645 89.5845C280.033 89.5845 280.296 89.6676 280.434 89.8339C280.6 90.0001 280.739 90.4017 280.849 91.0388C281.707 94.9447 283.05 97.9363 284.877 100.014C286.731 102.064 289.333 103.089 292.682 103.089C295.865 103.089 298.259 102.382 299.865 100.97C301.47 99.5568 302.273 97.687 302.273 95.3602C302.273 91.205 299.325 88.6012 293.429 87.5485C290.025 86.856 287.617 86.2881 286.205 85.8449C284.793 85.374 283.465 84.6261 282.219 83.6012C279.784 81.6067 278.566 79.1967 278.566 76.3713C278.566 73.5458 279.631 71.0942 281.763 69.0167C283.922 66.9391 287.381 65.9003 292.142 65.9003C295.325 65.9003 297.996 66.7037 300.155 68.3103C300.792 67.8117 301.276 67.3546 301.608 66.9391C302.356 66.2466 302.923 65.9003 303.311 65.9003C303.754 65.9003 304.016 66.0527 304.1 66.3574C304.183 66.6344 304.224 67.1746 304.224 67.9779V76.5375C304.224 77.1746 304.21 77.6039 304.183 77.8255C304.155 78.0472 304.058 78.2411 303.892 78.4073C303.726 78.5458 303.463 78.615 303.103 78.615C302.466 78.615 302.134 78.3519 302.107 77.8255C301.664 70.9557 298.342 67.5208 292.142 67.5208C288.793 67.5208 286.371 68.1718 284.877 69.4737C283.382 70.748 282.635 72.2577 282.635 74.0028C282.635 74.9724 282.856 75.8311 283.299 76.579C283.769 77.2992 284.295 77.8809 284.877 78.3242C285.485 78.7397 286.344 79.1552 287.451 79.5707C288.558 79.9585 289.444 80.2217 290.108 80.3602C290.8 80.4987 291.796 80.7064 293.097 80.9834C297.637 81.8422 300.861 83.1995 302.771 85.0555C305.151 87.4377 306.342 90.1386 306.342 93.158C306.342 96.5098 305.207 99.3214 302.937 101.593C300.667 103.864 297.249 105 292.682 105C289.001 105 285.873 103.767 283.299 101.302C282.967 101.634 282.676 101.953 282.427 102.258C282.178 102.535 281.998 102.729 281.887 102.839C281.804 102.95 281.749 103.047 281.721 103.13C281.693 103.186 281.652 103.241 281.597 103.296C280.462 104.432 279.756 105 279.479 105C279.036 105 278.773 104.848 278.69 104.543C278.607 104.266 278.566 103.726 278.566 102.922Z" stroke="black" mask="url(#path-6-outside-1_33_4085)"/>
<path d="M311.946 104.044V101.427C314.963 101.427 316.818 101.247 317.51 100.886C318.202 100.499 318.548 99.3906 318.548 97.5624V53.3103C318.548 51.205 318.174 49.8893 317.427 49.3629C316.707 48.8366 314.88 48.5735 311.946 48.5735V45.9142L324.153 45.0001V74.5845H324.236C325.149 72.5347 326.63 70.6649 328.678 68.9751C330.727 67.2854 333.328 66.4405 336.484 66.4405C340.746 66.4405 343.722 67.4931 345.41 69.5984C346.656 71.0111 347.403 72.507 347.652 74.0859C347.929 75.6649 348.067 78.5042 348.067 82.6039V98.8505C348.123 100.042 348.607 100.776 349.521 101.053C350.434 101.302 352.164 101.427 354.71 101.427V104.044C348.926 103.878 345.742 103.795 345.161 103.795C344.718 103.795 341.521 103.878 335.57 104.044V101.427C338.587 101.427 340.442 101.247 341.134 100.886C341.854 100.499 342.213 99.3906 342.213 97.5624V77.7424C342.213 74.8616 341.771 72.5762 340.885 70.8865C339.999 69.169 338.338 68.3103 335.903 68.3103C332.969 68.3103 330.325 69.543 327.973 72.0084C325.62 74.4737 324.444 77.784 324.444 81.9391V97.5624C324.444 99.3906 324.79 100.499 325.481 100.886C326.201 101.247 328.056 101.427 331.045 101.427V104.044C325.26 103.878 322.091 103.795 321.537 103.795C321.094 103.795 317.897 103.878 311.946 104.044Z" stroke="black" mask="url(#path-6-outside-1_33_4085)"/>
<path d="M356.33 48.5735V45.9142L368.578 45.0001V71.9668C371.871 68.2826 375.76 66.4405 380.244 66.4405C385.116 66.4405 389.337 68.3103 392.907 72.0499C396.478 75.7895 398.263 80.3325 398.263 85.6787C398.263 91.0804 396.395 95.651 392.658 99.3906C388.922 103.13 384.465 105 379.289 105C374.584 105 370.875 102.922 368.162 98.7674C366.169 102.23 365.145 103.989 365.09 104.044H362.973V53.3103C362.973 51.205 362.599 49.8893 361.852 49.3629C361.104 48.8366 359.264 48.5735 356.33 48.5735ZM368.827 94.3629C368.827 95.5541 369.228 96.7452 370.031 97.9363C372.273 101.371 375.22 103.089 378.874 103.089C378.902 103.089 378.929 103.089 378.957 103.089C382.915 103.089 386.126 101.274 388.589 97.6455C390.333 94.9308 391.205 90.9142 391.205 85.5956C391.205 80.3325 390.389 76.3851 388.755 73.7535C386.486 70.1247 383.51 68.3103 379.829 68.3103C375.677 68.3103 372.328 70.1247 369.782 73.7535C369.145 74.6676 368.827 75.6926 368.827 76.8283V94.3629Z" stroke="black" mask="url(#path-6-outside-1_33_4085)"/>
<path d="M411.508 99.4737C407.771 95.7618 405.903 91.2189 405.903 85.8449C405.903 80.4433 407.729 75.7757 411.383 71.8422C415.064 67.8809 419.534 65.9003 424.793 65.9003C429.942 65.9003 434.356 67.8671 438.038 71.8006C441.747 75.7064 443.601 80.3879 443.601 85.8449C443.601 91.1912 441.733 95.7203 437.996 99.4322C434.287 103.144 429.859 105 424.71 105C419.673 105 415.272 103.158 411.508 99.4737ZM412.961 85.1386C412.961 90.651 413.68 94.6538 415.12 97.1469C417.334 100.942 420.559 102.839 424.793 102.839C426.897 102.839 428.821 102.272 430.564 101.136C432.336 100 433.706 98.4765 434.675 96.5652C435.92 94.0721 436.543 90.2632 436.543 85.1386C436.543 79.6815 435.796 75.748 434.301 73.338C432.087 69.6538 428.89 67.8117 424.71 67.8117C422.884 67.8117 421.071 68.2965 419.271 69.266C417.5 70.2078 416.075 71.6206 414.995 73.5042C413.639 75.9973 412.961 79.8754 412.961 85.1386Z" stroke="black" mask="url(#path-6-outside-1_33_4085)"/>
<path d="M447.67 70.0139V68.1441C450.272 68.0333 452.431 67.0638 454.147 65.2355C455.891 63.3796 457.053 61.3158 457.634 59.0444C458.243 56.7729 458.575 54.3214 458.631 51.6898H460.748V67.3546H472.913V70.0139H460.748V93.6566C460.748 99.7785 462.658 102.839 466.478 102.839C468.111 102.839 469.467 102.008 470.547 100.346C471.626 98.6566 472.166 96.3158 472.166 93.3242V88.6289H474.283V93.4904C474.283 96.5652 473.577 99.2521 472.166 101.551C470.754 103.85 468.651 105 465.855 105C464.831 105 463.807 104.862 462.783 104.585C461.786 104.335 460.624 103.878 459.295 103.213C457.994 102.521 456.929 101.344 456.098 99.6815C455.296 97.9917 454.894 95.928 454.894 93.4904V70.0139H447.67Z" stroke="black" mask="url(#path-6-outside-1_33_4085)"/>
<path d="M481.84 102.922V91.7037C481.84 91.0665 481.853 90.6372 481.881 90.4156C481.909 90.194 482.006 90.0001 482.172 89.8339C482.338 89.6676 482.587 89.5845 482.919 89.5845C483.307 89.5845 483.57 89.6676 483.708 89.8339C483.874 90.0001 484.012 90.4017 484.123 91.0388C484.981 94.9447 486.324 97.9363 488.15 100.014C490.005 102.064 492.607 103.089 495.956 103.089C499.139 103.089 501.533 102.382 503.139 100.97C504.744 99.5568 505.547 97.687 505.547 95.3602C505.547 91.205 502.599 88.6012 496.703 87.5485C493.299 86.856 490.891 86.2881 489.479 85.8449C488.067 85.374 486.739 84.6261 485.493 83.6012C483.057 81.6067 481.84 79.1967 481.84 76.3713C481.84 73.5458 482.905 71.0942 485.037 69.0167C487.195 66.9391 490.655 65.9003 495.416 65.9003C498.599 65.9003 501.27 66.7037 503.429 68.3103C504.066 67.8117 504.55 67.3546 504.882 66.9391C505.63 66.2466 506.197 65.9003 506.585 65.9003C507.027 65.9003 507.29 66.0527 507.373 66.3574C507.456 66.6344 507.498 67.1746 507.498 67.9779V76.5375C507.498 77.1746 507.484 77.6039 507.456 77.8255C507.429 78.0472 507.332 78.2411 507.166 78.4073C507 78.5458 506.737 78.615 506.377 78.615C505.74 78.615 505.408 78.3519 505.381 77.8255C504.938 70.9557 501.616 67.5208 495.416 67.5208C492.067 67.5208 489.645 68.1718 488.15 69.4737C486.656 70.748 485.908 72.2577 485.908 74.0028C485.908 74.9724 486.13 75.8311 486.573 76.579C487.043 77.2992 487.569 77.8809 488.15 78.3242C488.759 78.7397 489.617 79.1552 490.725 79.5707C491.832 79.9585 492.717 80.2217 493.382 80.3602C494.074 80.4987 495.07 80.7064 496.371 80.9834C500.91 81.8422 504.135 83.1995 506.045 85.0555C508.425 87.4377 509.615 90.1386 509.615 93.158C509.615 96.5098 508.481 99.3214 506.211 101.593C503.941 103.864 500.523 105 495.956 105C492.275 105 489.147 103.767 486.573 101.302C486.241 101.634 485.95 101.953 485.701 102.258C485.452 102.535 485.272 102.729 485.161 102.839C485.078 102.95 485.023 103.047 484.995 103.13C484.967 103.186 484.926 103.241 484.87 103.296C483.736 104.432 483.03 105 482.753 105C482.31 105 482.047 104.848 481.964 104.543C481.881 104.266 481.84 103.726 481.84 102.922Z" stroke="black" mask="url(#path-6-outside-1_33_4085)"/>
</svg>
