<svg width="474" height="120" viewBox="0 0 474 120" fill="none" xmlns="http://www.w3.org/2000/svg">
<path d="M31.0488 62.0979C31.0488 59.3172 33.3031 57.063 36.0838 57.063C38.8645 57.063 41.1188 59.3172 41.1188 62.098V67.1329C41.1188 69.9136 38.8645 72.1679 36.0838 72.1679C33.3031 72.1679 31.0488 69.9136 31.0488 67.1329V62.0979Z" fill="white"/>
<path d="M67.9719 62.0979C67.9719 59.3172 70.2262 57.063 73.0069 57.063C75.7876 57.063 78.0418 59.3172 78.0418 62.098V67.1329C78.0418 69.9136 75.7876 72.1679 73.0069 72.1679C70.2262 72.1679 67.9719 69.9136 67.9719 67.1329V62.0979Z" fill="white"/>
<path fill-rule="evenodd" clip-rule="evenodd" d="M37.067 20.2839C36.4251 20.9258 36.084 21.7841 36.0838 22.6574H35.2447C27.8392 22.6574 21.2381 26.0824 16.9328 31.431L14.4224 24.296C15.8822 22.7876 16.7832 20.7314 16.7832 18.4616C16.7832 13.8271 13.0262 10.07 8.3916 10.07C3.75705 10.07 0 13.8271 0 18.4616C0 21.21 1.3202 23.6452 3.35664 25.1746V58.7413C3.35664 63.8998 6.937 68.222 11.7482 69.3585V77.2028C11.7482 100.839 30.9092 120 54.5454 120C78.1816 120 97.3426 100.839 97.3426 77.2028V69.3585C102.154 68.222 105.734 63.8998 105.734 58.7413V25.1746C107.771 23.6452 109.091 21.21 109.091 18.4616C109.091 13.8271 105.334 10.07 100.699 10.07C96.0647 10.07 92.3076 13.8271 92.3076 18.4616C92.3076 20.7314 93.2086 22.7876 94.6685 24.296L92.158 31.431C87.8528 26.0824 81.2517 22.6574 73.8461 22.6574H69.3624L72.0238 19.9959C72.9838 19.0359 73.271 17.5922 72.7515 16.3379C72.2319 15.0836 71.008 14.2658 69.6503 14.2658H58.6561L61.9269 4.4144C62.4172 2.93767 61.8283 1.31758 60.5042 0.500335C59.1801 -0.316913 57.468 -0.117045 56.3677 0.983207L37.067 20.2839ZM46.993 36.8741V26.014H50.4348L47.164 35.8654C47.0536 36.198 46.9979 36.5378 46.993 36.8741ZM46.993 41.1189V36.9713C47.0093 38.0933 47.5895 39.164 48.5866 39.7795C49.9107 40.5967 51.6229 40.3969 52.7231 39.2966L62.0979 29.9219V41.1189C62.0979 45.29 58.7165 48.6714 54.5454 48.6714C50.3743 48.6714 46.993 45.29 46.993 41.1189ZM95.6643 18.4616C95.6643 15.6809 97.9185 13.4266 100.699 13.4266C103.48 13.4266 105.734 15.6809 105.734 18.4616C105.734 20.6539 104.333 22.5189 102.378 23.2101V58.7413C102.378 62.9124 98.9963 66.2937 94.8252 66.2937H93.986V46.1539C93.986 43.8309 93.5927 41.5998 92.869 39.5235L98.6595 23.0663C96.8951 22.2835 95.6643 20.5163 95.6643 18.4616ZM8.3916 13.4266C11.1723 13.4266 13.4266 15.6809 13.4266 18.4616C13.4266 20.5163 12.1958 22.2835 10.4313 23.0663L16.2218 39.5234C15.4982 41.5998 15.1049 43.8309 15.1049 46.1539V66.2937H14.2657C10.0946 66.2937 6.71328 62.9124 6.71328 58.7413V23.2101C4.75772 22.5189 3.35664 20.6539 3.35664 18.4616C3.35664 15.6809 5.61087 13.4266 8.3916 13.4266ZM27.6923 52.8672C24.9116 52.8672 22.6573 55.1214 22.6573 57.9021V71.3287C22.6573 74.1094 24.9116 76.3637 27.6923 76.3637H81.3986C84.1793 76.3637 86.4335 74.1094 86.4335 71.3287V57.9021C86.4335 55.1214 84.1793 52.8672 81.3986 52.8672H27.6923ZM41.958 94.8252V88.1119H67.1329V94.8252H41.958ZM93.986 76.8845V77.2028C93.986 90.8313 87.0737 102.845 76.5636 109.93H76.3636V91.4686L93.986 76.8845ZM15.1049 77.2028C15.1049 90.8313 22.0172 102.845 32.5273 109.93H32.7273V91.4686L15.1049 76.8845V77.2028ZM58.7412 3.35672L39.4406 22.6574H55.0861L50.3496 36.9231L69.6503 17.6224H54.0048L58.7412 3.35672Z" fill="white"/>
<path d="M141.818 94.3337V40.9091H180.116V50.0996H152.664V62.9514H175.927V72.2166H152.664V94.3337H141.818Z" fill="white"/>
<path d="M187.216 94.3337V40.9091H197.388V94.3337H187.216Z" fill="white"/>
<path d="M229.905 94.3337C229.406 93.6861 229.007 92.2664 228.708 90.0747H228.558C227.461 91.7185 226.065 92.9887 224.369 93.8854C222.674 94.782 220.305 95.2303 217.263 95.2303C213.224 95.2303 209.983 94.2091 207.539 92.1668C205.096 90.1245 203.874 87.2353 203.874 83.4993C203.874 79.6139 205.22 76.7745 207.913 74.9813C210.606 73.1382 214.396 71.8679 219.283 71.1706C222.873 70.6724 225.317 70.1743 226.613 69.6762C227.91 69.1282 228.558 68.1818 228.558 66.8368C228.558 65.442 228.01 64.3462 226.913 63.5491C225.816 62.7023 224.22 62.2789 222.125 62.2789C217.488 62.2789 215.019 64.0722 214.72 67.6587H205.669C205.819 64.0224 207.29 61.0087 210.083 58.6176C212.875 56.2266 216.914 55.0311 222.2 55.0311C232.972 55.0311 238.357 59.7384 238.357 69.1531V88.655C238.357 91.5441 238.806 93.3125 239.704 93.9601V94.3337H229.905ZM219.732 88.1319C222.524 88.1319 224.719 87.4097 226.314 85.9651C227.96 84.5205 228.783 82.8019 228.783 80.8094V75.056C227.686 75.7036 225.317 76.4508 221.677 77.2976C218.784 77.9451 216.74 78.6923 215.543 79.5392C214.346 80.3362 213.748 81.5815 213.748 83.2752C213.748 86.513 215.742 88.1319 219.732 88.1319Z" fill="white"/>
<path d="M262.041 95.4545C256.556 95.4545 252.267 94.259 249.175 91.8679C246.084 89.4271 244.388 86.1145 244.089 81.9302H253.514C254.162 86.1643 256.955 88.2814 261.891 88.2814C264.135 88.2814 265.856 87.8829 267.053 87.0859C268.299 86.2889 268.923 85.2179 268.923 83.8729C268.923 83.3748 268.823 82.9265 268.624 82.528C268.474 82.1295 268.175 81.7808 267.726 81.4819C267.327 81.1332 266.953 80.8592 266.604 80.66C266.305 80.4607 265.756 80.2615 264.958 80.0622C264.16 79.863 263.537 79.7135 263.088 79.6139C262.689 79.5143 261.966 79.3897 260.919 79.2403C259.922 79.041 259.224 78.8916 258.825 78.792C256.73 78.3935 255.01 77.995 253.663 77.5965C252.367 77.1481 250.996 76.5255 249.549 75.7285C248.103 74.8816 247.006 73.7608 246.258 72.3661C245.56 70.9215 245.211 69.2029 245.211 67.2104C245.211 63.2254 246.657 60.1868 249.549 58.0946C252.492 56.0024 256.256 54.9564 260.844 54.9564C265.781 54.9564 269.646 56.1021 272.438 58.3935C275.281 60.6351 276.901 63.7235 277.3 67.6587H268.1C267.701 63.9227 265.233 62.0547 260.695 62.0547C258.65 62.0547 257.029 62.4283 255.833 63.1755C254.686 63.9227 254.112 64.9688 254.112 66.3138C254.112 66.7621 254.187 67.1855 254.337 67.584C254.536 67.9327 254.835 68.2565 255.234 68.5554C255.683 68.8044 256.107 69.0286 256.506 69.2278C256.905 69.3773 257.478 69.5516 258.226 69.7509C258.974 69.9003 259.623 70.0498 260.171 70.1992C260.72 70.2988 261.468 70.4483 262.415 70.6475C263.363 70.797 264.111 70.9215 264.659 71.0211C266.255 71.3698 267.551 71.6936 268.549 71.9925C269.596 72.2415 270.793 72.6899 272.139 73.3374C273.486 73.9352 274.533 74.6326 275.281 75.4296C276.079 76.1768 276.752 77.2229 277.3 78.5678C277.899 79.863 278.198 81.3823 278.198 83.1257C278.198 86.9115 276.702 89.9252 273.71 92.1668C270.768 94.3586 266.878 95.4545 262.041 95.4545Z" fill="white"/>
<path d="M294.618 40.9091V61.0087H294.842C296.289 58.9165 297.859 57.3972 299.555 56.4508C301.3 55.4545 303.445 54.9564 305.988 54.9564C309.927 54.9564 313.119 56.3013 315.562 58.9912C318.006 61.6313 319.227 65.0684 319.227 69.3026V94.3337H309.055V70.797C309.055 68.7048 308.456 67.0112 307.259 65.716C306.112 64.4209 304.492 63.7733 302.397 63.7733C300.153 63.7733 298.283 64.5952 296.787 66.2391C295.341 67.8829 294.618 69.9999 294.618 72.5902V94.3337H284.445V40.9091H294.618Z" fill="white"/>
<path d="M348.549 95.4545C343.363 95.4545 339.548 93.4869 337.104 89.5516H336.955V94.3337H327.156V40.9091H337.329V60.6351H337.553C339.997 56.8493 343.562 54.9564 348.25 54.9564C353.087 54.9564 357.051 56.8493 360.143 60.6351C363.235 64.3711 364.781 69.2278 364.781 75.2054C364.781 81.3823 363.285 86.3138 360.293 89.9999C357.301 93.6363 353.386 95.4545 348.549 95.4545ZM346.305 86.9364C348.898 86.9364 350.893 85.9153 352.289 83.8729C353.735 81.8306 354.458 78.9414 354.458 75.2054C354.458 71.5192 353.71 68.6052 352.214 66.4632C350.768 64.2714 348.674 63.1755 345.931 63.1755C340.047 63.1755 337.104 67.2602 337.104 75.4296C337.104 78.9663 337.927 81.7808 339.573 83.8729C341.218 85.9153 343.462 86.9364 346.305 86.9364Z" fill="white"/>
<path d="M403.795 89.7011C400.055 93.5367 395.242 95.4545 389.358 95.4545C383.474 95.4545 378.662 93.5367 374.922 89.7011C371.182 85.8156 369.311 80.9837 369.311 75.2054C369.311 69.4271 371.182 64.6201 374.922 60.7845C378.662 56.8991 383.474 54.9564 389.358 54.9564C395.242 54.9564 400.055 56.8991 403.795 60.7845C407.535 64.6201 409.405 69.4271 409.405 75.2054C409.405 80.9837 407.535 85.8156 403.795 89.7011ZM389.358 87.6836C392.4 87.6836 394.769 86.5628 396.464 84.3212C398.209 82.0298 399.082 78.9912 399.082 75.2054C399.082 71.4196 398.209 68.381 396.464 66.0896C394.769 63.7982 392.4 62.6525 389.358 62.6525C386.266 62.6525 383.873 63.7982 382.177 66.0896C380.482 68.3312 379.634 71.3698 379.634 75.2054C379.634 78.9912 380.482 82.0298 382.177 84.3212C383.873 86.5628 386.266 87.6836 389.358 87.6836Z" fill="white"/>
<path d="M412.817 62.7272V56.0024H418.128V44.0473H428.076V56.0024H434.659V62.7272H428.076V83.051C428.076 85.5915 429.348 86.8617 431.891 86.8617L434.883 86.787V94.259C433.337 94.3586 431.218 94.4084 428.525 94.4084C425.583 94.4084 423.115 93.711 421.12 92.3162C419.125 90.8717 418.128 88.5055 418.128 85.2179V62.7272H412.817Z" fill="white"/>
<path d="M457.479 95.4545C451.994 95.4545 447.705 94.259 444.613 91.8679C441.521 89.4271 439.826 86.1145 439.527 81.9302H448.952C449.6 86.1643 452.393 88.2814 457.329 88.2814C459.573 88.2814 461.294 87.8829 462.491 87.0859C463.737 86.2889 464.361 85.2179 464.361 83.8729C464.361 83.3748 464.261 82.9265 464.061 82.528C463.912 82.1295 463.613 81.7808 463.164 81.4819C462.765 81.1332 462.391 80.8592 462.042 80.66C461.743 80.4607 461.194 80.2615 460.396 80.0622C459.598 79.863 458.975 79.7135 458.526 79.6139C458.127 79.5143 457.404 79.3897 456.357 79.2403C455.36 79.041 454.661 78.8916 454.263 78.792C452.168 78.3935 450.448 77.995 449.101 77.5965C447.805 77.1481 446.433 76.5255 444.987 75.7285C443.541 74.8816 442.444 73.7608 441.696 72.3661C440.998 70.9215 440.649 69.2029 440.649 67.2104C440.649 63.2254 442.095 60.1868 444.987 58.0946C447.929 56.0024 451.694 54.9564 456.282 54.9564C461.219 54.9564 465.084 56.1021 467.876 58.3935C470.719 60.6351 472.339 63.7235 472.738 67.6587H463.538C463.139 63.9227 460.67 62.0547 456.133 62.0547C454.088 62.0547 452.467 62.4283 451.27 63.1755C450.124 63.9227 449.55 64.9688 449.55 66.3138C449.55 66.7621 449.625 67.1855 449.775 67.584C449.974 67.9327 450.273 68.2565 450.672 68.5554C451.121 68.8044 451.545 69.0286 451.944 69.2278C452.343 69.3773 452.916 69.5516 453.664 69.7509C454.412 69.9003 455.06 70.0498 455.609 70.1992C456.157 70.2988 456.905 70.4483 457.853 70.6475C458.8 70.797 459.548 70.9215 460.097 71.0211C461.693 71.3698 462.989 71.6936 463.987 71.9925C465.034 72.2415 466.231 72.6899 467.577 73.3374C468.923 73.9352 469.971 74.6326 470.719 75.4296C471.517 76.1768 472.19 77.2229 472.738 78.5678C473.337 79.863 473.636 81.3823 473.636 83.1257C473.636 86.9115 472.14 89.9252 469.148 92.1668C466.206 94.3586 462.316 95.4545 457.479 95.4545Z" fill="white"/>
</svg>
