<svg width="120" height="132" viewBox="0 0 120 132" fill="none" xmlns="http://www.w3.org/2000/svg">
<path d="M34.1543 68.3077C34.1543 65.2489 36.6339 62.7693 39.6928 62.7693C42.7516 62.7693 45.2312 65.2489 45.2312 68.3077V73.8462C45.2312 76.905 42.7516 79.3847 39.6928 79.3847C36.6339 79.3847 34.1543 76.905 34.1543 73.8462V68.3077Z" fill="white"/>
<path d="M74.7695 68.3077C74.7695 65.2489 77.2492 62.7693 80.308 62.7693C83.3668 62.7693 85.8465 65.2489 85.8465 68.3077V73.8462C85.8465 76.905 83.3668 79.3847 80.308 79.3847C77.2492 79.3847 74.7695 76.905 74.7695 73.8462V68.3077Z" fill="white"/>
<path d="M43.3848 24.9231L64.6155 3.69238L59.4054 19.3847H76.6155L55.3848 40.6154L60.5949 24.9231H43.3848Z" fill="white"/>
<path fill-rule="evenodd" clip-rule="evenodd" d="M76.2984 24.9232H81.2307C89.3768 24.9232 96.6381 28.6907 101.374 34.5741L104.135 26.7256C102.53 25.0664 101.538 22.8046 101.538 20.3078C101.538 15.2098 105.671 11.077 110.769 11.077C115.867 11.077 120 15.2098 120 20.3078C120 23.331 118.548 26.0097 116.308 27.692V64.6155C116.308 70.2898 112.369 75.0442 107.077 76.2943V84.9231C107.077 110.923 85.9998 132 60 132C34.0001 132 12.9231 110.923 12.9231 84.9231V76.2943C7.6307 75.0442 3.69231 70.2898 3.69231 64.6155V27.692C1.45222 26.0097 0 23.331 0 20.3078C0 15.2098 4.13275 11.077 9.23076 11.077C14.3288 11.077 18.4615 15.2098 18.4615 20.3078C18.4615 22.8046 17.4704 25.0664 15.8646 26.7256L18.6261 34.5741C23.3619 28.6907 30.6231 24.9232 38.7692 24.9232H39.692C39.6919 25.3991 39.7839 25.879 39.9732 26.3361C40.5447 27.7158 41.891 28.6154 43.3844 28.6154H51.6925V40.5417C51.6915 40.5906 51.6915 40.6395 51.6925 40.6882V45.2308C51.6925 49.819 55.412 53.5384 60.0002 53.5384C64.5884 53.5384 68.3079 49.819 68.3079 45.2308V38.4615C68.3079 36.8376 67.9484 35.2976 67.3047 33.9168L76.2984 24.9232ZM110.769 14.7694C107.711 14.7694 105.231 17.249 105.231 20.3078C105.231 22.568 106.585 24.5119 108.526 25.3729L102.156 43.4763C102.952 45.7602 103.384 48.2142 103.384 50.7694V72.9232H104.308C108.896 72.9232 112.616 69.2037 112.616 64.6155V25.5311C114.767 24.7708 116.308 22.7193 116.308 20.3078C116.308 17.249 113.828 14.7694 110.769 14.7694ZM103.385 84.9231V84.573L84.0002 100.615V120.923H84.2202C95.7812 113.13 103.385 99.9144 103.385 84.9231ZM24.9234 63.6924C24.9234 60.6336 27.403 58.1539 30.4618 58.1539H89.5387C92.5975 58.1539 95.0772 60.6336 95.0772 63.6924V78.4616C95.0772 81.5204 92.5975 84.0001 89.5387 84.0001H30.4618C27.403 84.0001 24.9234 81.5204 24.9234 78.4616V63.6924ZM16.6151 84.9231C16.6151 99.9144 24.2187 113.13 35.7797 120.923H35.9997V100.615L16.6151 84.573V84.9231ZM46.1539 96.9231H73.8462V104.308H46.1539V96.9231ZM14.7691 20.3078C14.7691 17.249 12.2895 14.7694 9.23066 14.7694C6.17185 14.7694 3.6922 17.249 3.6922 20.3078C3.6922 22.7193 5.23338 24.7708 7.3845 25.5311V64.6155C7.3845 69.2037 11.104 72.9232 15.6922 72.9232H16.6151V50.7693C16.6151 48.214 17.0478 45.7596 17.8438 43.4756L11.4744 25.3729C13.4153 24.5119 14.7691 22.568 14.7691 20.3078Z" fill="white"/>
</svg>
