<svg width="474" height="120" viewBox="0 0 474 120" fill="none" xmlns="http://www.w3.org/2000/svg">
<path d="M41.958 88.1118H67.1328V94.8251H41.958V88.1118Z" fill="black"/>
<path fill-rule="evenodd" clip-rule="evenodd" d="M22.6572 57.9021C22.6572 55.1214 24.9115 52.8672 27.6922 52.8672H81.3985C84.1792 52.8672 86.4334 55.1214 86.4334 57.9022V71.3287C86.4334 74.1094 84.1792 76.3637 81.3985 76.3637H27.6922C24.9115 76.3637 22.6572 74.1094 22.6572 71.3287V57.9021ZM67.9719 62.098C67.9719 59.3172 70.2261 57.063 73.0069 57.063C75.7876 57.063 78.0418 59.3172 78.0418 62.098V67.1329C78.0418 69.9136 75.7876 72.1679 73.0069 72.1679C70.2261 72.1679 67.9719 69.9136 67.9719 67.1329V62.098ZM36.0838 57.063C33.3031 57.063 31.0488 59.3172 31.0488 62.098V67.1329C31.0488 69.9136 33.3031 72.1679 36.0838 72.1679C38.8645 72.1679 41.1188 69.9136 41.1188 67.1329V62.098C41.1188 59.3172 38.8645 57.063 36.0838 57.063Z" fill="black"/>
<path d="M32.5273 109.93C22.0173 102.845 15.105 90.8313 15.105 77.2028V76.8845L32.7273 91.4685V109.93H32.5273Z" fill="black"/>
<path d="M93.9859 76.8845V77.2028C93.9859 90.8313 87.0735 102.845 76.5635 109.93H76.3635V91.4685L93.9859 76.8845Z" fill="black"/>
<path fill-rule="evenodd" clip-rule="evenodd" d="M37.067 20.2839C36.4251 20.9258 36.084 21.7841 36.0838 22.6574H35.2447C27.8392 22.6574 21.2381 26.0824 16.9328 31.431L14.4224 24.2959C15.8822 22.7876 16.7832 20.7314 16.7832 18.4616C16.7832 13.827 13.0262 10.07 8.3916 10.07C3.75705 10.07 0 13.827 0 18.4616C0 21.21 1.3202 23.6452 3.35664 25.1745V58.7413C3.35664 63.8997 6.937 68.222 11.7482 69.3585V77.2028C11.7482 100.839 30.9092 120 54.5454 120C78.1816 120 97.3426 100.839 97.3426 77.2028V69.3585C102.154 68.222 105.734 63.8997 105.734 58.7413V25.1745C107.771 23.6452 109.091 21.21 109.091 18.4616C109.091 13.827 105.334 10.07 100.699 10.07C96.0647 10.07 92.3076 13.827 92.3076 18.4616C92.3076 20.7314 93.2086 22.7876 94.6685 24.2959L92.158 31.431C87.8528 26.0824 81.2517 22.6574 73.8461 22.6574H69.3624L72.0238 19.9959C72.9838 19.0359 73.271 17.5922 72.7515 16.3379C72.2319 15.0836 71.008 14.2658 69.6503 14.2658H58.6561L61.9269 4.4144C62.4172 2.93767 61.8283 1.31758 60.5042 0.500335C59.1801 -0.316913 57.468 -0.117045 56.3677 0.983207L37.067 20.2839ZM35.2448 26.014H39.4355L39.4406 26.014L46.993 26.014V36.8743C46.9925 36.9066 46.9925 36.9389 46.993 36.9711V41.1189C46.993 45.29 50.3743 48.6714 54.5454 48.6714C58.7165 48.6714 62.0979 45.29 62.0979 41.1189V32.1749C62.0979 31.4903 61.9996 30.8287 61.8164 30.2033L66.0057 26.014H73.8461C84.9691 26.014 93.986 35.031 93.986 46.1539V77.2028C93.986 98.9852 76.3278 116.643 54.5454 116.643C32.763 116.643 15.1049 98.9852 15.1049 77.2028V46.1539C15.1049 35.0309 24.1218 26.014 35.2448 26.014ZM58.7412 3.35669L39.4406 22.6574H55.0861L50.3496 36.9231L69.6503 17.6224H54.0048L58.7412 3.35669Z" fill="black"/>
<path d="M141.818 94.3338V40.9092H180.116V50.0997H152.664V62.9515H175.927V72.2168H152.664V94.3338H141.818Z" fill="black"/>
<path d="M187.216 94.3338V40.9092H197.388V94.3338H187.216Z" fill="black"/>
<path d="M229.905 94.3338C229.406 93.6862 229.007 92.2666 228.708 90.0748H228.558C227.461 91.7186 226.065 92.9888 224.369 93.8855C222.674 94.7821 220.305 95.2304 217.263 95.2304C213.224 95.2304 209.983 94.2093 207.539 92.1669C205.096 90.1246 203.874 87.2354 203.874 83.4994C203.874 79.614 205.22 76.7747 207.913 74.9814C210.606 73.1383 214.396 71.8681 219.283 71.1707C222.873 70.6725 225.317 70.1744 226.613 69.6763C227.91 69.1283 228.558 68.1819 228.558 66.8369C228.558 65.4422 228.01 64.3463 226.913 63.5493C225.816 62.7024 224.22 62.279 222.125 62.279C217.488 62.279 215.019 64.0723 214.72 67.6589H205.669C205.819 64.0225 207.29 61.0088 210.083 58.6178C212.875 56.2267 216.914 55.0312 222.2 55.0312C232.972 55.0312 238.357 59.7386 238.357 69.1532V88.6551C238.357 91.5443 238.806 93.3126 239.704 93.9602V94.3338H229.905ZM219.732 88.1321C222.524 88.1321 224.719 87.4098 226.314 85.9652C227.96 84.5206 228.783 82.8021 228.783 80.8095V75.0561C227.686 75.7037 225.317 76.4509 221.677 77.2977C218.784 77.9453 216.74 78.6925 215.543 79.5393C214.346 80.3363 213.748 81.5816 213.748 83.2753C213.748 86.5131 215.742 88.1321 219.732 88.1321Z" fill="black"/>
<path d="M262.041 95.4546C256.556 95.4546 252.267 94.2591 249.175 91.8681C246.084 89.4272 244.388 86.1146 244.089 81.9303H253.514C254.162 86.1644 256.955 88.2815 261.891 88.2815C264.135 88.2815 265.856 87.883 267.053 87.086C268.299 86.289 268.923 85.218 268.923 83.873C268.923 83.3749 268.823 82.9266 268.624 82.5281C268.474 82.1296 268.175 81.7809 267.726 81.482C267.327 81.1333 266.953 80.8593 266.604 80.6601C266.305 80.4608 265.756 80.2616 264.958 80.0623C264.16 79.8631 263.537 79.7136 263.088 79.614C262.689 79.5144 261.966 79.3899 260.919 79.2404C259.922 79.0412 259.224 78.8917 258.825 78.7921C256.73 78.3936 255.01 77.9951 253.663 77.5966C252.367 77.1483 250.996 76.5256 249.549 75.7286C248.103 74.8818 247.006 73.761 246.258 72.3662C245.56 70.9216 245.211 69.2031 245.211 67.2105C245.211 63.2255 246.657 60.1869 249.549 58.0947C252.492 56.0026 256.256 54.9565 260.844 54.9565C265.781 54.9565 269.646 56.1022 272.438 58.3936C275.281 60.6352 276.901 63.7236 277.3 67.6589H268.1C267.701 63.9229 265.233 62.0549 260.695 62.0549C258.65 62.0549 257.029 62.4285 255.833 63.1757C254.686 63.9229 254.112 64.9689 254.112 66.3139C254.112 66.7622 254.187 67.1856 254.337 67.5841C254.536 67.9328 254.835 68.2566 255.234 68.5555C255.683 68.8046 256.107 69.0287 256.506 69.228C256.905 69.3774 257.478 69.5518 258.226 69.751C258.974 69.9004 259.623 70.0499 260.171 70.1993C260.72 70.2989 261.468 70.4484 262.415 70.6476C263.363 70.7971 264.111 70.9216 264.659 71.0212C266.255 71.3699 267.551 71.6937 268.549 71.9926C269.596 72.2417 270.793 72.69 272.139 73.3376C273.486 73.9353 274.533 74.6327 275.281 75.4297C276.079 76.1769 276.752 77.223 277.3 78.5679C277.899 79.8631 278.198 81.3824 278.198 83.1258C278.198 86.9116 276.702 89.9253 273.71 92.1669C270.768 94.3587 266.878 95.4546 262.041 95.4546Z" fill="black"/>
<path d="M294.618 40.9092V61.0088H294.842C296.289 58.9166 297.859 57.3973 299.555 56.4509C301.3 55.4546 303.445 54.9565 305.988 54.9565C309.927 54.9565 313.119 56.3014 315.562 58.9914C318.006 61.6315 319.227 65.0686 319.227 69.3027V94.3338H309.055V70.7971C309.055 68.7049 308.456 67.0113 307.259 65.7161C306.112 64.421 304.492 63.7734 302.397 63.7734C300.153 63.7734 298.283 64.5953 296.787 66.2392C295.341 67.883 294.618 70.0001 294.618 72.5904V94.3338H284.445V40.9092H294.618Z" fill="black"/>
<path d="M348.549 95.4546C343.363 95.4546 339.548 93.487 337.104 89.5517H336.955V94.3338H327.156V40.9092H337.329V60.6352H337.553C339.997 56.8494 343.562 54.9565 348.25 54.9565C353.087 54.9565 357.051 56.8494 360.143 60.6352C363.235 64.3712 364.781 69.228 364.781 75.2055C364.781 81.3824 363.285 86.3139 360.293 90.0001C357.301 93.6364 353.386 95.4546 348.549 95.4546ZM346.305 86.9365C348.898 86.9365 350.893 85.9154 352.289 83.873C353.735 81.8307 354.458 78.9415 354.458 75.2055C354.458 71.5194 353.71 68.6053 352.214 66.4633C350.768 64.2716 348.674 63.1757 345.931 63.1757C340.047 63.1757 337.104 67.2603 337.104 75.4297C337.104 78.9664 337.927 81.7809 339.573 83.873C341.218 85.9154 343.462 86.9365 346.305 86.9365Z" fill="black"/>
<path d="M403.795 89.7012C400.055 93.5368 395.242 95.4546 389.358 95.4546C383.474 95.4546 378.662 93.5368 374.922 89.7012C371.182 85.8158 369.311 80.9839 369.311 75.2055C369.311 69.4272 371.182 64.6202 374.922 60.7846C378.662 56.8992 383.474 54.9565 389.358 54.9565C395.242 54.9565 400.055 56.8992 403.795 60.7846C407.535 64.6202 409.405 69.4272 409.405 75.2055C409.405 80.9839 407.535 85.8158 403.795 89.7012ZM389.358 87.6837C392.4 87.6837 394.769 86.563 396.464 84.3214C398.209 82.03 399.082 78.9913 399.082 75.2055C399.082 71.4197 398.209 68.3811 396.464 66.0897C394.769 63.7983 392.4 62.6526 389.358 62.6526C386.266 62.6526 383.873 63.7983 382.177 66.0897C380.482 68.3313 379.634 71.3699 379.634 75.2055C379.634 78.9913 380.482 82.03 382.177 84.3214C383.873 86.563 386.266 87.6837 389.358 87.6837Z" fill="black"/>
<path d="M412.817 62.7273V56.0026H418.128V44.0474H428.076V56.0026H434.659V62.7273H428.076V83.0511C428.076 85.5916 429.348 86.8618 431.891 86.8618L434.883 86.7871V94.2591C433.337 94.3587 431.218 94.4085 428.525 94.4085C425.583 94.4085 423.115 93.7111 421.12 92.3164C419.125 90.8718 418.128 88.5057 418.128 85.218V62.7273H412.817Z" fill="black"/>
<path d="M457.479 95.4546C451.994 95.4546 447.705 94.2591 444.613 91.8681C441.521 89.4272 439.826 86.1146 439.527 81.9303H448.952C449.6 86.1644 452.393 88.2815 457.329 88.2815C459.573 88.2815 461.294 87.883 462.491 87.086C463.737 86.289 464.361 85.218 464.361 83.873C464.361 83.3749 464.261 82.9266 464.061 82.5281C463.912 82.1296 463.613 81.7809 463.164 81.482C462.765 81.1333 462.391 80.8593 462.042 80.6601C461.743 80.4608 461.194 80.2616 460.396 80.0623C459.598 79.8631 458.975 79.7136 458.526 79.614C458.127 79.5144 457.404 79.3899 456.357 79.2404C455.36 79.0412 454.661 78.8917 454.263 78.7921C452.168 78.3936 450.448 77.9951 449.101 77.5966C447.805 77.1483 446.433 76.5256 444.987 75.7286C443.541 74.8818 442.444 73.761 441.696 72.3662C440.998 70.9216 440.649 69.2031 440.649 67.2105C440.649 63.2255 442.095 60.1869 444.987 58.0947C447.929 56.0026 451.694 54.9565 456.282 54.9565C461.219 54.9565 465.084 56.1022 467.876 58.3936C470.719 60.6352 472.339 63.7236 472.738 67.6589H463.538C463.139 63.9229 460.67 62.0549 456.133 62.0549C454.088 62.0549 452.467 62.4285 451.27 63.1757C450.124 63.9229 449.55 64.9689 449.55 66.3139C449.55 66.7622 449.625 67.1856 449.775 67.5841C449.974 67.9328 450.273 68.2566 450.672 68.5555C451.121 68.8046 451.545 69.0287 451.944 69.228C452.343 69.3774 452.916 69.5518 453.664 69.751C454.412 69.9004 455.06 70.0499 455.609 70.1993C456.157 70.2989 456.905 70.4484 457.853 70.6476C458.8 70.7971 459.548 70.9216 460.097 71.0212C461.693 71.3699 462.989 71.6937 463.987 71.9926C465.034 72.2417 466.231 72.69 467.577 73.3376C468.923 73.9353 469.971 74.6327 470.719 75.4297C471.517 76.1769 472.19 77.223 472.738 78.5679C473.337 79.8631 473.636 81.3824 473.636 83.1258C473.636 86.9116 472.14 89.9253 469.148 92.1669C466.206 94.3587 462.316 95.4546 457.479 95.4546Z" fill="black"/>
</svg>
