<svg width="120" height="132" viewBox="0 0 120 132" fill="none" xmlns="http://www.w3.org/2000/svg">
<path d="M18.4615 20.3077C18.4615 15.2097 14.3288 11.0769 9.23076 11.0769C4.13275 11.0769 0 15.2097 0 20.3077C0 23.3309 1.45222 26.0096 3.69231 27.6919V64.6153C3.69231 70.2896 7.6307 75.0441 12.9231 76.2942V84.923C12.9231 110.923 34.0001 132 60 132C85.9998 132 107.077 110.923 107.077 84.923V76.2942C112.369 75.0441 116.308 70.2896 116.308 64.6153V27.6919C118.548 26.0096 120 23.3309 120 20.3077C120 15.2097 115.867 11.0769 110.769 11.0769C105.671 11.0769 101.538 15.2097 101.538 20.3077C101.538 22.8045 102.53 25.0663 104.135 26.7255L101.374 34.574C96.6381 28.6905 89.3768 24.9231 81.2307 24.9231H38.7692C30.6231 24.9231 23.3619 28.6905 18.6261 34.574L15.8646 26.7255C17.4704 25.0663 18.4615 22.8045 18.4615 20.3077Z" fill="black"/>
<path d="M105.231 20.3077C105.231 17.2489 107.711 14.7693 110.769 14.7693C113.828 14.7693 116.308 17.2489 116.308 20.3077C116.308 22.7192 114.767 24.7707 112.615 25.5311V64.6154C112.615 69.2036 108.896 72.9231 104.308 72.9231H101.539V45.2308L108.526 25.3729C106.585 24.5118 105.231 22.5679 105.231 20.3077Z" fill="#757575"/>
<path d="M14.7693 20.3077C14.7693 17.2489 12.2896 14.7693 9.23084 14.7693C6.17203 14.7693 3.69238 17.2489 3.69238 20.3077C3.69238 22.7192 5.23357 24.7707 7.38469 25.5311V64.6154C7.38469 69.2036 11.1042 72.9231 15.6924 72.9231H18.4616V45.2308L11.4746 25.3729C13.4155 24.5118 14.7693 22.5679 14.7693 20.3077Z" fill="#757575"/>
<path d="M16.6152 50.7693C16.6152 38.5341 26.5339 28.6155 38.7691 28.6155H81.2306C93.4658 28.6155 103.384 38.5341 103.384 50.7693V84.9232C103.384 108.884 83.9605 128.308 59.9998 128.308C36.0392 128.308 16.6152 108.884 16.6152 84.9231V50.7693Z" fill="#CCCCCC"/>
<path d="M40.6152 28.6155H79.3844V58.1539H40.6152V28.6155Z" fill="white"/>
<path d="M51.6924 27.6924H57.5385C63.4862 27.6924 68.3078 32.5139 68.3078 38.4616V45.2308C68.3078 49.819 64.5883 53.5385 60.0001 53.5385C55.4119 53.5385 51.6924 49.819 51.6924 45.2308V27.6924Z" fill="#F03917"/>
<path d="M46.1538 96.9231H73.8461V104.308H46.1538V96.9231Z" fill="black"/>
<path d="M24.9233 63.6925C24.9233 60.6337 27.403 58.1541 30.4618 58.1541H89.5387C92.5975 58.1541 95.0772 60.6337 95.0772 63.6925V78.4617C95.0772 81.5205 92.5975 84.0002 89.5387 84.0002H30.4618C27.403 84.0002 24.9233 81.5205 24.9233 78.4617V63.6925Z" fill="black"/>
<path d="M34.1543 68.3077C34.1543 65.2489 36.6339 62.7693 39.6928 62.7693C42.7516 62.7693 45.2312 65.2489 45.2312 68.3077V73.8462C45.2312 76.905 42.7516 79.3847 39.6928 79.3847C36.6339 79.3847 34.1543 76.905 34.1543 73.8462V68.3077Z" fill="#30D2F8"/>
<path d="M74.7695 68.3077C74.7695 65.2489 77.2492 62.7693 80.308 62.7693C83.3668 62.7693 85.8465 65.2489 85.8465 68.3077V73.8462C85.8465 76.905 83.3668 79.3847 80.308 79.3847C77.2492 79.3847 74.7695 76.905 74.7695 73.8462V68.3077Z" fill="#30D2F8"/>
<path d="M35.7798 120.923C24.2188 113.13 16.6152 99.9144 16.6152 84.9231V84.573L35.9998 100.615V120.923H35.7798Z" fill="#757575"/>
<path d="M103.385 84.573V84.9231C103.385 99.9144 95.781 113.13 84.22 120.923H84V100.615L103.385 84.573Z" fill="#757575"/>
<path fill-rule="evenodd" clip-rule="evenodd" d="M40.7735 22.3123C39.7175 23.3683 39.4016 24.9564 39.9731 26.3361C40.5446 27.7158 41.8909 28.6154 43.3843 28.6154H55.478L51.8801 39.452C51.3408 41.0764 51.9885 42.8585 53.445 43.7574C54.9015 44.6564 56.7849 44.4366 57.9952 43.2263L79.2259 21.9955C80.2819 20.9395 80.5978 19.3514 80.0263 17.9717C79.4548 16.592 78.1085 15.6924 76.6151 15.6924H64.5214L68.1193 4.85584C68.6586 3.23144 68.0109 1.44934 66.5544 0.550368C65.0979 -0.348604 63.2145 -0.12875 62.0042 1.08153L40.7735 22.3123Z" fill="black"/>
<path d="M43.3848 24.9234L64.6155 3.69263L59.4054 19.3849H76.6155L55.3848 40.6157L60.5949 24.9234H43.3848Z" fill="#FFC93A"/>
</svg>
