<svg width="120" height="132" viewBox="0 0 120 132" fill="none" xmlns="http://www.w3.org/2000/svg">
<path d="M46.1538 96.9231H73.8461V104.308H46.1538V96.9231Z" fill="black"/>
<path fill-rule="evenodd" clip-rule="evenodd" d="M24.9233 63.6923C24.9233 60.6335 27.403 58.1538 30.4618 58.1538H89.5387C92.5975 58.1538 95.0771 60.6335 95.0771 63.6923V78.4615C95.0771 81.5203 92.5975 83.9999 89.5387 83.9999H30.4618C27.403 83.9999 24.9233 81.5203 24.9233 78.4615V63.6923ZM74.7694 68.3076C74.7694 65.2488 77.249 62.7692 80.3078 62.7692C83.3666 62.7692 85.8463 65.2488 85.8463 68.3077V73.8461C85.8463 76.9049 83.3666 79.3846 80.3078 79.3846C77.249 79.3846 74.7694 76.9049 74.7694 73.8461V68.3076ZM39.6926 62.7692C36.6338 62.7692 34.1541 65.2488 34.1541 68.3076V73.8461C34.1541 76.9049 36.6338 79.3846 39.6926 79.3846C42.7514 79.3846 45.231 76.9049 45.231 73.8461V68.3077C45.231 65.2488 42.7514 62.7692 39.6926 62.7692Z" fill="black"/>
<path d="M35.7798 120.923C24.2188 113.13 16.6152 99.9144 16.6152 84.9231V84.573L35.9998 100.615V120.923H35.7798Z" fill="black"/>
<path d="M103.385 84.573V84.9231C103.385 99.9144 95.781 113.13 84.22 120.923H84V100.615L103.385 84.573Z" fill="black"/>
<path fill-rule="evenodd" clip-rule="evenodd" d="M40.7736 22.3123C40.0674 23.0184 39.6922 23.9625 39.692 24.9231H38.7692C30.6231 24.9231 23.3619 28.6906 18.6261 34.574L15.8646 26.7255C17.4704 25.0663 18.4615 22.8045 18.4615 20.3077C18.4615 15.2097 14.3288 11.077 9.23076 11.077C4.13275 11.077 0 15.2097 0 20.3077C0 23.331 1.45222 26.0097 3.69231 27.692V64.6154C3.69231 70.2897 7.6307 75.0442 12.9231 76.2943V84.9231C12.9231 110.923 34.0001 132 60 132C85.9998 132 107.077 110.923 107.077 84.9231V76.2943C112.369 75.0442 116.308 70.2897 116.308 64.6154V27.692C118.548 26.0097 120 23.331 120 20.3077C120 15.2097 115.867 11.077 110.769 11.077C105.671 11.077 101.538 15.2097 101.538 20.3077C101.538 22.8045 102.53 25.0663 104.135 26.7255L101.374 34.574C96.6381 28.6906 89.3768 24.9231 81.2307 24.9231H76.2985L79.226 21.9955C80.282 20.9395 80.5979 19.3514 80.0264 17.9717C79.4549 16.592 78.1086 15.6924 76.6152 15.6924H64.5215L68.1194 4.85583C68.6587 3.23144 68.011 1.44934 66.5545 0.550368C65.098 -0.348604 63.2146 -0.12875 62.0043 1.08153L40.7736 22.3123ZM51.6925 28.6155V40.5417C51.6915 40.5906 51.6915 40.6395 51.6925 40.6882V45.2308C51.6925 49.819 55.412 53.5385 60.0002 53.5385C64.5884 53.5385 68.3079 49.819 68.3079 45.2308V38.4616C68.3079 36.8376 67.9484 35.2976 67.3047 33.9168L72.6061 28.6155H81.2304C93.4657 28.6155 103.384 38.5341 103.384 50.7693V84.9231C103.384 108.884 83.9603 128.308 59.9997 128.308C36.039 128.308 16.6151 108.884 16.6151 84.9231V50.7693C16.6151 38.5341 26.5337 28.6155 38.7689 28.6155H51.6925ZM64.6157 3.69235L43.3849 24.9231H60.595L55.3849 40.6154L76.6157 19.3846H59.4056L64.6157 3.69235Z" fill="black"/>
</svg>
