<svg width="480" height="528" viewBox="0 0 480 528" fill="none" xmlns="http://www.w3.org/2000/svg">
<path d="M73.8461 81.2312C73.8461 60.8391 57.3151 44.3081 36.9231 44.3081C16.531 44.3081 0 60.8391 0 81.2312C0 93.3241 5.80888 104.039 14.7692 110.768V258.462C14.7692 281.159 30.5228 300.177 51.6923 305.177V339.693C51.6923 443.692 136 528 240 528C343.999 528 428.307 443.692 428.307 339.693V305.177C449.477 300.177 465.23 281.159 465.23 258.462V110.768C474.191 104.039 480 93.3241 480 81.2312C480 60.8391 463.469 44.3081 443.077 44.3081C422.685 44.3081 406.154 60.8391 406.154 81.2312C406.154 91.2184 410.118 100.265 416.541 106.902L405.495 138.296C386.552 114.763 357.507 99.6927 324.923 99.6927H155.077C122.492 99.6927 93.4475 114.763 74.5045 138.296L63.4584 106.902C69.8816 100.265 73.8461 91.2184 73.8461 81.2312Z" fill="black"/>
<path d="M420.924 81.231C420.924 68.9958 430.842 59.0771 443.077 59.0771C455.313 59.0771 465.231 68.9958 465.231 81.231C465.231 90.8769 459.066 99.083 450.462 102.124V258.462C450.462 276.814 435.584 291.692 417.231 291.692H406.154V180.923L434.102 101.492C426.339 98.0473 420.924 90.2715 420.924 81.231Z" fill="#757575"/>
<path d="M59.0791 81.231C59.0791 68.9958 49.1605 59.0771 36.9253 59.0771C24.6901 59.0771 14.7715 68.9958 14.7715 81.231C14.7715 90.8769 20.9362 99.083 29.5407 102.124V258.462C29.5407 276.814 44.4186 291.692 62.7715 291.692H73.8484V180.923L45.9002 101.492C53.6639 98.0473 59.0791 90.2715 59.0791 81.231Z" fill="#757575"/>
<path d="M66.46 203.077C66.46 154.136 106.134 114.462 155.075 114.462H324.921C373.862 114.462 413.537 154.136 413.537 203.077V339.693C413.537 435.535 335.841 513.231 239.998 513.231C144.156 513.231 66.46 435.535 66.46 339.692V203.077Z" fill="#CCCCCC"/>
<path d="M162.464 114.462H317.541V232.616H162.464V114.462Z" fill="white"/>
<path d="M206.767 110.77H230.151C253.942 110.77 273.228 130.056 273.228 153.846V180.923C273.228 199.276 258.35 214.154 239.997 214.154C221.645 214.154 206.767 199.276 206.767 180.923V110.77Z" fill="#F03917"/>
<path d="M184.615 387.692H295.384V417.231H184.615V387.692Z" fill="black"/>
<path d="M99.6934 254.77C99.6934 242.534 109.612 232.616 121.847 232.616H358.155C370.39 232.616 380.309 242.534 380.309 254.77V313.846C380.309 326.082 370.39 336 358.155 336H121.847C109.612 336 99.6934 326.082 99.6934 313.846V254.77Z" fill="black"/>
<path d="M136.616 273.231C136.616 260.996 146.535 251.077 158.77 251.077C171.005 251.077 180.924 260.996 180.924 273.231V295.385C180.924 307.62 171.005 317.539 158.77 317.539C146.535 317.539 136.616 307.62 136.616 295.385V273.231Z" fill="#30D2F8"/>
<path d="M299.074 273.231C299.074 260.996 308.993 251.077 321.228 251.077C333.463 251.077 343.382 260.996 343.382 273.231V295.385C343.382 307.62 333.463 317.539 321.228 317.539C308.993 317.539 299.074 307.62 299.074 295.385V273.231Z" fill="#30D2F8"/>
<path d="M143.118 483.692C96.8743 452.519 66.46 399.658 66.46 339.693V338.292L143.998 402.462V483.692H143.118Z" fill="#757575"/>
<path d="M413.536 338.292V339.693C413.536 399.658 383.122 452.519 336.878 483.692H335.998V402.462L413.536 338.292Z" fill="#757575"/>
<path fill-rule="evenodd" clip-rule="evenodd" d="M163.095 89.2491C158.871 93.4731 157.607 99.8256 159.893 105.344C162.179 110.863 167.565 114.462 173.538 114.462H221.913L207.521 157.808C205.364 164.306 207.955 171.434 213.781 175.03C219.607 178.626 227.14 177.746 231.982 172.905L316.905 87.9821C321.129 83.7582 322.392 77.4057 320.106 71.8868C317.82 66.3679 312.435 62.7695 306.461 62.7695H258.086L272.478 19.4233C274.635 12.9257 272.044 5.79736 266.218 2.20147C260.392 -1.39442 252.859 -0.514998 248.018 4.32611L163.095 89.2491Z" fill="black"/>
<path d="M173.54 99.6925L258.463 14.7695L237.623 77.5387H306.463L221.54 162.462L242.38 99.6925H173.54Z" fill="#FFC93A"/>
</svg>
