<svg width="522" height="132" viewBox="0 0 522 132" fill="none" xmlns="http://www.w3.org/2000/svg">
<path d="M34.6538 68.308C34.6538 65.2492 37.1335 62.7695 40.1923 62.7695C43.2511 62.7695 45.7307 65.2492 45.7307 68.308V73.8465C45.7307 76.9053 43.2511 79.3849 40.1923 79.3849C37.1335 79.3849 34.6538 76.9053 34.6538 73.8464V68.308Z" fill="white"/>
<path d="M75.2693 68.308C75.2693 65.2492 77.7489 62.7695 80.8077 62.7695C83.8666 62.7695 86.3462 65.2492 86.3462 68.308V73.8465C86.3462 76.9053 83.8666 79.3849 80.8077 79.3849C77.7489 79.3849 75.2693 76.9053 75.2693 73.8464V68.308Z" fill="white"/>
<path fill-rule="evenodd" clip-rule="evenodd" d="M41.2738 22.3125C40.5676 23.0187 40.1924 23.9628 40.1922 24.9234H39.2692C31.1231 24.9234 23.8619 28.6909 19.1261 34.5743L16.3646 26.7258C17.9704 25.0666 18.9615 22.8048 18.9615 20.308C18.9615 15.21 14.8288 11.0773 9.73077 11.0773C4.63276 11.0773 0.5 15.21 0.5 20.308C0.5 23.3313 1.95222 26.01 4.19231 27.6923V64.6157C4.19231 70.29 8.13071 75.0445 13.4231 76.2946V84.9234C13.4231 110.923 34.5001 132 60.5 132C86.4999 132 107.577 110.923 107.577 84.9234V76.2946C112.869 75.0445 116.808 70.29 116.808 64.6157V27.6923C119.048 26.01 120.5 23.3313 120.5 20.308C120.5 15.21 116.367 11.0773 111.269 11.0773C106.171 11.0773 102.038 15.21 102.038 20.308C102.038 22.8048 103.03 25.0666 104.635 26.7258L101.874 34.5743C97.1381 28.6909 89.8769 24.9234 81.7308 24.9234H76.7986L79.7263 21.9958C80.7822 20.9398 81.0982 19.3517 80.5266 17.9719C79.9551 16.5922 78.6088 15.6926 77.1154 15.6926H65.0217L68.6196 4.85608C69.1589 3.23168 68.5112 1.44959 67.0547 0.550613C65.5982 -0.34836 63.7148 -0.128505 62.5045 1.08177L41.2738 22.3125ZM52.1923 40.5618V28.6157H55.9783L52.3804 39.4522C52.259 39.8181 52.1977 40.1918 52.1923 40.5618ZM52.1923 45.2311V40.6687C52.2103 41.9028 52.8485 43.0807 53.9453 43.7577C55.4018 44.6567 57.2852 44.4368 58.4955 43.2266L68.8077 32.9143V45.2311C68.8077 49.8193 65.0882 53.5388 60.5 53.5388C55.9118 53.5388 52.1923 49.8193 52.1923 45.2311ZM105.731 20.308C105.731 17.2492 108.21 14.7696 111.269 14.7696C114.328 14.7696 116.808 17.2492 116.808 20.308C116.808 22.7195 115.267 24.771 113.115 25.5313V64.6157C113.115 69.2039 109.396 72.9234 104.808 72.9234H103.885V50.7696C103.885 48.2143 103.452 45.76 102.656 43.4761L109.026 25.3732C107.085 24.5121 105.731 22.5682 105.731 20.308ZM9.73077 14.7696C12.7896 14.7696 15.2692 17.2492 15.2692 20.308C15.2692 22.5682 13.9154 24.5121 11.9745 25.3732L18.344 43.476C17.548 45.76 17.1154 48.2143 17.1154 50.7696V72.9234H16.1923C11.6041 72.9234 7.88462 69.2039 7.88462 64.6157V25.5313C5.73349 24.771 4.19231 22.7195 4.19231 20.308C4.19231 17.2492 6.67196 14.7696 9.73077 14.7696ZM30.9616 58.1542C27.9027 58.1542 25.4231 60.6338 25.4231 63.6926V78.4619C25.4231 81.5207 27.9027 84.0003 30.9616 84.0003H90.0385C93.0973 84.0003 95.5769 81.5207 95.5769 78.4619V63.6926C95.5769 60.6338 93.0973 58.1542 90.0385 58.1542H30.9616ZM46.6539 104.308V96.9234H74.3462V104.308H46.6539ZM103.885 84.5733V84.9234C103.885 99.9147 96.2811 113.13 84.7201 120.923H84.5V100.616L103.885 84.5733ZM17.1154 84.9234C17.1154 99.9147 24.719 113.13 36.28 120.923H36.5V100.616L17.1154 84.5733V84.9234ZM65.1154 3.69264L43.8846 24.9234H61.0947L55.8846 40.6157L77.1154 19.3849H59.9053L65.1154 3.69264Z" fill="white"/>
<path d="M156.5 104.045V101.427H158.534C161.607 101.427 163.489 101.178 164.181 100.679C164.901 100.153 165.26 99.0584 165.26 97.3964V52.8119C165.26 51.1775 164.901 50.111 164.181 49.6124C163.461 49.0861 161.579 48.823 158.534 48.823H156.5V46.1637H203.167L205.533 65.3188H203.416C203.028 62.0778 202.572 59.5432 202.046 57.7149C201.547 55.859 200.717 54.1969 199.555 52.7288C198.392 51.2606 196.828 50.2496 194.863 49.6955C192.925 49.1138 190.365 48.823 187.182 48.823H176.969C175.031 48.823 173.855 49.0307 173.439 49.4462C173.024 49.834 172.817 50.762 172.817 52.2302V73.7537H180.124C183.971 73.7537 186.435 73.0612 187.514 71.6761C188.594 70.2911 189.133 67.6595 189.133 63.7814H191.251V86.3437H189.133C189.133 82.4379 188.594 79.8063 187.514 78.449C186.435 77.064 183.971 76.3714 180.124 76.3714H172.817V97.3133C172.817 98.5044 172.914 99.3354 173.107 99.8063C173.301 100.25 173.993 100.637 175.183 100.97C176.373 101.274 178.269 101.427 180.871 101.427H183.695V104.045C181.646 103.878 176.886 103.795 169.412 103.795C162.797 103.795 158.493 103.878 156.5 104.045Z" fill="white"/>
<path d="M211.969 104.045V101.427C214.986 101.427 216.84 101.247 217.532 100.887C218.224 100.499 218.57 99.3908 218.57 97.5626V53.3105C218.57 51.2052 218.196 49.8894 217.449 49.3631C216.729 48.8368 214.902 48.5737 211.969 48.5737V45.9144L224.175 45.0002V97.5626C224.175 99.3908 224.535 100.499 225.254 100.887C225.974 101.247 227.829 101.427 230.818 101.427V104.045C230.126 104.045 229.06 104.017 227.621 103.961C226.182 103.906 224.936 103.865 223.884 103.837C222.832 103.809 222.002 103.795 221.393 103.795C220.729 103.795 217.587 103.878 211.969 104.045Z" fill="white"/>
<path d="M236.298 95.9421C236.298 91.1221 239.135 87.4379 244.81 84.8894C248.214 83.2551 253.432 82.2302 260.462 81.8146V78.6983C260.462 75.1803 259.535 72.4933 257.68 70.6374C255.853 68.7537 253.778 67.8119 251.452 67.8119C247.301 67.8119 244.228 69.1138 242.235 71.7177C243.924 71.7731 245.072 72.2302 245.681 73.0889C246.29 73.9199 246.595 74.7648 246.595 75.6235C246.595 76.7592 246.235 77.7011 245.515 78.449C244.823 79.1692 243.882 79.5293 242.692 79.5293C241.557 79.5293 240.616 79.1831 239.869 78.4905C239.122 77.7703 238.748 76.7869 238.748 75.5404C238.748 72.7703 239.993 70.4712 242.485 68.6429C245.003 66.8146 248.048 65.9005 251.619 65.9005C256.269 65.9005 260.144 67.4656 263.244 70.5958C264.212 71.5653 264.932 72.6734 265.403 73.9199C265.901 75.1664 266.178 76.2052 266.233 77.0363C266.288 77.8396 266.316 79.0446 266.316 80.6512V97.6457C266.316 97.9781 266.371 98.4213 266.482 98.9753C266.593 99.5293 266.897 100.166 267.396 100.887C267.921 101.579 268.613 101.925 269.471 101.925C271.52 101.925 272.53 100.111 272.502 96.4822V91.7038H274.661V96.4822C274.661 99.5016 273.859 101.607 272.253 102.798C270.675 103.961 269.153 104.543 267.686 104.543C265.804 104.543 264.268 103.851 263.078 102.466C261.887 101.081 261.209 99.4462 261.043 97.5626C260.185 99.7232 258.774 101.51 256.808 102.923C254.871 104.308 252.573 105 249.916 105C247.868 105 245.875 104.737 243.938 104.211C242.028 103.712 240.27 102.756 238.665 101.344C237.087 99.9033 236.298 98.1027 236.298 95.9421ZM242.858 95.859C242.858 97.9642 243.606 99.6955 245.1 101.053C246.595 102.41 248.394 103.089 250.498 103.089C252.878 103.089 255.134 102.175 257.265 100.347C259.396 98.4905 260.462 95.7482 260.462 92.1194V83.6014C254.179 83.823 249.667 85.1941 246.927 87.7149C244.214 90.208 242.858 92.9227 242.858 95.859Z" fill="white"/>
<path d="M278.066 102.923V91.7038C278.066 91.0667 278.08 90.6374 278.107 90.4158C278.135 90.1941 278.232 90.0002 278.398 89.834C278.564 89.6678 278.813 89.5847 279.145 89.5847C279.533 89.5847 279.796 89.6678 279.934 89.834C280.1 90.0002 280.239 90.4019 280.349 91.039C281.207 94.9448 282.55 97.9365 284.377 100.014C286.231 102.064 288.833 103.089 292.182 103.089C295.365 103.089 297.759 102.383 299.365 100.97C300.97 99.557 301.773 97.6872 301.773 95.3604C301.773 91.2052 298.825 88.6014 292.929 87.5487C289.525 86.8562 287.117 86.2883 285.705 85.8451C284.293 85.3742 282.965 84.6263 281.719 83.6014C279.284 81.6069 278.066 79.1969 278.066 76.3714C278.066 73.5459 279.131 71.0944 281.263 69.0169C283.422 66.9393 286.881 65.9005 291.642 65.9005C294.825 65.9005 297.496 66.7038 299.655 68.3105C300.292 67.8119 300.776 67.3548 301.108 66.9393C301.856 66.2468 302.423 65.9005 302.811 65.9005C303.254 65.9005 303.516 66.0529 303.6 66.3576C303.683 66.6346 303.724 67.1748 303.724 67.9781V76.5376C303.724 77.1748 303.71 77.6041 303.683 77.8257C303.655 78.0473 303.558 78.2412 303.392 78.4074C303.226 78.5459 302.963 78.6152 302.603 78.6152C301.966 78.6152 301.634 78.352 301.607 77.8257C301.164 70.9559 297.842 67.521 291.642 67.521C288.293 67.521 285.871 68.172 284.377 69.4739C282.882 70.7482 282.135 72.2579 282.135 74.003C282.135 74.9725 282.356 75.8313 282.799 76.5792C283.269 77.2994 283.795 77.8811 284.377 78.3243C284.985 78.7399 285.844 79.1554 286.951 79.5709C288.058 79.9587 288.944 80.2218 289.608 80.3604C290.3 80.4989 291.296 80.7066 292.597 80.9836C297.137 81.8423 300.361 83.1997 302.271 85.0556C304.651 87.4379 305.842 90.1387 305.842 93.1581C305.842 96.5099 304.707 99.3216 302.437 101.593C300.167 103.865 296.749 105 292.182 105C288.501 105 285.373 103.768 282.799 101.302C282.467 101.635 282.176 101.953 281.927 102.258C281.678 102.535 281.498 102.729 281.387 102.84C281.304 102.95 281.249 103.047 281.221 103.13C281.193 103.186 281.152 103.241 281.097 103.297C279.962 104.432 279.256 105 278.979 105C278.536 105 278.273 104.848 278.19 104.543C278.107 104.266 278.066 103.726 278.066 102.923Z" fill="white"/>
<path d="M311.446 104.045V101.427C314.463 101.427 316.318 101.247 317.01 100.887C317.702 100.499 318.048 99.3908 318.048 97.5626V53.3105C318.048 51.2052 317.674 49.8894 316.927 49.3631C316.207 48.8368 314.38 48.5737 311.446 48.5737V45.9144L323.653 45.0002V74.5847H323.736C324.649 72.5349 326.13 70.6651 328.178 68.9753C330.227 67.2856 332.828 66.4407 335.984 66.4407C340.246 66.4407 343.222 67.4933 344.91 69.5986C346.156 71.0113 346.903 72.5072 347.152 74.0861C347.429 75.6651 347.567 78.5044 347.567 82.6041V98.8507C347.623 100.042 348.107 100.776 349.021 101.053C349.934 101.302 351.664 101.427 354.21 101.427V104.045C348.426 103.878 345.242 103.795 344.661 103.795C344.218 103.795 341.021 103.878 335.07 104.045V101.427C338.087 101.427 339.942 101.247 340.634 100.887C341.354 100.499 341.713 99.3908 341.713 97.5626V77.7426C341.713 74.8617 341.271 72.5764 340.385 70.8867C339.499 69.1692 337.838 68.3105 335.403 68.3105C332.469 68.3105 329.825 69.5432 327.473 72.0086C325.12 74.4739 323.944 77.7842 323.944 81.9393V97.5626C323.944 99.3908 324.29 100.499 324.981 100.887C325.701 101.247 327.556 101.427 330.545 101.427V104.045C324.76 103.878 321.591 103.795 321.037 103.795C320.594 103.795 317.397 103.878 311.446 104.045Z" fill="white"/>
<path d="M355.83 48.5737V45.9144L368.078 45.0002V71.967C371.371 68.2828 375.26 66.4407 379.744 66.4407C384.616 66.4407 388.837 68.3105 392.407 72.0501C395.978 75.7897 397.763 80.3327 397.763 85.6789C397.763 91.0806 395.895 95.6512 392.158 99.3908C388.422 103.13 383.965 105 378.789 105C374.084 105 370.375 102.923 367.662 98.7676C365.669 102.23 364.645 103.989 364.59 104.045H362.473V53.3105C362.473 51.2052 362.099 49.8894 361.352 49.3631C360.604 48.8368 358.764 48.5737 355.83 48.5737ZM368.327 94.3631C368.327 95.5543 368.728 96.7454 369.531 97.9365C371.773 101.371 374.72 103.089 378.374 103.089C378.402 103.089 378.429 103.089 378.457 103.089C382.415 103.089 385.626 101.274 388.089 97.6457C389.833 94.931 390.705 90.9144 390.705 85.5958C390.705 80.3327 389.889 76.3853 388.255 73.7537C385.986 70.1249 383.01 68.3105 379.329 68.3105C375.177 68.3105 371.828 70.1249 369.282 73.7537C368.645 74.6678 368.327 75.6928 368.327 76.8285V94.3631Z" fill="white"/>
<path d="M411.008 99.4739C407.271 95.762 405.403 91.2191 405.403 85.8451C405.403 80.4435 407.229 75.7759 410.883 71.8423C414.564 67.8811 419.034 65.9005 424.293 65.9005C429.442 65.9005 433.856 67.8673 437.538 71.8008C441.247 75.7066 443.101 80.3881 443.101 85.8451C443.101 91.1914 441.233 95.7205 437.496 99.4324C433.787 103.144 429.359 105 424.21 105C419.173 105 414.772 103.158 411.008 99.4739ZM412.461 85.1387C412.461 90.6512 413.18 94.654 414.62 97.1471C416.834 100.942 420.059 102.84 424.293 102.84C426.397 102.84 428.321 102.272 430.064 101.136C431.836 100 433.206 98.4767 434.175 96.5653C435.42 94.0723 436.043 90.2634 436.043 85.1387C436.043 79.6817 435.296 75.7482 433.801 73.3382C431.587 69.654 428.39 67.8119 424.21 67.8119C422.384 67.8119 420.571 68.2966 418.771 69.2662C417 70.208 415.575 71.6207 414.495 73.5044C413.139 75.9975 412.461 79.8756 412.461 85.1387Z" fill="white"/>
<path d="M447.17 70.0141V68.1443C449.772 68.0335 451.931 67.064 453.647 65.2357C455.391 63.3797 456.553 61.316 457.134 59.0446C457.743 56.7731 458.075 54.3216 458.131 51.69H460.248V67.3548H472.413V70.0141H460.248V93.6568C460.248 99.7786 462.158 102.84 465.978 102.84C467.611 102.84 468.967 102.009 470.047 100.347C471.126 98.6568 471.666 96.316 471.666 93.3243V88.6291H473.783V93.4905C473.783 96.5653 473.077 99.2523 471.666 101.551C470.254 103.851 468.151 105 465.355 105C464.331 105 463.307 104.862 462.283 104.585C461.286 104.335 460.124 103.878 458.795 103.214C457.494 102.521 456.429 101.344 455.598 99.6817C454.796 97.9919 454.394 95.9282 454.394 93.4905V70.0141H447.17Z" fill="white"/>
<path d="M481.34 102.923V91.7038C481.34 91.0667 481.353 90.6374 481.381 90.4158C481.409 90.1941 481.506 90.0002 481.672 89.834C481.838 89.6678 482.087 89.5847 482.419 89.5847C482.807 89.5847 483.07 89.6678 483.208 89.834C483.374 90.0002 483.512 90.4019 483.623 91.039C484.481 94.9448 485.824 97.9365 487.65 100.014C489.505 102.064 492.107 103.089 495.456 103.089C498.639 103.089 501.033 102.383 502.639 100.97C504.244 99.557 505.047 97.6872 505.047 95.3604C505.047 91.2052 502.099 88.6014 496.203 87.5487C492.799 86.8562 490.391 86.2883 488.979 85.8451C487.567 85.3742 486.239 84.6263 484.993 83.6014C482.557 81.6069 481.34 79.1969 481.34 76.3714C481.34 73.5459 482.405 71.0944 484.537 69.0169C486.695 66.9393 490.155 65.9005 494.916 65.9005C498.099 65.9005 500.77 66.7038 502.929 68.3105C503.566 67.8119 504.05 67.3548 504.382 66.9393C505.13 66.2468 505.697 65.9005 506.085 65.9005C506.527 65.9005 506.79 66.0529 506.873 66.3576C506.956 66.6346 506.998 67.1748 506.998 67.9781V76.5376C506.998 77.1748 506.984 77.6041 506.956 77.8257C506.929 78.0473 506.832 78.2412 506.666 78.4074C506.5 78.5459 506.237 78.6152 505.877 78.6152C505.24 78.6152 504.908 78.352 504.881 77.8257C504.438 70.9559 501.116 67.521 494.916 67.521C491.567 67.521 489.145 68.172 487.65 69.4739C486.156 70.7482 485.408 72.2579 485.408 74.003C485.408 74.9725 485.63 75.8313 486.073 76.5792C486.543 77.2994 487.069 77.8811 487.65 78.3243C488.259 78.7399 489.117 79.1554 490.225 79.5709C491.332 79.9587 492.217 80.2218 492.882 80.3604C493.574 80.4989 494.57 80.7066 495.871 80.9836C500.41 81.8423 503.635 83.1997 505.545 85.0556C507.925 87.4379 509.115 90.1387 509.115 93.1581C509.115 96.5099 507.981 99.3216 505.711 101.593C503.441 103.865 500.023 105 495.456 105C491.775 105 488.647 103.768 486.073 101.302C485.741 101.635 485.45 101.953 485.201 102.258C484.952 102.535 484.772 102.729 484.661 102.84C484.578 102.95 484.523 103.047 484.495 103.13C484.467 103.186 484.426 103.241 484.37 103.297C483.236 104.432 482.53 105 482.253 105C481.81 105 481.547 104.848 481.464 104.543C481.381 104.266 481.34 103.726 481.34 102.923Z" fill="white"/>
</svg>
