<svg width="524" height="132" viewBox="0 0 524 132" fill="none" xmlns="http://www.w3.org/2000/svg">
<path d="M19.2865 20.3078C19.2865 15.2098 15.0313 11.077 9.78212 11.077C4.53298 11.077 0.27771 15.2098 0.27771 20.3078C0.27771 23.331 1.77298 26.0097 4.07947 27.692V64.6155C4.07947 70.2897 8.13462 75.0442 13.5839 76.2943V84.9231C13.5839 110.923 35.2858 132 62.0564 132C88.827 132 110.529 110.923 110.529 84.9231V76.2943C115.978 75.0442 120.033 70.2897 120.033 64.6155V27.692C122.34 26.0097 123.835 23.331 123.835 20.3078C123.835 15.2098 119.58 11.077 114.331 11.077C109.081 11.077 104.826 15.2098 104.826 20.3078C104.826 22.8046 105.847 25.0664 107.5 26.7256L104.657 34.5741C99.7806 28.6907 92.3041 24.9232 83.9165 24.9232H40.1962C31.8086 24.9232 24.3321 28.6907 19.456 34.5741L16.6126 26.7256C18.266 25.0664 19.2865 22.8046 19.2865 20.3078Z" fill="black"/>
<path d="M108.628 20.3077C108.628 17.2489 111.181 14.7693 114.331 14.7693C117.48 14.7693 120.033 17.2489 120.033 20.3077C120.033 22.7192 118.446 24.7707 116.231 25.5311V64.6154C116.231 69.2036 112.402 72.9231 107.677 72.9231H104.826V45.2308L112.02 25.3729C110.022 24.5118 108.628 22.5679 108.628 20.3077Z" fill="#757575"/>
<path d="M15.4848 20.3077C15.4848 17.2489 12.9316 14.7693 9.78211 14.7693C6.63263 14.7693 4.07947 17.2489 4.07947 20.3077C4.07947 22.7192 5.66634 24.7707 7.88123 25.5311V64.6154C7.88123 69.2036 11.711 72.9231 16.4352 72.9231H19.2865V45.2308L12.0923 25.3729C14.0908 24.5118 15.4848 22.5679 15.4848 20.3077Z" fill="#757575"/>
<path d="M17.3856 50.7693C17.3856 38.5341 27.5983 28.6155 40.1962 28.6155H83.9165C96.5144 28.6155 106.727 38.5341 106.727 50.7693V84.9231C106.727 108.884 86.7273 128.308 62.0563 128.308C37.3854 128.308 17.3856 108.884 17.3856 84.9231V50.7693Z" fill="#CCCCCC"/>
<path d="M42.0972 28.6155H82.0157V58.1539H42.0972V28.6155Z" fill="white"/>
<path d="M53.5024 27.6924H63.6104C67.4764 27.6924 70.6104 30.8264 70.6104 34.6924V45.2308C70.6104 49.819 66.7806 53.5385 62.0564 53.5385C57.3322 53.5385 53.5024 49.819 53.5024 45.2308V27.6924Z" fill="#F03917"/>
<path d="M47.7998 96.9231H76.313V104.308H47.7998V96.9231Z" fill="black"/>
<path d="M25.9397 63.6923C25.9397 60.6335 28.4929 58.1539 31.6423 58.1539H92.4706C95.6201 58.1539 98.1732 60.6335 98.1732 63.6923V78.4615C98.1732 81.5204 95.62 84 92.4706 84H31.6423C28.4929 84 25.9397 81.5204 25.9397 78.4615V63.6923Z" fill="black"/>
<path d="M35.4441 68.3077C35.4441 65.2489 37.9973 62.7693 41.1467 62.7693C44.2962 62.7693 46.8494 65.2489 46.8494 68.3077V73.8462C46.8494 76.905 44.2962 79.3847 41.1467 79.3847C37.9973 79.3847 35.4441 76.905 35.4441 73.8462V68.3077Z" fill="#30D2F8"/>
<path d="M77.2634 68.3077C77.2634 65.2489 79.8166 62.7693 82.9661 62.7693C86.1156 62.7693 88.6687 65.2489 88.6687 68.3077V73.8462C88.6687 76.905 86.1156 79.3847 82.9661 79.3847C79.8166 79.3847 77.2634 76.905 77.2634 73.8462V68.3077Z" fill="#30D2F8"/>
<path d="M37.1183 120.923C25.2146 113.13 17.3856 99.9144 17.3856 84.9231V84.573L37.3449 100.615V120.923H37.1183Z" fill="#757575"/>
<path d="M106.727 84.573V84.9231C106.727 99.9144 98.8981 113.13 86.9944 120.923H86.7678V100.615L106.727 84.573Z" fill="#757575"/>
<path fill-rule="evenodd" clip-rule="evenodd" d="M42.2601 22.3123C41.1728 23.3683 40.8475 24.9564 41.436 26.3361C42.0244 27.7158 43.4107 28.6154 44.9484 28.6154H57.4006L53.696 39.452C53.1407 41.0764 53.8076 42.8585 55.3073 43.7574C56.807 44.6564 58.7462 44.4366 59.9923 43.2263L81.8525 21.9955C82.9398 20.9395 83.265 19.3514 82.6766 17.9717C82.0882 16.592 80.7019 15.6924 79.1642 15.6924H66.712L70.4166 4.85584C70.9719 3.23144 70.305 1.44934 68.8053 0.550368C67.3056 -0.348604 65.3664 -0.12875 64.1202 1.08153L42.2601 22.3123Z" fill="black"/>
<path d="M44.9485 24.9231L66.8086 3.69238L61.4441 19.3847H79.1644L57.3042 40.6154L62.6688 24.9231H44.9485Z" fill="#FFC93A"/>
<mask id="path-15-outside-1_22_5073" maskUnits="userSpaceOnUse" x="159" y="44.0001" width="355" height="62" fill="black">
<rect fill="white" x="159" y="44.0001" width="355" height="62"/>
<path d="M160 104.044V101.427H162.034C165.107 101.427 166.989 101.177 167.681 100.679C168.401 100.152 168.76 99.0582 168.76 97.3962V52.8117C168.76 51.1773 168.401 50.1109 167.681 49.6122C166.961 49.0859 165.079 48.8228 162.034 48.8228H160V46.1635H206.667L209.033 65.3186H206.916C206.528 62.0776 206.072 59.543 205.546 57.7147C205.047 55.8588 204.217 54.1967 203.055 52.7286C201.892 51.2604 200.328 50.2494 198.363 49.6954C196.425 49.1136 193.865 48.8228 190.682 48.8228H180.469C178.531 48.8228 177.355 49.0305 176.939 49.446C176.524 49.8339 176.317 50.7618 176.317 52.23V73.7535H183.624C187.471 73.7535 189.935 73.061 191.014 71.676C192.094 70.2909 192.633 67.6593 192.633 63.7812H194.751V86.3435H192.633C192.633 82.4377 192.094 79.8062 191.014 78.4488C189.935 77.0638 187.471 76.3713 183.624 76.3713H176.317V97.3131C176.317 98.5042 176.414 99.3352 176.607 99.8062C176.801 100.249 177.493 100.637 178.683 100.97C179.873 101.274 181.769 101.427 184.371 101.427H187.195V104.044C185.146 103.878 180.386 103.795 172.912 103.795C166.297 103.795 161.993 103.878 160 104.044Z"/>
<path d="M215.469 104.044V101.427C218.486 101.427 220.34 101.247 221.032 100.886C221.724 100.499 222.07 99.3906 222.07 97.5624V53.3103C222.07 51.205 221.696 49.8893 220.949 49.3629C220.229 48.8366 218.402 48.5735 215.469 48.5735V45.9142L227.675 45.0001V97.5624C227.675 99.3906 228.035 100.499 228.754 100.886C229.474 101.247 231.329 101.427 234.318 101.427V104.044C233.626 104.044 232.56 104.017 231.121 103.961C229.682 103.906 228.436 103.864 227.384 103.837C226.332 103.809 225.502 103.795 224.893 103.795C224.229 103.795 221.087 103.878 215.469 104.044Z"/>
<path d="M239.798 95.9419C239.798 91.1219 242.635 87.4377 248.31 84.8893C251.714 83.2549 256.932 82.23 263.962 81.8145V78.6981C263.962 75.1801 263.035 72.4931 261.18 70.6372C259.353 68.7535 257.278 67.8117 254.952 67.8117C250.801 67.8117 247.728 69.1136 245.735 71.7175C247.424 71.7729 248.572 72.23 249.181 73.0887C249.79 73.9197 250.095 74.7646 250.095 75.6233C250.095 76.7591 249.735 77.7009 249.015 78.4488C248.323 79.169 247.382 79.5291 246.192 79.5291C245.057 79.5291 244.116 79.1829 243.369 78.4904C242.622 77.7701 242.248 76.7868 242.248 75.5402C242.248 72.7701 243.493 70.471 245.985 68.6427C248.503 66.8145 251.548 65.9003 255.119 65.9003C259.769 65.9003 263.644 67.4654 266.744 70.5956C267.712 71.5652 268.432 72.6732 268.903 73.9197C269.401 75.1663 269.678 76.205 269.733 77.0361C269.788 77.8394 269.816 79.0444 269.816 80.651V97.6455C269.816 97.9779 269.871 98.4211 269.982 98.9751C270.093 99.5291 270.397 100.166 270.896 100.886C271.421 101.579 272.113 101.925 272.971 101.925C275.02 101.925 276.03 100.111 276.002 96.4821V91.7037H278.161V96.4821C278.161 99.5014 277.359 101.607 275.753 102.798C274.175 103.961 272.653 104.543 271.186 104.543C269.304 104.543 267.768 103.85 266.578 102.465C265.387 101.08 264.709 99.446 264.543 97.5624C263.685 99.7231 262.274 101.51 260.308 102.922C258.371 104.308 256.073 105 253.416 105C251.368 105 249.375 104.737 247.438 104.211C245.528 103.712 243.77 102.756 242.165 101.344C240.587 99.9031 239.798 98.1026 239.798 95.9419ZM246.358 95.8588C246.358 97.964 247.106 99.6953 248.6 101.053C250.095 102.41 251.894 103.089 253.998 103.089C256.378 103.089 258.634 102.175 260.765 100.346C262.896 98.4904 263.962 95.748 263.962 92.1192V83.6012C257.679 83.8228 253.167 85.194 250.427 87.7147C247.714 90.2078 246.358 92.9225 246.358 95.8588Z"/>
<path d="M281.566 102.922V91.7037C281.566 91.0665 281.58 90.6372 281.607 90.4156C281.635 90.194 281.732 90.0001 281.898 89.8339C282.064 89.6676 282.313 89.5845 282.645 89.5845C283.033 89.5845 283.296 89.6676 283.434 89.8339C283.6 90.0001 283.739 90.4017 283.849 91.0388C284.707 94.9447 286.05 97.9363 287.877 100.014C289.731 102.064 292.333 103.089 295.682 103.089C298.865 103.089 301.259 102.382 302.865 100.97C304.47 99.5568 305.273 97.687 305.273 95.3602C305.273 91.205 302.325 88.6012 296.429 87.5485C293.025 86.856 290.617 86.2881 289.205 85.8449C287.793 85.374 286.465 84.6261 285.219 83.6012C282.784 81.6067 281.566 79.1967 281.566 76.3713C281.566 73.5458 282.631 71.0942 284.763 69.0167C286.922 66.9391 290.381 65.9003 295.142 65.9003C298.325 65.9003 300.996 66.7037 303.155 68.3103C303.792 67.8117 304.276 67.3546 304.608 66.9391C305.356 66.2466 305.923 65.9003 306.311 65.9003C306.754 65.9003 307.016 66.0527 307.1 66.3574C307.183 66.6344 307.224 67.1746 307.224 67.9779V76.5375C307.224 77.1746 307.21 77.6039 307.183 77.8255C307.155 78.0472 307.058 78.2411 306.892 78.4073C306.726 78.5458 306.463 78.615 306.103 78.615C305.466 78.615 305.134 78.3519 305.107 77.8255C304.664 70.9557 301.342 67.5208 295.142 67.5208C291.793 67.5208 289.371 68.1718 287.877 69.4737C286.382 70.748 285.635 72.2577 285.635 74.0028C285.635 74.9724 285.856 75.8311 286.299 76.579C286.769 77.2992 287.295 77.8809 287.877 78.3242C288.485 78.7397 289.344 79.1552 290.451 79.5707C291.558 79.9585 292.444 80.2217 293.108 80.3602C293.8 80.4987 294.796 80.7064 296.097 80.9834C300.637 81.8422 303.861 83.1995 305.771 85.0555C308.151 87.4377 309.342 90.1386 309.342 93.158C309.342 96.5098 308.207 99.3214 305.937 101.593C303.667 103.864 300.249 105 295.682 105C292.001 105 288.873 103.767 286.299 101.302C285.967 101.634 285.676 101.953 285.427 102.258C285.178 102.535 284.998 102.729 284.887 102.839C284.804 102.95 284.749 103.047 284.721 103.13C284.693 103.186 284.652 103.241 284.597 103.296C283.462 104.432 282.756 105 282.479 105C282.036 105 281.773 104.848 281.69 104.543C281.607 104.266 281.566 103.726 281.566 102.922Z"/>
<path d="M314.946 104.044V101.427C317.963 101.427 319.818 101.247 320.51 100.886C321.202 100.499 321.548 99.3906 321.548 97.5624V53.3103C321.548 51.205 321.174 49.8893 320.427 49.3629C319.707 48.8366 317.88 48.5735 314.946 48.5735V45.9142L327.153 45.0001V74.5845H327.236C328.149 72.5347 329.63 70.6649 331.678 68.9751C333.727 67.2854 336.328 66.4405 339.484 66.4405C343.746 66.4405 346.722 67.4931 348.41 69.5984C349.656 71.0111 350.403 72.507 350.652 74.0859C350.929 75.6649 351.067 78.5042 351.067 82.6039V98.8505C351.123 100.042 351.607 100.776 352.521 101.053C353.434 101.302 355.164 101.427 357.71 101.427V104.044C351.926 103.878 348.742 103.795 348.161 103.795C347.718 103.795 344.521 103.878 338.57 104.044V101.427C341.587 101.427 343.442 101.247 344.134 100.886C344.854 100.499 345.213 99.3906 345.213 97.5624V77.7424C345.213 74.8616 344.771 72.5762 343.885 70.8865C342.999 69.169 341.338 68.3103 338.903 68.3103C335.969 68.3103 333.325 69.543 330.973 72.0084C328.62 74.4737 327.444 77.784 327.444 81.9391V97.5624C327.444 99.3906 327.79 100.499 328.481 100.886C329.201 101.247 331.056 101.427 334.045 101.427V104.044C328.26 103.878 325.091 103.795 324.537 103.795C324.094 103.795 320.897 103.878 314.946 104.044Z"/>
<path d="M359.33 48.5735V45.9142L371.578 45.0001V71.9668C374.871 68.2826 378.76 66.4405 383.244 66.4405C388.116 66.4405 392.337 68.3103 395.907 72.0499C399.478 75.7895 401.263 80.3325 401.263 85.6787C401.263 91.0804 399.395 95.651 395.658 99.3906C391.922 103.13 387.465 105 382.289 105C377.584 105 373.875 102.922 371.162 98.7674C369.169 102.23 368.145 103.989 368.09 104.044H365.973V53.3103C365.973 51.205 365.599 49.8893 364.852 49.3629C364.104 48.8366 362.264 48.5735 359.33 48.5735ZM371.827 94.3629C371.827 95.5541 372.228 96.7452 373.031 97.9363C375.273 101.371 378.22 103.089 381.874 103.089C381.902 103.089 381.929 103.089 381.957 103.089C385.915 103.089 389.126 101.274 391.589 97.6455C393.333 94.9308 394.205 90.9142 394.205 85.5956C394.205 80.3325 393.389 76.3851 391.755 73.7535C389.486 70.1247 386.51 68.3103 382.829 68.3103C378.677 68.3103 375.328 70.1247 372.782 73.7535C372.145 74.6676 371.827 75.6926 371.827 76.8283V94.3629Z"/>
<path d="M414.508 99.4737C410.771 95.7618 408.903 91.2189 408.903 85.8449C408.903 80.4433 410.729 75.7757 414.383 71.8422C418.064 67.8809 422.534 65.9003 427.793 65.9003C432.942 65.9003 437.356 67.8671 441.038 71.8006C444.747 75.7064 446.601 80.3879 446.601 85.8449C446.601 91.1912 444.733 95.7203 440.996 99.4322C437.287 103.144 432.859 105 427.71 105C422.673 105 418.272 103.158 414.508 99.4737ZM415.961 85.1386C415.961 90.651 416.68 94.6538 418.12 97.1469C420.334 100.942 423.559 102.839 427.793 102.839C429.897 102.839 431.821 102.272 433.564 101.136C435.336 100 436.706 98.4765 437.675 96.5652C438.92 94.0721 439.543 90.2632 439.543 85.1386C439.543 79.6815 438.796 75.748 437.301 73.338C435.087 69.6538 431.89 67.8117 427.71 67.8117C425.884 67.8117 424.071 68.2965 422.271 69.266C420.5 70.2078 419.075 71.6206 417.995 73.5042C416.639 75.9973 415.961 79.8754 415.961 85.1386Z"/>
<path d="M450.67 70.0139V68.1441C453.272 68.0333 455.431 67.0638 457.147 65.2355C458.891 63.3796 460.053 61.3158 460.634 59.0444C461.243 56.7729 461.575 54.3214 461.631 51.6898H463.748V67.3546H475.913V70.0139H463.748V93.6566C463.748 99.7785 465.658 102.839 469.478 102.839C471.111 102.839 472.467 102.008 473.547 100.346C474.626 98.6566 475.166 96.3158 475.166 93.3242V88.6289H477.283V93.4904C477.283 96.5652 476.577 99.2521 475.166 101.551C473.754 103.85 471.651 105 468.855 105C467.831 105 466.807 104.862 465.783 104.585C464.786 104.335 463.624 103.878 462.295 103.213C460.994 102.521 459.929 101.344 459.098 99.6815C458.296 97.9917 457.894 95.928 457.894 93.4904V70.0139H450.67Z"/>
<path d="M484.84 102.922V91.7037C484.84 91.0665 484.853 90.6372 484.881 90.4156C484.909 90.194 485.006 90.0001 485.172 89.8339C485.338 89.6676 485.587 89.5845 485.919 89.5845C486.307 89.5845 486.57 89.6676 486.708 89.8339C486.874 90.0001 487.012 90.4017 487.123 91.0388C487.981 94.9447 489.324 97.9363 491.15 100.014C493.005 102.064 495.607 103.089 498.956 103.089C502.139 103.089 504.533 102.382 506.139 100.97C507.744 99.5568 508.547 97.687 508.547 95.3602C508.547 91.205 505.599 88.6012 499.703 87.5485C496.299 86.856 493.891 86.2881 492.479 85.8449C491.067 85.374 489.739 84.6261 488.493 83.6012C486.057 81.6067 484.84 79.1967 484.84 76.3713C484.84 73.5458 485.905 71.0942 488.037 69.0167C490.195 66.9391 493.655 65.9003 498.416 65.9003C501.599 65.9003 504.27 66.7037 506.429 68.3103C507.066 67.8117 507.55 67.3546 507.882 66.9391C508.63 66.2466 509.197 65.9003 509.585 65.9003C510.027 65.9003 510.29 66.0527 510.373 66.3574C510.456 66.6344 510.498 67.1746 510.498 67.9779V76.5375C510.498 77.1746 510.484 77.6039 510.456 77.8255C510.429 78.0472 510.332 78.2411 510.166 78.4073C510 78.5458 509.737 78.615 509.377 78.615C508.74 78.615 508.408 78.3519 508.381 77.8255C507.938 70.9557 504.616 67.5208 498.416 67.5208C495.067 67.5208 492.645 68.1718 491.15 69.4737C489.656 70.748 488.908 72.2577 488.908 74.0028C488.908 74.9724 489.13 75.8311 489.573 76.579C490.043 77.2992 490.569 77.8809 491.15 78.3242C491.759 78.7397 492.617 79.1552 493.725 79.5707C494.832 79.9585 495.717 80.2217 496.382 80.3602C497.074 80.4987 498.07 80.7064 499.371 80.9834C503.91 81.8422 507.135 83.1995 509.045 85.0555C511.425 87.4377 512.615 90.1386 512.615 93.158C512.615 96.5098 511.481 99.3214 509.211 101.593C506.941 103.864 503.523 105 498.956 105C495.275 105 492.147 103.767 489.573 101.302C489.241 101.634 488.95 101.953 488.701 102.258C488.452 102.535 488.272 102.729 488.161 102.839C488.078 102.95 488.023 103.047 487.995 103.13C487.967 103.186 487.926 103.241 487.87 103.296C486.736 104.432 486.03 105 485.753 105C485.31 105 485.047 104.848 484.964 104.543C484.881 104.266 484.84 103.726 484.84 102.922Z"/>
</mask>
<path d="M160 104.044V101.427H162.034C165.107 101.427 166.989 101.177 167.681 100.679C168.401 100.152 168.76 99.0582 168.76 97.3962V52.8117C168.76 51.1773 168.401 50.1109 167.681 49.6122C166.961 49.0859 165.079 48.8228 162.034 48.8228H160V46.1635H206.667L209.033 65.3186H206.916C206.528 62.0776 206.072 59.543 205.546 57.7147C205.047 55.8588 204.217 54.1967 203.055 52.7286C201.892 51.2604 200.328 50.2494 198.363 49.6954C196.425 49.1136 193.865 48.8228 190.682 48.8228H180.469C178.531 48.8228 177.355 49.0305 176.939 49.446C176.524 49.8339 176.317 50.7618 176.317 52.23V73.7535H183.624C187.471 73.7535 189.935 73.061 191.014 71.676C192.094 70.2909 192.633 67.6593 192.633 63.7812H194.751V86.3435H192.633C192.633 82.4377 192.094 79.8062 191.014 78.4488C189.935 77.0638 187.471 76.3713 183.624 76.3713H176.317V97.3131C176.317 98.5042 176.414 99.3352 176.607 99.8062C176.801 100.249 177.493 100.637 178.683 100.97C179.873 101.274 181.769 101.427 184.371 101.427H187.195V104.044C185.146 103.878 180.386 103.795 172.912 103.795C166.297 103.795 161.993 103.878 160 104.044Z" fill="black"/>
<path d="M215.469 104.044V101.427C218.486 101.427 220.34 101.247 221.032 100.886C221.724 100.499 222.07 99.3906 222.07 97.5624V53.3103C222.07 51.205 221.696 49.8893 220.949 49.3629C220.229 48.8366 218.402 48.5735 215.469 48.5735V45.9142L227.675 45.0001V97.5624C227.675 99.3906 228.035 100.499 228.754 100.886C229.474 101.247 231.329 101.427 234.318 101.427V104.044C233.626 104.044 232.56 104.017 231.121 103.961C229.682 103.906 228.436 103.864 227.384 103.837C226.332 103.809 225.502 103.795 224.893 103.795C224.229 103.795 221.087 103.878 215.469 104.044Z" fill="black"/>
<path d="M239.798 95.9419C239.798 91.1219 242.635 87.4377 248.31 84.8893C251.714 83.2549 256.932 82.23 263.962 81.8145V78.6981C263.962 75.1801 263.035 72.4931 261.18 70.6372C259.353 68.7535 257.278 67.8117 254.952 67.8117C250.801 67.8117 247.728 69.1136 245.735 71.7175C247.424 71.7729 248.572 72.23 249.181 73.0887C249.79 73.9197 250.095 74.7646 250.095 75.6233C250.095 76.7591 249.735 77.7009 249.015 78.4488C248.323 79.169 247.382 79.5291 246.192 79.5291C245.057 79.5291 244.116 79.1829 243.369 78.4904C242.622 77.7701 242.248 76.7868 242.248 75.5402C242.248 72.7701 243.493 70.471 245.985 68.6427C248.503 66.8145 251.548 65.9003 255.119 65.9003C259.769 65.9003 263.644 67.4654 266.744 70.5956C267.712 71.5652 268.432 72.6732 268.903 73.9197C269.401 75.1663 269.678 76.205 269.733 77.0361C269.788 77.8394 269.816 79.0444 269.816 80.651V97.6455C269.816 97.9779 269.871 98.4211 269.982 98.9751C270.093 99.5291 270.397 100.166 270.896 100.886C271.421 101.579 272.113 101.925 272.971 101.925C275.02 101.925 276.03 100.111 276.002 96.4821V91.7037H278.161V96.4821C278.161 99.5014 277.359 101.607 275.753 102.798C274.175 103.961 272.653 104.543 271.186 104.543C269.304 104.543 267.768 103.85 266.578 102.465C265.387 101.08 264.709 99.446 264.543 97.5624C263.685 99.7231 262.274 101.51 260.308 102.922C258.371 104.308 256.073 105 253.416 105C251.368 105 249.375 104.737 247.438 104.211C245.528 103.712 243.77 102.756 242.165 101.344C240.587 99.9031 239.798 98.1026 239.798 95.9419ZM246.358 95.8588C246.358 97.964 247.106 99.6953 248.6 101.053C250.095 102.41 251.894 103.089 253.998 103.089C256.378 103.089 258.634 102.175 260.765 100.346C262.896 98.4904 263.962 95.748 263.962 92.1192V83.6012C257.679 83.8228 253.167 85.194 250.427 87.7147C247.714 90.2078 246.358 92.9225 246.358 95.8588Z" fill="black"/>
<path d="M281.566 102.922V91.7037C281.566 91.0665 281.58 90.6372 281.607 90.4156C281.635 90.194 281.732 90.0001 281.898 89.8339C282.064 89.6676 282.313 89.5845 282.645 89.5845C283.033 89.5845 283.296 89.6676 283.434 89.8339C283.6 90.0001 283.739 90.4017 283.849 91.0388C284.707 94.9447 286.05 97.9363 287.877 100.014C289.731 102.064 292.333 103.089 295.682 103.089C298.865 103.089 301.259 102.382 302.865 100.97C304.47 99.5568 305.273 97.687 305.273 95.3602C305.273 91.205 302.325 88.6012 296.429 87.5485C293.025 86.856 290.617 86.2881 289.205 85.8449C287.793 85.374 286.465 84.6261 285.219 83.6012C282.784 81.6067 281.566 79.1967 281.566 76.3713C281.566 73.5458 282.631 71.0942 284.763 69.0167C286.922 66.9391 290.381 65.9003 295.142 65.9003C298.325 65.9003 300.996 66.7037 303.155 68.3103C303.792 67.8117 304.276 67.3546 304.608 66.9391C305.356 66.2466 305.923 65.9003 306.311 65.9003C306.754 65.9003 307.016 66.0527 307.1 66.3574C307.183 66.6344 307.224 67.1746 307.224 67.9779V76.5375C307.224 77.1746 307.21 77.6039 307.183 77.8255C307.155 78.0472 307.058 78.2411 306.892 78.4073C306.726 78.5458 306.463 78.615 306.103 78.615C305.466 78.615 305.134 78.3519 305.107 77.8255C304.664 70.9557 301.342 67.5208 295.142 67.5208C291.793 67.5208 289.371 68.1718 287.877 69.4737C286.382 70.748 285.635 72.2577 285.635 74.0028C285.635 74.9724 285.856 75.8311 286.299 76.579C286.769 77.2992 287.295 77.8809 287.877 78.3242C288.485 78.7397 289.344 79.1552 290.451 79.5707C291.558 79.9585 292.444 80.2217 293.108 80.3602C293.8 80.4987 294.796 80.7064 296.097 80.9834C300.637 81.8422 303.861 83.1995 305.771 85.0555C308.151 87.4377 309.342 90.1386 309.342 93.158C309.342 96.5098 308.207 99.3214 305.937 101.593C303.667 103.864 300.249 105 295.682 105C292.001 105 288.873 103.767 286.299 101.302C285.967 101.634 285.676 101.953 285.427 102.258C285.178 102.535 284.998 102.729 284.887 102.839C284.804 102.95 284.749 103.047 284.721 103.13C284.693 103.186 284.652 103.241 284.597 103.296C283.462 104.432 282.756 105 282.479 105C282.036 105 281.773 104.848 281.69 104.543C281.607 104.266 281.566 103.726 281.566 102.922Z" fill="black"/>
<path d="M314.946 104.044V101.427C317.963 101.427 319.818 101.247 320.51 100.886C321.202 100.499 321.548 99.3906 321.548 97.5624V53.3103C321.548 51.205 321.174 49.8893 320.427 49.3629C319.707 48.8366 317.88 48.5735 314.946 48.5735V45.9142L327.153 45.0001V74.5845H327.236C328.149 72.5347 329.63 70.6649 331.678 68.9751C333.727 67.2854 336.328 66.4405 339.484 66.4405C343.746 66.4405 346.722 67.4931 348.41 69.5984C349.656 71.0111 350.403 72.507 350.652 74.0859C350.929 75.6649 351.067 78.5042 351.067 82.6039V98.8505C351.123 100.042 351.607 100.776 352.521 101.053C353.434 101.302 355.164 101.427 357.71 101.427V104.044C351.926 103.878 348.742 103.795 348.161 103.795C347.718 103.795 344.521 103.878 338.57 104.044V101.427C341.587 101.427 343.442 101.247 344.134 100.886C344.854 100.499 345.213 99.3906 345.213 97.5624V77.7424C345.213 74.8616 344.771 72.5762 343.885 70.8865C342.999 69.169 341.338 68.3103 338.903 68.3103C335.969 68.3103 333.325 69.543 330.973 72.0084C328.62 74.4737 327.444 77.784 327.444 81.9391V97.5624C327.444 99.3906 327.79 100.499 328.481 100.886C329.201 101.247 331.056 101.427 334.045 101.427V104.044C328.26 103.878 325.091 103.795 324.537 103.795C324.094 103.795 320.897 103.878 314.946 104.044Z" fill="black"/>
<path d="M359.33 48.5735V45.9142L371.578 45.0001V71.9668C374.871 68.2826 378.76 66.4405 383.244 66.4405C388.116 66.4405 392.337 68.3103 395.907 72.0499C399.478 75.7895 401.263 80.3325 401.263 85.6787C401.263 91.0804 399.395 95.651 395.658 99.3906C391.922 103.13 387.465 105 382.289 105C377.584 105 373.875 102.922 371.162 98.7674C369.169 102.23 368.145 103.989 368.09 104.044H365.973V53.3103C365.973 51.205 365.599 49.8893 364.852 49.3629C364.104 48.8366 362.264 48.5735 359.33 48.5735ZM371.827 94.3629C371.827 95.5541 372.228 96.7452 373.031 97.9363C375.273 101.371 378.22 103.089 381.874 103.089C381.902 103.089 381.929 103.089 381.957 103.089C385.915 103.089 389.126 101.274 391.589 97.6455C393.333 94.9308 394.205 90.9142 394.205 85.5956C394.205 80.3325 393.389 76.3851 391.755 73.7535C389.486 70.1247 386.51 68.3103 382.829 68.3103C378.677 68.3103 375.328 70.1247 372.782 73.7535C372.145 74.6676 371.827 75.6926 371.827 76.8283V94.3629Z" fill="black"/>
<path d="M414.508 99.4737C410.771 95.7618 408.903 91.2189 408.903 85.8449C408.903 80.4433 410.729 75.7757 414.383 71.8422C418.064 67.8809 422.534 65.9003 427.793 65.9003C432.942 65.9003 437.356 67.8671 441.038 71.8006C444.747 75.7064 446.601 80.3879 446.601 85.8449C446.601 91.1912 444.733 95.7203 440.996 99.4322C437.287 103.144 432.859 105 427.71 105C422.673 105 418.272 103.158 414.508 99.4737ZM415.961 85.1386C415.961 90.651 416.68 94.6538 418.12 97.1469C420.334 100.942 423.559 102.839 427.793 102.839C429.897 102.839 431.821 102.272 433.564 101.136C435.336 100 436.706 98.4765 437.675 96.5652C438.92 94.0721 439.543 90.2632 439.543 85.1386C439.543 79.6815 438.796 75.748 437.301 73.338C435.087 69.6538 431.89 67.8117 427.71 67.8117C425.884 67.8117 424.071 68.2965 422.271 69.266C420.5 70.2078 419.075 71.6206 417.995 73.5042C416.639 75.9973 415.961 79.8754 415.961 85.1386Z" fill="black"/>
<path d="M450.67 70.0139V68.1441C453.272 68.0333 455.431 67.0638 457.147 65.2355C458.891 63.3796 460.053 61.3158 460.634 59.0444C461.243 56.7729 461.575 54.3214 461.631 51.6898H463.748V67.3546H475.913V70.0139H463.748V93.6566C463.748 99.7785 465.658 102.839 469.478 102.839C471.111 102.839 472.467 102.008 473.547 100.346C474.626 98.6566 475.166 96.3158 475.166 93.3242V88.6289H477.283V93.4904C477.283 96.5652 476.577 99.2521 475.166 101.551C473.754 103.85 471.651 105 468.855 105C467.831 105 466.807 104.862 465.783 104.585C464.786 104.335 463.624 103.878 462.295 103.213C460.994 102.521 459.929 101.344 459.098 99.6815C458.296 97.9917 457.894 95.928 457.894 93.4904V70.0139H450.67Z" fill="black"/>
<path d="M484.84 102.922V91.7037C484.84 91.0665 484.853 90.6372 484.881 90.4156C484.909 90.194 485.006 90.0001 485.172 89.8339C485.338 89.6676 485.587 89.5845 485.919 89.5845C486.307 89.5845 486.57 89.6676 486.708 89.8339C486.874 90.0001 487.012 90.4017 487.123 91.0388C487.981 94.9447 489.324 97.9363 491.15 100.014C493.005 102.064 495.607 103.089 498.956 103.089C502.139 103.089 504.533 102.382 506.139 100.97C507.744 99.5568 508.547 97.687 508.547 95.3602C508.547 91.205 505.599 88.6012 499.703 87.5485C496.299 86.856 493.891 86.2881 492.479 85.8449C491.067 85.374 489.739 84.6261 488.493 83.6012C486.057 81.6067 484.84 79.1967 484.84 76.3713C484.84 73.5458 485.905 71.0942 488.037 69.0167C490.195 66.9391 493.655 65.9003 498.416 65.9003C501.599 65.9003 504.27 66.7037 506.429 68.3103C507.066 67.8117 507.55 67.3546 507.882 66.9391C508.63 66.2466 509.197 65.9003 509.585 65.9003C510.027 65.9003 510.29 66.0527 510.373 66.3574C510.456 66.6344 510.498 67.1746 510.498 67.9779V76.5375C510.498 77.1746 510.484 77.6039 510.456 77.8255C510.429 78.0472 510.332 78.2411 510.166 78.4073C510 78.5458 509.737 78.615 509.377 78.615C508.74 78.615 508.408 78.3519 508.381 77.8255C507.938 70.9557 504.616 67.5208 498.416 67.5208C495.067 67.5208 492.645 68.1718 491.15 69.4737C489.656 70.748 488.908 72.2577 488.908 74.0028C488.908 74.9724 489.13 75.8311 489.573 76.579C490.043 77.2992 490.569 77.8809 491.15 78.3242C491.759 78.7397 492.617 79.1552 493.725 79.5707C494.832 79.9585 495.717 80.2217 496.382 80.3602C497.074 80.4987 498.07 80.7064 499.371 80.9834C503.91 81.8422 507.135 83.1995 509.045 85.0555C511.425 87.4377 512.615 90.1386 512.615 93.158C512.615 96.5098 511.481 99.3214 509.211 101.593C506.941 103.864 503.523 105 498.956 105C495.275 105 492.147 103.767 489.573 101.302C489.241 101.634 488.95 101.953 488.701 102.258C488.452 102.535 488.272 102.729 488.161 102.839C488.078 102.95 488.023 103.047 487.995 103.13C487.967 103.186 487.926 103.241 487.87 103.296C486.736 104.432 486.03 105 485.753 105C485.31 105 485.047 104.848 484.964 104.543C484.881 104.266 484.84 103.726 484.84 102.922Z" fill="black"/>
<path d="M160 104.044V101.427H162.034C165.107 101.427 166.989 101.177 167.681 100.679C168.401 100.152 168.76 99.0582 168.76 97.3962V52.8117C168.76 51.1773 168.401 50.1109 167.681 49.6122C166.961 49.0859 165.079 48.8228 162.034 48.8228H160V46.1635H206.667L209.033 65.3186H206.916C206.528 62.0776 206.072 59.543 205.546 57.7147C205.047 55.8588 204.217 54.1967 203.055 52.7286C201.892 51.2604 200.328 50.2494 198.363 49.6954C196.425 49.1136 193.865 48.8228 190.682 48.8228H180.469C178.531 48.8228 177.355 49.0305 176.939 49.446C176.524 49.8339 176.317 50.7618 176.317 52.23V73.7535H183.624C187.471 73.7535 189.935 73.061 191.014 71.676C192.094 70.2909 192.633 67.6593 192.633 63.7812H194.751V86.3435H192.633C192.633 82.4377 192.094 79.8062 191.014 78.4488C189.935 77.0638 187.471 76.3713 183.624 76.3713H176.317V97.3131C176.317 98.5042 176.414 99.3352 176.607 99.8062C176.801 100.249 177.493 100.637 178.683 100.97C179.873 101.274 181.769 101.427 184.371 101.427H187.195V104.044C185.146 103.878 180.386 103.795 172.912 103.795C166.297 103.795 161.993 103.878 160 104.044Z" stroke="black" mask="url(#path-15-outside-1_22_5073)"/>
<path d="M215.469 104.044V101.427C218.486 101.427 220.34 101.247 221.032 100.886C221.724 100.499 222.07 99.3906 222.07 97.5624V53.3103C222.07 51.205 221.696 49.8893 220.949 49.3629C220.229 48.8366 218.402 48.5735 215.469 48.5735V45.9142L227.675 45.0001V97.5624C227.675 99.3906 228.035 100.499 228.754 100.886C229.474 101.247 231.329 101.427 234.318 101.427V104.044C233.626 104.044 232.56 104.017 231.121 103.961C229.682 103.906 228.436 103.864 227.384 103.837C226.332 103.809 225.502 103.795 224.893 103.795C224.229 103.795 221.087 103.878 215.469 104.044Z" stroke="black" mask="url(#path-15-outside-1_22_5073)"/>
<path d="M239.798 95.9419C239.798 91.1219 242.635 87.4377 248.31 84.8893C251.714 83.2549 256.932 82.23 263.962 81.8145V78.6981C263.962 75.1801 263.035 72.4931 261.18 70.6372C259.353 68.7535 257.278 67.8117 254.952 67.8117C250.801 67.8117 247.728 69.1136 245.735 71.7175C247.424 71.7729 248.572 72.23 249.181 73.0887C249.79 73.9197 250.095 74.7646 250.095 75.6233C250.095 76.7591 249.735 77.7009 249.015 78.4488C248.323 79.169 247.382 79.5291 246.192 79.5291C245.057 79.5291 244.116 79.1829 243.369 78.4904C242.622 77.7701 242.248 76.7868 242.248 75.5402C242.248 72.7701 243.493 70.471 245.985 68.6427C248.503 66.8145 251.548 65.9003 255.119 65.9003C259.769 65.9003 263.644 67.4654 266.744 70.5956C267.712 71.5652 268.432 72.6732 268.903 73.9197C269.401 75.1663 269.678 76.205 269.733 77.0361C269.788 77.8394 269.816 79.0444 269.816 80.651V97.6455C269.816 97.9779 269.871 98.4211 269.982 98.9751C270.093 99.5291 270.397 100.166 270.896 100.886C271.421 101.579 272.113 101.925 272.971 101.925C275.02 101.925 276.03 100.111 276.002 96.4821V91.7037H278.161V96.4821C278.161 99.5014 277.359 101.607 275.753 102.798C274.175 103.961 272.653 104.543 271.186 104.543C269.304 104.543 267.768 103.85 266.578 102.465C265.387 101.08 264.709 99.446 264.543 97.5624C263.685 99.7231 262.274 101.51 260.308 102.922C258.371 104.308 256.073 105 253.416 105C251.368 105 249.375 104.737 247.438 104.211C245.528 103.712 243.77 102.756 242.165 101.344C240.587 99.9031 239.798 98.1026 239.798 95.9419ZM246.358 95.8588C246.358 97.964 247.106 99.6953 248.6 101.053C250.095 102.41 251.894 103.089 253.998 103.089C256.378 103.089 258.634 102.175 260.765 100.346C262.896 98.4904 263.962 95.748 263.962 92.1192V83.6012C257.679 83.8228 253.167 85.194 250.427 87.7147C247.714 90.2078 246.358 92.9225 246.358 95.8588Z" stroke="black" mask="url(#path-15-outside-1_22_5073)"/>
<path d="M281.566 102.922V91.7037C281.566 91.0665 281.58 90.6372 281.607 90.4156C281.635 90.194 281.732 90.0001 281.898 89.8339C282.064 89.6676 282.313 89.5845 282.645 89.5845C283.033 89.5845 283.296 89.6676 283.434 89.8339C283.6 90.0001 283.739 90.4017 283.849 91.0388C284.707 94.9447 286.05 97.9363 287.877 100.014C289.731 102.064 292.333 103.089 295.682 103.089C298.865 103.089 301.259 102.382 302.865 100.97C304.47 99.5568 305.273 97.687 305.273 95.3602C305.273 91.205 302.325 88.6012 296.429 87.5485C293.025 86.856 290.617 86.2881 289.205 85.8449C287.793 85.374 286.465 84.6261 285.219 83.6012C282.784 81.6067 281.566 79.1967 281.566 76.3713C281.566 73.5458 282.631 71.0942 284.763 69.0167C286.922 66.9391 290.381 65.9003 295.142 65.9003C298.325 65.9003 300.996 66.7037 303.155 68.3103C303.792 67.8117 304.276 67.3546 304.608 66.9391C305.356 66.2466 305.923 65.9003 306.311 65.9003C306.754 65.9003 307.016 66.0527 307.1 66.3574C307.183 66.6344 307.224 67.1746 307.224 67.9779V76.5375C307.224 77.1746 307.21 77.6039 307.183 77.8255C307.155 78.0472 307.058 78.2411 306.892 78.4073C306.726 78.5458 306.463 78.615 306.103 78.615C305.466 78.615 305.134 78.3519 305.107 77.8255C304.664 70.9557 301.342 67.5208 295.142 67.5208C291.793 67.5208 289.371 68.1718 287.877 69.4737C286.382 70.748 285.635 72.2577 285.635 74.0028C285.635 74.9724 285.856 75.8311 286.299 76.579C286.769 77.2992 287.295 77.8809 287.877 78.3242C288.485 78.7397 289.344 79.1552 290.451 79.5707C291.558 79.9585 292.444 80.2217 293.108 80.3602C293.8 80.4987 294.796 80.7064 296.097 80.9834C300.637 81.8422 303.861 83.1995 305.771 85.0555C308.151 87.4377 309.342 90.1386 309.342 93.158C309.342 96.5098 308.207 99.3214 305.937 101.593C303.667 103.864 300.249 105 295.682 105C292.001 105 288.873 103.767 286.299 101.302C285.967 101.634 285.676 101.953 285.427 102.258C285.178 102.535 284.998 102.729 284.887 102.839C284.804 102.95 284.749 103.047 284.721 103.13C284.693 103.186 284.652 103.241 284.597 103.296C283.462 104.432 282.756 105 282.479 105C282.036 105 281.773 104.848 281.69 104.543C281.607 104.266 281.566 103.726 281.566 102.922Z" stroke="black" mask="url(#path-15-outside-1_22_5073)"/>
<path d="M314.946 104.044V101.427C317.963 101.427 319.818 101.247 320.51 100.886C321.202 100.499 321.548 99.3906 321.548 97.5624V53.3103C321.548 51.205 321.174 49.8893 320.427 49.3629C319.707 48.8366 317.88 48.5735 314.946 48.5735V45.9142L327.153 45.0001V74.5845H327.236C328.149 72.5347 329.63 70.6649 331.678 68.9751C333.727 67.2854 336.328 66.4405 339.484 66.4405C343.746 66.4405 346.722 67.4931 348.41 69.5984C349.656 71.0111 350.403 72.507 350.652 74.0859C350.929 75.6649 351.067 78.5042 351.067 82.6039V98.8505C351.123 100.042 351.607 100.776 352.521 101.053C353.434 101.302 355.164 101.427 357.71 101.427V104.044C351.926 103.878 348.742 103.795 348.161 103.795C347.718 103.795 344.521 103.878 338.57 104.044V101.427C341.587 101.427 343.442 101.247 344.134 100.886C344.854 100.499 345.213 99.3906 345.213 97.5624V77.7424C345.213 74.8616 344.771 72.5762 343.885 70.8865C342.999 69.169 341.338 68.3103 338.903 68.3103C335.969 68.3103 333.325 69.543 330.973 72.0084C328.62 74.4737 327.444 77.784 327.444 81.9391V97.5624C327.444 99.3906 327.79 100.499 328.481 100.886C329.201 101.247 331.056 101.427 334.045 101.427V104.044C328.26 103.878 325.091 103.795 324.537 103.795C324.094 103.795 320.897 103.878 314.946 104.044Z" stroke="black" mask="url(#path-15-outside-1_22_5073)"/>
<path d="M359.33 48.5735V45.9142L371.578 45.0001V71.9668C374.871 68.2826 378.76 66.4405 383.244 66.4405C388.116 66.4405 392.337 68.3103 395.907 72.0499C399.478 75.7895 401.263 80.3325 401.263 85.6787C401.263 91.0804 399.395 95.651 395.658 99.3906C391.922 103.13 387.465 105 382.289 105C377.584 105 373.875 102.922 371.162 98.7674C369.169 102.23 368.145 103.989 368.09 104.044H365.973V53.3103C365.973 51.205 365.599 49.8893 364.852 49.3629C364.104 48.8366 362.264 48.5735 359.33 48.5735ZM371.827 94.3629C371.827 95.5541 372.228 96.7452 373.031 97.9363C375.273 101.371 378.22 103.089 381.874 103.089C381.902 103.089 381.929 103.089 381.957 103.089C385.915 103.089 389.126 101.274 391.589 97.6455C393.333 94.9308 394.205 90.9142 394.205 85.5956C394.205 80.3325 393.389 76.3851 391.755 73.7535C389.486 70.1247 386.51 68.3103 382.829 68.3103C378.677 68.3103 375.328 70.1247 372.782 73.7535C372.145 74.6676 371.827 75.6926 371.827 76.8283V94.3629Z" stroke="black" mask="url(#path-15-outside-1_22_5073)"/>
<path d="M414.508 99.4737C410.771 95.7618 408.903 91.2189 408.903 85.8449C408.903 80.4433 410.729 75.7757 414.383 71.8422C418.064 67.8809 422.534 65.9003 427.793 65.9003C432.942 65.9003 437.356 67.8671 441.038 71.8006C444.747 75.7064 446.601 80.3879 446.601 85.8449C446.601 91.1912 444.733 95.7203 440.996 99.4322C437.287 103.144 432.859 105 427.71 105C422.673 105 418.272 103.158 414.508 99.4737ZM415.961 85.1386C415.961 90.651 416.68 94.6538 418.12 97.1469C420.334 100.942 423.559 102.839 427.793 102.839C429.897 102.839 431.821 102.272 433.564 101.136C435.336 100 436.706 98.4765 437.675 96.5652C438.92 94.0721 439.543 90.2632 439.543 85.1386C439.543 79.6815 438.796 75.748 437.301 73.338C435.087 69.6538 431.89 67.8117 427.71 67.8117C425.884 67.8117 424.071 68.2965 422.271 69.266C420.5 70.2078 419.075 71.6206 417.995 73.5042C416.639 75.9973 415.961 79.8754 415.961 85.1386Z" stroke="black" mask="url(#path-15-outside-1_22_5073)"/>
<path d="M450.67 70.0139V68.1441C453.272 68.0333 455.431 67.0638 457.147 65.2355C458.891 63.3796 460.053 61.3158 460.634 59.0444C461.243 56.7729 461.575 54.3214 461.631 51.6898H463.748V67.3546H475.913V70.0139H463.748V93.6566C463.748 99.7785 465.658 102.839 469.478 102.839C471.111 102.839 472.467 102.008 473.547 100.346C474.626 98.6566 475.166 96.3158 475.166 93.3242V88.6289H477.283V93.4904C477.283 96.5652 476.577 99.2521 475.166 101.551C473.754 103.85 471.651 105 468.855 105C467.831 105 466.807 104.862 465.783 104.585C464.786 104.335 463.624 103.878 462.295 103.213C460.994 102.521 459.929 101.344 459.098 99.6815C458.296 97.9917 457.894 95.928 457.894 93.4904V70.0139H450.67Z" stroke="black" mask="url(#path-15-outside-1_22_5073)"/>
<path d="M484.84 102.922V91.7037C484.84 91.0665 484.853 90.6372 484.881 90.4156C484.909 90.194 485.006 90.0001 485.172 89.8339C485.338 89.6676 485.587 89.5845 485.919 89.5845C486.307 89.5845 486.57 89.6676 486.708 89.8339C486.874 90.0001 487.012 90.4017 487.123 91.0388C487.981 94.9447 489.324 97.9363 491.15 100.014C493.005 102.064 495.607 103.089 498.956 103.089C502.139 103.089 504.533 102.382 506.139 100.97C507.744 99.5568 508.547 97.687 508.547 95.3602C508.547 91.205 505.599 88.6012 499.703 87.5485C496.299 86.856 493.891 86.2881 492.479 85.8449C491.067 85.374 489.739 84.6261 488.493 83.6012C486.057 81.6067 484.84 79.1967 484.84 76.3713C484.84 73.5458 485.905 71.0942 488.037 69.0167C490.195 66.9391 493.655 65.9003 498.416 65.9003C501.599 65.9003 504.27 66.7037 506.429 68.3103C507.066 67.8117 507.55 67.3546 507.882 66.9391C508.63 66.2466 509.197 65.9003 509.585 65.9003C510.027 65.9003 510.29 66.0527 510.373 66.3574C510.456 66.6344 510.498 67.1746 510.498 67.9779V76.5375C510.498 77.1746 510.484 77.6039 510.456 77.8255C510.429 78.0472 510.332 78.2411 510.166 78.4073C510 78.5458 509.737 78.615 509.377 78.615C508.74 78.615 508.408 78.3519 508.381 77.8255C507.938 70.9557 504.616 67.5208 498.416 67.5208C495.067 67.5208 492.645 68.1718 491.15 69.4737C489.656 70.748 488.908 72.2577 488.908 74.0028C488.908 74.9724 489.13 75.8311 489.573 76.579C490.043 77.2992 490.569 77.8809 491.15 78.3242C491.759 78.7397 492.617 79.1552 493.725 79.5707C494.832 79.9585 495.717 80.2217 496.382 80.3602C497.074 80.4987 498.07 80.7064 499.371 80.9834C503.91 81.8422 507.135 83.1995 509.045 85.0555C511.425 87.4377 512.615 90.1386 512.615 93.158C512.615 96.5098 511.481 99.3214 509.211 101.593C506.941 103.864 503.523 105 498.956 105C495.275 105 492.147 103.767 489.573 101.302C489.241 101.634 488.95 101.953 488.701 102.258C488.452 102.535 488.272 102.729 488.161 102.839C488.078 102.95 488.023 103.047 487.995 103.13C487.967 103.186 487.926 103.241 487.87 103.296C486.736 104.432 486.03 105 485.753 105C485.31 105 485.047 104.848 484.964 104.543C484.881 104.266 484.84 103.726 484.84 102.922Z" stroke="black" mask="url(#path-15-outside-1_22_5073)"/>
</svg>
